<?xml version="1.0" standalone="no"?>
<!DOCTYPE svg PUBLIC "-//W3C//DTD SVG 20010904//EN"
 "http://www.w3.org/TR/2001/REC-SVG-20010904/DTD/svg10.dtd">
<svg version="1.0" xmlns="http://www.w3.org/2000/svg"
 width="500.000000pt" height="500.000000pt" viewBox="0 0 500.000000 500.000000"
 preserveAspectRatio="xMidYMid meet">
<metadata>
Created by potrace 1.11, written by Peter Selinger 2001-2013
</metadata>
<g transform="translate(0.000000,500.000000) scale(0.100000,-0.100000)"
fill="#000000" stroke="none">
<path d="M1335 3947 c-40 -34 -42 -91 -5 -128 l28 -29 1089 0 1089 0 36 -92
c129 -326 388 -1001 385 -1004 -2 -2 -509 -4 -1128 -4 -686 -1 -1155 -5 -1204
-11 -597 -74 -1030 -509 -1291 -1296 -41 -125 -74 -246 -74 -274 0 -11 13 -34
29 -50 l29 -29 2192 0 2192 0 29 29 c16 17 29 40 29 54 0 20 -98 288 -139 382
-5 11 -28 70 -51 130 -45 118 -86 223 -145 375 -34 88 -153 393 -389 1003 -53
136 -139 358 -192 495 -53 136 -111 288 -130 337 -20 50 -46 100 -60 113 l-25
22 -1134 0 -1134 0 -26 -23z m2885 -1915 c101 -262 214 -553 250 -647 l67
-170 -2030 -3 c-1117 -1 -2032 0 -2034 2 -5 5 59 196 104 311 74 189 220 444
316 552 170 193 329 304 535 373 173 58 153 57 1432 59 l1175 1 185 -478z"/>
<path d="M1531 2065 c-26 -8 -62 -31 -87 -56 -145 -143 -61 -381 143 -406 88
-10 169 29 223 109 27 39 33 58 36 112 4 82 -15 132 -70 186 -64 64 -153 84
-245 55z"/>
<path d="M2484 2062 c-85 -35 -142 -108 -151 -194 -14 -138 76 -248 215 -265
168 -20 302 150 248 314 -42 126 -190 195 -312 145z"/>
<path d="M3435 2060 c-116 -55 -170 -179 -131 -298 18 -53 68 -112 116 -137
86 -44 207 -24 278 46 151 150 47 402 -168 407 -35 1 -69 -6 -95 -18z"/>
</g>
</svg>
