<?xml version="1.0" standalone="no"?>
<!DOCTYPE svg PUBLIC "-//W3C//DTD SVG 20010904//EN"
 "http://www.w3.org/TR/2001/REC-SVG-20010904/DTD/svg10.dtd">
<svg version="1.0" xmlns="http://www.w3.org/2000/svg"
 width="500.000000pt" height="500.000000pt" viewBox="0 0 500.000000 500.000000"
 preserveAspectRatio="xMidYMid meet">
<metadata>
Created by potrace 1.11, written by Peter Selinger 2001-2013
</metadata>
<g transform="translate(0.000000,500.000000) scale(0.100000,-0.100000)"
fill="#000000" stroke="none">
<path d="M408 4110 c-32 -33 -32 -28 -12 -235 2 -22 6 -69 9 -105 4 -36 8 -76
10 -90 2 -14 6 -59 10 -100 3 -41 10 -115 15 -165 10 -99 17 -169 25 -260 3
-33 7 -78 10 -100 5 -46 13 -135 20 -215 3 -30 8 -71 10 -90 3 -19 7 -64 10
-100 3 -36 9 -112 15 -170 6 -58 13 -132 16 -165 3 -33 7 -76 9 -95 2 -19 7
-64 10 -100 3 -36 8 -78 10 -95 2 -16 6 -70 10 -120 4 -49 9 -97 10 -106 2 -9
6 -56 10 -105 4 -49 9 -96 10 -105 2 -9 6 -52 10 -95 3 -43 8 -97 11 -119 11
-90 13 -114 19 -190 3 -44 8 -91 10 -105 2 -14 7 -59 10 -100 3 -41 8 -84 10
-95 2 -11 4 -26 4 -32 1 -10 372 -13 1821 -13 1611 0 1820 2 1821 15 1 8 2 18
3 23 1 4 6 48 11 97 4 50 9 99 10 110 2 11 5 56 9 100 4 44 9 94 11 110 5 33
11 91 21 205 3 41 8 86 9 100 1 14 6 59 9 100 4 41 9 91 11 110 2 19 7 64 10
100 3 36 7 85 10 110 2 25 7 69 10 98 3 28 7 73 10 100 12 124 17 180 20 212
1 19 6 64 9 100 11 107 15 142 21 215 3 39 8 86 10 105 2 19 7 69 11 110 3 41
8 89 10 105 2 17 6 64 9 105 3 41 8 86 10 100 2 14 7 59 10 100 3 41 8 86 10
100 2 14 7 61 10 105 4 44 8 91 10 105 1 14 5 59 9 100 4 41 9 91 11 110 2 19
7 70 11 112 6 77 6 78 -24 108 -41 40 -83 40 -123 1 -18 -18 -29 -41 -30 -58
0 -15 -2 -35 -4 -43 -1 -8 -6 -51 -9 -95 -4 -44 -9 -93 -10 -110 -2 -16 -6
-64 -10 -105 -4 -41 -9 -95 -11 -120 -3 -25 -8 -70 -10 -100 -3 -30 -8 -77
-11 -105 -3 -27 -7 -68 -9 -90 -16 -190 -26 -279 -30 -283 -6 -6 -80 36 -120
68 -22 17 -112 102 -200 189 -223 219 -304 265 -490 277 -154 11 -276 -23
-390 -109 -22 -17 -116 -107 -210 -202 -144 -146 -180 -177 -235 -203 -161
-75 -352 -54 -489 55 -25 20 -111 102 -191 183 -179 181 -254 234 -374 265
-49 13 -227 14 -271 2 -123 -34 -211 -95 -386 -270 -79 -79 -167 -161 -194
-183 -49 -38 -131 -81 -139 -73 -4 4 -12 64 -21 174 -3 39 -8 81 -10 95 -2 14
-6 61 -10 105 -3 44 -8 91 -10 105 -2 14 -6 61 -10 105 -3 44 -8 98 -11 120
-6 51 -11 110 -20 210 -3 44 -8 87 -9 95 -2 8 -4 28 -4 43 -1 17 -12 40 -30
58 -40 39 -82 39 -123 -1z m1252 -777 c58 -26 128 -82 215 -173 252 -262 342
-324 524 -355 48 -8 169 -9 221 0 169 26 257 87 513 354 161 168 249 210 406
197 86 -7 162 -38 230 -94 25 -20 111 -102 191 -182 155 -155 221 -207 316
-245 70 -29 66 2 40 -280 -2 -22 -7 -74 -11 -115 -3 -41 -8 -86 -10 -100 -2
-14 -6 -56 -10 -95 -10 -115 -16 -178 -21 -225 -2 -25 -6 -67 -9 -95 -2 -27
-7 -75 -10 -105 -3 -30 -8 -75 -10 -100 -2 -25 -7 -70 -9 -100 -3 -30 -8 -84
-11 -120 -4 -36 -8 -81 -10 -100 -2 -19 -7 -66 -11 -105 -3 -38 -7 -81 -9 -95
-1 -14 -6 -60 -10 -102 l-7 -78 -1659 0 -1659 0 -1 23 c-1 12 -2 33 -4 47 -1
14 -5 59 -9 100 -4 41 -9 91 -11 110 -6 51 -15 148 -19 200 -2 25 -7 68 -10
95 -3 28 -8 82 -11 120 -3 39 -8 88 -10 110 -2 22 -7 67 -10 100 -3 33 -8 78
-10 100 -6 58 -14 142 -20 208 -5 53 -8 85 -20 212 -3 28 -7 73 -10 100 -2 28
-7 79 -11 115 -4 36 -7 85 -8 109 l-1 44 50 16 c104 34 178 90 375 285 162
160 212 199 295 228 67 23 192 18 255 -9z"/>
</g>
</svg>
