<?xml version="1.0" standalone="no"?>
<!DOCTYPE svg PUBLIC "-//W3C//DTD SVG 20010904//EN"
 "http://www.w3.org/TR/2001/REC-SVG-20010904/DTD/svg10.dtd">
<svg version="1.0" xmlns="http://www.w3.org/2000/svg"
 width="500.000000pt" height="500.000000pt" viewBox="0 0 500.000000 500.000000"
 preserveAspectRatio="xMidYMid meet">
<metadata>
Created by potrace 1.11, written by Peter Selinger 2001-2013
</metadata>
<g transform="translate(0.000000,500.000000) scale(0.100000,-0.100000)"
fill="#000000" stroke="none">
<path d="M1350 3957 c-55 -28 -62 -108 -13 -147 25 -20 39 -20 1113 -20 l1088
0 15 -42 c9 -24 45 -117 80 -208 185 -472 327 -843 324 -846 -2 -2 -509 -4
-1128 -4 -686 -1 -1155 -5 -1204 -11 -482 -60 -859 -357 -1122 -884 -89 -177
-170 -392 -223 -589 -26 -99 -25 -112 9 -147 l29 -29 2192 0 2192 0 29 29 c16
17 29 40 29 54 0 20 -98 288 -139 382 -5 11 -28 70 -51 130 -48 126 -93 241
-143 370 -20 50 -94 241 -165 425 -72 184 -173 446 -226 582 -53 137 -139 359
-192 495 -53 137 -111 289 -130 338 -20 50 -46 100 -60 113 l-25 22 -1127 0
c-888 0 -1132 -3 -1152 -13z m2697 -1479 c6 -18 111 -289 233 -603 122 -314
230 -591 240 -617 l18 -48 -2034 0 -2034 0 6 28 c21 85 115 327 179 457 123
252 253 426 425 566 145 119 329 200 526 233 62 10 336 14 1255 15 l1176 1 10
-32z"/>
<path d="M2430 2065 c-163 -52 -211 -271 -88 -393 96 -95 245 -94 337 1 143
147 53 386 -151 403 -31 2 -72 -2 -98 -11z"/>
</g>
</svg>
