<svg xmlns="http://www.w3.org/2000/svg" viewBox="0 0 90 90"><style>.st0{fill:none;}</style><path d="M0 0h90v90H0z" class="st0"/><path d="M89.6 81.6L81.2 57l-.4-6.7c0-.2 0-.3-.1-.4l-1.6-3.2L76.3 5c0-.4-.2-.7-.6-.9L69.5.3c-.2-.2-.4-.3-.6-.3H21.1c-.2 0-.4.1-.6.2L14.3 4c-.3.2-.5.6-.6.9l-2.8 41.6-1.6 3.2c-.1.1-.1.3-.1.4L8.8 57 .4 81.6c-.1.2-.1.5 0 .8l2.3 6.8c.1.5.5.8 1.1.8h82.5c.5 0 1-.3 1.1-.8l2.3-6.8c0-.3 0-.6-.1-.8zm-78-30.8h66.8l.4 5.7H11.2l.4-5.7zm-.6 7.1h68l8 23.3H3l8-23.3zm5-52.1h58l2.7 40.4H13.3L16 5.8zm69.4 81.8H4.6L3 82.7h84l-1.6 4.9z"/><path d="M83.4 77.6l-1.9-5.4-1.9-5.5-1.9-5.5c-.1-.3-.4-.5-.7-.5H65.4c-.2 0-.4.1-.6.3-.1.2-.2.4-.1.6l1.2 5.5 1.2 5.5 1.2 5.5c.1.3.4.6.7.6h13.8c.4 0 .7-.3.7-.7 0-.3-.1-.3-.1-.4zM67.5 67.5h4.7l1.1 4.1h-5l-.8-4.1zm6.2 0h4.7l1.4 4.1h-5l-1.1-4.1zm2.9-5.5l1.4 4.1h-4.6L72.2 62h4.4zm-5.9 0l1.1 4.1h-4.7l-.8-4.1h4.4zm-1.1 15.1l-.9-4.1h5.1l1.1 4.1h-5.3zm6.8 0L75.3 73h5.1l1.4 4.1h-5.4zm-2.3-34.4L71.8 9.1c0-.3-.3-.5-.6-.5H18.7c-.3 0-.6.2-.6.5l-2.2 33.6c0 .2 0 .3.2.4.1.1.3.2.4.2h57c.3 0 .6-.2.6-.6zm-57-.5l2.2-32.5h51.5L73 42.2H17.1z"/><path d="M59.4 12.5c-4.8-.4-9.6-.5-14.4-.5s-9.6.2-14.4.5c-2.2.2-4.2 2.1-4.5 4.3-.7 6.2-.7 12.2 0 18.3.3 2.2 2.3 4.2 4.5 4.3 4.8.4 9.6.6 14.4.6 4.8 0 9.6-.2 14.4-.5 2.2-.2 4.2-2.1 4.5-4.3.7-6.2.7-12.2 0-18.3-.3-2.3-2.3-4.2-4.5-4.4zm-3.9 59.8l-.5-5.6-.5-5.5c0-.4-.3-.6-.7-.6H13.1c-.3 0-.6.2-.7.5l-1.9 5.5-1.9 5.5-1.9 5.5c-.1.2 0 .5.1.6.1.2.4.3.6.3h47.9c.2 0 .4-.1.5-.2s.2-.3.2-.5l-.5-5.5zm-37.7-4.8h4.7l-.9 4.1h-5l1.2-4.1zm6.2 0h4.8l-.6 4.1h-5l.8-4.1zm6.2 0H35l-.4 4.1h-5l.6-4.1zm6.2 0h4.8l-.2 4.1h-5l.4-4.1zm6.2 0h4.8l.1 4.1h-5l.1-4.1zm.2-5.5h4.5l.1 4.1h-4.7l.1-4.1zm6 5.5h4.8l.4 4.1h-5l-.2-4.1zm4.3-5.5l.4 4.1h-4.7l-.1-4.1h4.4zm-11.9 4.1h-4.7l.4-4.1h4.4l-.1 4.1zm-6.1 0h-4.7L31 62h4.4l-.3 4.1zm-6.2 0h-4.7l.9-4.1h4.4l-.6 4.1zm-6.1 0h-4.7l1.1-4.1h4.4l-.8 4.1zM13.4 62h4.4l-1.1 4.1H12l1.4-4.1zm-1.9 5.5h4.7l-1.1 4.1h-5l1.4-4.1zM9.7 73h5.1l-1.1 4.1H8.3L9.7 73zm6.5 0h5.1l-.9 4.1h-5.3l1.1-4.1zm6.6 0h5.1l-.6 4.1h-5.4l.9-4.1zm6.5 0h5.1l-.4 4.1h-5.4l.7-4.1zm6.6 0H41l-.1 4.1h-5.4l.4-4.1zm6.4 4.1l.1-4.1h5.1l.1 4.1h-5.3zm6.8 0L49 73h5.1l.4 4.1h-5.4z"/></svg>
