<?xml version="1.0" standalone="no"?>
<!DOCTYPE svg PUBLIC "-//W3C//DTD SVG 20010904//EN"
 "http://www.w3.org/TR/2001/REC-SVG-20010904/DTD/svg10.dtd">
<svg version="1.0" xmlns="http://www.w3.org/2000/svg"
 width="500.000000pt" height="500.000000pt" viewBox="0 0 500.000000 500.000000"
 preserveAspectRatio="xMidYMid meet">
<metadata>
Created by potrace 1.11, written by Peter Selinger 2001-2013
</metadata>
<g transform="translate(0.000000,500.000000) scale(0.100000,-0.100000)"
fill="#000000" stroke="none">
<path d="M519 4481 l-29 -29 0 -1952 0 -1952 29 -29 29 -29 1952 0 1952 0 29
29 29 29 0 1952 0 1952 -29 29 -29 29 -1952 0 -1952 0 -29 -29z m3811 -1981
l0 -1830 -1830 0 -1830 0 0 1830 0 1830 1830 0 1830 0 0 -1830z"/>
<path d="M1507 3797 l-27 -24 0 -1271 c0 -1235 1 -1270 19 -1293 16 -20 29
-24 71 -24 42 0 55 4 71 24 18 23 19 58 19 1291 0 1435 8 1307 -81 1317 -39 4
-50 1 -72 -20z"/>
<path d="M2467 3797 l-27 -24 0 -1271 c0 -1235 1 -1270 19 -1293 16 -20 29
-24 71 -24 42 0 55 4 71 24 18 23 19 58 19 1291 0 1435 8 1307 -81 1317 -39 4
-50 1 -72 -20z"/>
<path d="M3383 3810 c-12 -5 -26 -18 -32 -29 -8 -14 -11 -409 -11 -1284 0
-1230 1 -1265 19 -1288 16 -20 29 -24 71 -24 42 0 55 4 71 24 18 23 19 58 19
1291 0 1195 -1 1269 -18 1290 -19 24 -84 35 -119 20z"/>
</g>
</svg>
