<?xml version="1.0" standalone="no"?>
<!DOCTYPE svg PUBLIC "-//W3C//DTD SVG 20010904//EN"
 "http://www.w3.org/TR/2001/REC-SVG-20010904/DTD/svg10.dtd">
<svg version="1.0" xmlns="http://www.w3.org/2000/svg"
 width="500.000000pt" height="500.000000pt" viewBox="0 0 500.000000 500.000000"
 preserveAspectRatio="xMidYMid meet">
<metadata>
Created by potrace 1.11, written by Peter Selinger 2001-2013
</metadata>
<g transform="translate(0.000000,500.000000) scale(0.100000,-0.100000)"
fill="#000000" stroke="none">
<path d="M519 4481 l-29 -29 0 -1952 0 -1952 29 -29 29 -29 1952 0 1952 0 29
29 29 29 0 1952 0 1952 -29 29 -29 29 -1952 0 -1952 0 -29 -29z m3811 -1981
l0 -1830 -1830 0 -1830 0 0 1830 0 1830 1830 0 1830 0 0 -1830z"/>
<path d="M2260 4253 c-380 -55 -701 -211 -993 -483 -63 -58 -195 -218 -246
-298 -117 -181 -225 -439 -255 -612 -2 -14 -7 -41 -10 -60 -3 -19 -9 -48 -12
-65 -3 -16 -7 -111 -9 -210 -2 -140 1 -204 16 -288 60 -354 182 -622 403 -885
64 -76 172 -182 232 -227 10 -8 42 -32 69 -54 28 -21 64 -46 80 -55 17 -9 44
-25 60 -36 138 -89 370 -179 555 -214 164 -31 192 -33 338 -34 232 0 426 34
642 115 304 114 592 331 781 588 32 44 62 85 67 90 34 41 129 226 172 335 28
68 75 232 85 291 4 24 9 53 11 64 20 99 26 388 11 495 -4 30 -10 73 -13 95 -4
22 -17 82 -31 133 -113 435 -373 798 -747 1044 -84 56 -303 168 -326 168 -6 0
-18 4 -28 9 -25 14 -135 48 -217 66 -191 44 -450 55 -635 28z"/>
</g>
</svg>
