<?xml version="1.0" standalone="no"?>
<!DOCTYPE svg PUBLIC "-//W3C//DTD SVG 20010904//EN"
 "http://www.w3.org/TR/2001/REC-SVG-20010904/DTD/svg10.dtd">
<svg version="1.0" xmlns="http://www.w3.org/2000/svg"
 width="500.000000pt" height="500.000000pt" viewBox="0 0 500.000000 500.000000"
 preserveAspectRatio="xMidYMid meet">
<metadata>
Created by potrace 1.11, written by Peter Selinger 2001-2013
</metadata>
<g transform="translate(0.000000,500.000000) scale(0.100000,-0.100000)"
fill="#000000" stroke="none">
<path d="M408 4290 l-30 -31 7 -92 c4 -50 9 -99 10 -108 2 -9 6 -52 10 -95 4
-43 8 -90 10 -104 2 -14 7 -61 11 -105 4 -44 8 -93 10 -110 2 -16 6 -65 9
-107 3 -43 8 -86 10 -97 2 -10 6 -58 10 -107 4 -49 9 -96 10 -105 2 -9 6 -52
10 -95 3 -43 8 -95 10 -114 2 -19 7 -62 10 -95 3 -33 8 -80 11 -105 2 -25 6
-72 9 -105 3 -33 7 -80 10 -105 3 -25 7 -74 10 -110 4 -36 8 -83 10 -105 3
-22 7 -60 10 -85 3 -25 7 -74 10 -110 9 -112 15 -174 20 -210 3 -19 7 -68 11
-108 3 -41 7 -86 9 -100 2 -15 6 -63 10 -107 3 -44 8 -98 11 -120 11 -89 13
-113 19 -190 4 -44 8 -93 11 -110 2 -16 6 -66 10 -110 3 -44 8 -87 9 -95 2 -8
4 -18 4 -22 1 -5 90 -8 198 -8 l197 0 -107 -109 c-91 -92 -107 -113 -107 -140
0 -43 15 -68 48 -84 55 -26 72 -14 250 164 l170 169 1169 0 1168 0 160 -161
c88 -88 168 -166 179 -171 26 -14 74 -12 92 3 28 23 43 65 36 93 -4 16 -54 74
-112 132 l-104 104 202 0 c154 0 202 3 203 13 1 6 3 21 4 32 1 11 6 54 10 95
4 41 8 89 11 105 2 17 6 64 10 105 8 101 12 145 19 210 6 56 8 78 20 205 4 39
8 81 10 95 2 14 7 66 11 115 3 50 8 97 9 106 2 9 6 52 10 95 3 43 8 90 10 104
2 14 7 59 10 100 3 41 8 98 11 125 6 54 9 80 19 195 3 41 8 86 10 100 2 14 6
59 10 100 7 90 14 163 20 210 2 19 7 69 10 110 3 41 8 91 11 110 2 20 6 60 9
90 5 57 16 181 40 425 3 33 8 76 10 95 11 88 19 200 20 253 0 52 -3 61 -28 83
-16 14 -41 24 -58 24 -39 0 -89 -48 -90 -87 -1 -15 -2 -39 -4 -53 -1 -14 -5
-54 -9 -90 -3 -36 -13 -132 -21 -215 -8 -82 -17 -175 -19 -205 -6 -58 -14
-145 -21 -207 -5 -55 -23 -247 -24 -271 -1 -9 -8 -11 -23 -6 -22 6 -99 56
-125 79 -35 31 -313 309 -313 313 0 2 54 57 119 123 65 66 121 131 123 144 6
31 -15 81 -41 94 -11 6 -34 11 -52 11 -28 0 -50 -18 -171 -137 l-138 -137 -57
19 c-79 25 -235 30 -321 10 -136 -32 -191 -72 -422 -305 -138 -140 -176 -172
-230 -198 -160 -76 -351 -55 -489 55 -25 20 -111 102 -191 183 -218 221 -304
270 -485 276 -105 3 -165 -5 -227 -33 l-38 -16 -134 133 c-73 73 -140 136
-147 141 -8 5 -29 9 -47 9 -45 0 -82 -38 -82 -84 0 -41 13 -57 160 -202 l99
-98 -157 -156 c-104 -102 -180 -168 -222 -192 -75 -44 -90 -46 -91 -15 0 12
-2 29 -3 37 -2 8 -6 53 -10 100 -4 47 -9 96 -10 110 -2 14 -7 61 -10 105 -4
44 -9 94 -11 110 -2 17 -7 62 -10 100 -4 39 -8 84 -10 100 -2 17 -7 64 -10
105 -3 41 -8 88 -10 105 -2 16 -7 66 -10 109 -6 69 -11 83 -35 108 -39 38 -82
38 -122 -2z m1263 -783 c63 -31 144 -100 249 -212 251 -268 406 -339 682 -312
173 17 265 79 543 367 104 108 171 155 246 175 58 16 166 20 186 7 8 -5 -169
-189 -530 -550 l-542 -541 -543 543 c-604 604 -568 557 -421 552 59 -2 89 -9
130 -29z m2252 -210 c78 -79 168 -165 200 -190 50 -40 142 -91 200 -111 16 -5
18 -13 13 -56 -7 -60 -13 -121 -21 -215 -3 -38 -8 -86 -10 -105 -2 -19 -7 -64
-10 -100 -3 -36 -8 -81 -10 -100 -3 -19 -7 -64 -10 -100 -6 -80 -14 -160 -20
-222 -8 -77 -13 -129 -20 -198 -3 -36 -8 -81 -10 -100 -2 -19 -7 -69 -10 -110
-4 -41 -8 -91 -10 -110 -4 -36 -15 -155 -20 -200 -1 -14 -6 -60 -10 -103 l-7
-77 -212 0 -211 0 -552 553 c-304 304 -553 557 -553 561 0 13 1114 1125 1128
1126 7 0 76 -65 155 -143z m-2101 -425 l558 -558 -558 -557 -557 -557 -208 0
-207 0 -1 35 c-1 19 -2 38 -3 43 -1 4 -6 43 -10 87 -4 44 -9 96 -11 115 -2 19
-7 64 -10 100 -3 36 -8 81 -10 100 -2 19 -7 73 -11 120 -3 47 -7 92 -9 100 -2
8 -6 53 -10 99 -4 47 -8 93 -10 103 -2 10 -7 55 -10 101 -3 45 -8 93 -10 107
-2 14 -7 61 -11 105 -3 44 -7 91 -9 105 -1 14 -5 57 -9 95 -4 39 -9 86 -11
105 -7 67 -18 205 -19 238 -1 33 2 35 59 56 109 40 167 85 361 277 77 76 145
139 150 139 5 0 260 -251 566 -558z m1182 -1182 l490 -490 -988 0 -988 0 488
490 c269 269 493 489 498 490 6 0 230 -220 500 -490z"/>
</g>
</svg>
