<?xml version="1.0" standalone="no"?>
<!DOCTYPE svg PUBLIC "-//W3C//DTD SVG 1.1//EN" "http://www.w3.org/Graphics/SVG/1.1/DTD/svg11.dtd" >
<svg xmlns="http://www.w3.org/2000/svg" xmlns:xlink="http://www.w3.org/1999/xlink" version="1.1">
<metadata></metadata>
<defs>
<font id="webfontregular" horiz-adv-x="1229" >
<font-face units-per-em="2048" ascent="1642" descent="-406" />
<missing-glyph horiz-adv-x="500" />
<glyph horiz-adv-x="0" />
<glyph unicode="&#xd;" />
<glyph unicode=" " />
<glyph unicode="!" d="M510 0v209h209v-209h-209zM549 786v357h133v-357l-29 -391h-75z" />
<glyph unicode="&#x22;" d="M340 1071q0 94 94 94t94 -94q0 -6 -1 -19.5t-6 -58.5t-14 -135t-28 -246h-90q-18 156 -27.5 246t-14.5 135t-6 58.5t-1 19.5zM700 1071q0 94 95 94q94 0 94 -94q0 -6 -1 -19.5t-6 -58.5t-14.5 -135t-27.5 -246h-90q-19 156 -28 246t-14.5 135t-6.5 58.5t-1 19.5z" />
<glyph unicode="#" d="M102 332l21 98h215l59 307h-217l21 99h215l59 307h109l-60 -307h283l59 307h109l-60 -307h211l-20 -99h-209l-59 -307h211l-21 -98h-211l-63 -332h-109l64 332h-283l-64 -332h-108l63 332h-215zM446 430h283l59 307h-282z" />
<glyph unicode="$" d="M205 319h125q4 -94 61.5 -152t167.5 -73v451l-74 26q-114 41 -186 110t-72 185q0 68 24.5 121t70 90t105.5 58.5t132 27.5v125h100v-125q144 -12 235 -93t91 -241h-123q-2 58 -20.5 98t-47 64.5t-63.5 37.5t-72 20v-416l97 -31q139 -45 204.5 -112.5t65.5 -184.5 q0 -80 -28.5 -138t-79 -97t-117 -60.5t-142.5 -27.5v-125h-100v125q-158 12 -256 96t-98 241zM356 866q0 -127 156 -182l47 -18v385q-102 -11 -152.5 -62t-50.5 -123zM659 92q111 8 175.5 60.5t64.5 144.5q0 72 -42 118t-128 74l-70 25v-422z" />
<glyph unicode="%" d="M51 848q0 86 24.5 145.5t66.5 98t94.5 56t107.5 17.5t107.5 -17.5t92.5 -55t64.5 -97t24.5 -143.5q0 -86 -24.5 -145.5t-66.5 -98.5t-94.5 -56t-107.5 -17t-107.5 17t-92.5 55t-64.5 97.5t-24.5 143.5zM74 0l358 463h82v-82l-293 -381h-147zM170 850q0 -207 172 -207 t172 207t-172 207t-172 -207zM596 293q0 86 24.5 145.5t66.5 98t94.5 56t107.5 17.5t107.5 -17.5t92 -55t64.5 -97t25 -143.5q0 -86 -25 -145.5t-67 -98.5t-94 -56t-107 -17q-56 0 -108 17t-92 55t-64.5 97.5t-24.5 143.5zM715 295q0 -207 172 -207t172 207t-172 207 t-172 -207zM715 682v82l291 379h147l-356 -461h-82z" />
<glyph unicode="&#x26;" d="M150 307q0 105 51 174.5t149 102.5q-78 30 -129 94.5t-51 169.5q0 76 28.5 135t80 99t124 61.5t158.5 21.5q68 0 136.5 -14t124 -51t93 -99.5t43.5 -158.5h-124q-11 116 -83.5 164.5t-187.5 48.5q-57 0 -105 -11.5t-84 -36t-55.5 -64.5t-19.5 -95q0 -113 80 -160t221 -47 h555v-106h-194v-535h-396q-207 0 -311 82t-104 225zM279 311q0 -57 23.5 -95t64.5 -61.5t96 -33.5t121 -10h252v424h-236q-143 0 -232 -54.5t-89 -169.5z" />
<glyph unicode="'" d="M520 1071q0 94 94 94q95 0 95 -94q0 -6 -1 -19.5t-6.5 -58.5t-14.5 -135t-28 -246h-90q-18 156 -27.5 246t-14.5 135t-6 58.5t-1 19.5z" />
<glyph unicode="(" d="M389 465q0 194 106.5 406t352.5 423h125q-123 -129 -210 -236.5t-141.5 -205.5t-80 -192.5t-25.5 -194.5t25.5 -194.5t80 -192.5t141.5 -206t210 -237h-125q-246 211 -352.5 423t-106.5 407z" />
<glyph unicode=")" d="M256 -365q123 129 210 237t141.5 206t80 192.5t25.5 194.5t-25.5 194.5t-80 192.5t-141.5 205.5t-210 236.5h125q246 -211 352.5 -423t106.5 -406q0 -195 -106.5 -407t-352.5 -423h-125z" />
<glyph unicode="*" d="M197 954l30 95l326 -93l12 338h99l12 -338l325 93l31 -95l-317 -116l188 -281l-80 -59l-209 266l-208 -266l-80 59l188 281z" />
<glyph unicode="+" d="M164 389v111h393v385h117v-385h393v-111h-393v-389h-117v389h-393z" />
<glyph unicode="," d="M434 -270q0 18 4 39l74 440h215l-190 -479q-11 -27 -24 -35t-32 -8q-47 0 -47 43z" />
<glyph unicode="-" d="M317 516v113h594v-113h-594z" />
<glyph unicode="." d="M510 0v209h209v-209h-209z" />
<glyph unicode="/" d="M-74 -365l1135 1659h131l-1135 -1659h-131z" />
<glyph unicode="0" d="M182 567q0 135 27 245t81 188.5t136 121.5t190 43q111 0 192 -43t134 -121.5t79 -187t26 -238.5q0 -135 -27 -244.5t-81 -187t-136 -120.5t-191 -43q-110 0 -191 43t-134.5 120.5t-79 186t-25.5 237.5zM315 571q0 -90 13.5 -176t47.5 -152.5t91 -107.5t147 -41 q91 0 148 41t91 107.5t47 152.5t13 176q0 91 -13 177t-47 153.5t-91 108.5t-148 41q-90 0 -147 -41t-91 -108.5t-47.5 -153.5t-13.5 -177zM535 571q0 35 22.5 57.5t56.5 22.5q35 0 57.5 -22.5t22.5 -57.5q0 -34 -22.5 -56.5t-57.5 -22.5q-34 0 -56.5 22.5t-22.5 56.5z" />
<glyph unicode="1" d="M283 0v109h295v866q-48 -45 -106 -66.5t-150 -21.5h-39v117h73q82 0 142.5 34.5t93.5 104.5h110v-1034h267v-109h-686z" />
<glyph unicode="2" d="M203 803q6 100 42 168.5t92 111.5t128 62.5t149 19.5q86 0 157 -23.5t122 -66.5t78.5 -104.5t27.5 -134.5q0 -68 -21.5 -121t-56 -97.5t-80.5 -81t-98 -67.5l-180 -111q-78 -47 -130 -107.5t-58 -137.5h649v-113h-780v55q0 84 21.5 147.5t58 111.5t85 85t99.5 68l162 96 q80 47 138 112.5t58 158.5q0 108 -70.5 164.5t-183.5 56.5q-53 0 -102 -11.5t-87 -40t-62.5 -77.5t-30.5 -123h-127z" />
<glyph unicode="3" d="M197 342h127q10 -135 85.5 -193.5t211.5 -58.5q120 0 197 54.5t77 164.5q0 58 -22.5 102t-62.5 73.5t-95.5 45t-118.5 15.5h-23v104h23q123 0 197.5 44t74.5 155q0 96 -70.5 151.5t-183.5 55.5q-53 0 -102 -11.5t-87 -40t-62.5 -77.5t-30.5 -123h-127q6 100 42 168.5 t92 111.5t128 62.5t149 19.5q89 0 159.5 -23.5t120.5 -65.5t77.5 -100t27.5 -128q0 -92 -43 -152.5t-139 -95.5q99 -35 154 -110.5t55 -180.5q0 -71 -26.5 -131.5t-79 -104.5t-128 -68.5t-173.5 -24.5q-86 0 -161 20t-132.5 64.5t-92 113t-38.5 164.5z" />
<glyph unicode="4" d="M131 307v84l606 752h115v-723h182v-113h-182v-307h-125v307h-596zM293 420h434v538z" />
<glyph unicode="5" d="M250 342h127q4 -70 27.5 -118t58.5 -77.5t81 -43t95 -13.5q123 0 192.5 69.5t69.5 198.5q0 131 -78 201t-202 70q-78 0 -156 -33t-125 -94l-68 20l62 621h633v-113h-529l-37 -360q48 32 114.5 50.5t137.5 18.5q82 0 151.5 -27.5t121 -76.5t80 -120t28.5 -157 q0 -82 -27.5 -151.5t-80 -119.5t-125 -78.5t-160.5 -28.5q-74 0 -142.5 20t-121.5 65.5t-88 113t-39 163.5z" />
<glyph unicode="6" d="M213 561q0 287 113.5 445.5t332.5 158.5q172 0 272.5 -98t104.5 -264h-127q-6 110 -67.5 181t-182.5 71q-147 0 -226 -108.5t-87 -344.5q47 49 121 80t174 31q92 0 164 -27t123 -75t77.5 -116.5t26.5 -150.5q0 -78 -26.5 -144.5t-76.5 -115.5t-122 -76.5t-162 -27.5 q-92 0 -172 32.5t-137 102t-90 180.5t-33 266zM346 498q6 -113 29.5 -191t62.5 -126t91.5 -69.5t113.5 -21.5q115 0 185.5 68.5t70.5 185.5q0 125 -71.5 191.5t-188.5 66.5q-92 0 -165 -28.5t-128 -75.5z" />
<glyph unicode="7" d="M205 870v273h860v-105q-236 -196 -334 -439t-98 -517v-82h-129v106q0 125 25.5 255.5t76.5 253t127 229t174 186.5h-583v-160h-119z" />
<glyph unicode="8" d="M184 305q0 117 61.5 183.5t155.5 97.5q-82 30 -136 92.5t-54 163.5q0 86 34 147.5t91 100t129 57t149 18.5q76 0 149 -18.5t130 -57t91 -100t34 -147.5q0 -101 -55.5 -163.5t-137.5 -92.5q95 -31 157 -97.5t62 -183.5q0 -82 -35.5 -143.5t-95 -101.5t-137.5 -60t-162 -20 t-161.5 20t-137 60t-95.5 101.5t-36 143.5zM317 307q0 -57 24 -99t64.5 -68.5t95 -39t113.5 -12.5q60 0 114 12.5t95 39t64.5 68.5t23.5 99q0 62 -23.5 104t-64.5 68.5t-95 38.5t-114 12q-59 0 -113.5 -12t-95 -38.5t-64.5 -68.5t-24 -104zM344 844q0 -56 22.5 -94.5 t60.5 -63t86 -36t101 -11.5q52 0 101 11.5t87 36t60.5 63t22.5 94.5q0 57 -22.5 98t-60.5 66.5t-87 37t-101 11.5q-53 0 -101 -11.5t-86 -37t-60.5 -66.5t-22.5 -98z" />
<glyph unicode="9" d="M195 342h127q6 -111 68.5 -181.5t191.5 -70.5q63 0 117.5 19.5t94.5 70.5t63.5 140.5t25.5 226.5q-45 -51 -118 -81t-177 -30q-92 0 -164 26.5t-123 74t-77.5 115t-26.5 151.5q0 78 26.5 144.5t76.5 114.5t122 75.5t162 27.5q86 0 163.5 -29.5t138 -98t95.5 -181.5 t35 -278q0 -175 -37 -289.5t-97.5 -183t-138 -97t-161.5 -28.5q-181 0 -282 98t-105 264zM330 803q0 -125 71.5 -190.5t188.5 -65.5q92 0 163.5 27.5t127.5 76.5q-7 113 -31.5 190t-62 125t-89 68.5t-112.5 20.5q-115 0 -185.5 -67.5t-70.5 -184.5z" />
<glyph unicode=":" d="M510 0v209h209v-209h-209zM510 676v209h209v-209h-209z" />
<glyph unicode=";" d="M434 -270q0 18 4 39l74 440h215l-190 -479q-11 -27 -24 -35t-32 -8q-47 0 -47 43zM510 676v209h209v-209h-209z" />
<glyph unicode="&#x3c;" d="M152 395v94l925 416v-125l-766 -338l766 -333v-129z" />
<glyph unicode="=" d="M258 217v111h715v-111h-715zM258 561v111h715v-111h-715z" />
<glyph unicode="&#x3e;" d="M152 -20v124l763 336l-763 336v129l925 -416v-94z" />
<glyph unicode="?" d="M207 852q0 86 32.5 146.5t87 97.5t126 53t149.5 16q103 0 177.5 -25.5t122.5 -67.5t71.5 -98t23.5 -118q0 -65 -24.5 -121.5t-74.5 -113t-126 -114.5t-176 -126l-59 68q100 79 164.5 137.5t101.5 103.5t51 83t14 79q0 39 -13 76t-45 64.5t-84 44t-128 16.5 q-129 0 -198.5 -49.5t-69.5 -151.5h-123zM489 0v209h209v-209h-209z" />
<glyph unicode="@" d="M199 442q0 150 17 241t47 140t68 65.5t81 16.5q49 0 89 -19.5t72 -76.5v76h107v-668q0 -67 35 -101t84 -34t82.5 34t33.5 101v606q0 90 -12 162t-46 123t-93 77.5t-154 26.5q-151 0 -213.5 -64.5t-62.5 -158.5h-115q0 47 16.5 103.5t60.5 105.5t121 83t199 34 q148 0 230 -48t123 -122t50 -160t9 -162v-606q0 -72 -22.5 -118t-57.5 -72.5t-76 -36.5t-77 -10q-86 0 -127 35.5t-64 88.5q-35 -63 -83 -93.5t-115 -30.5q-46 0 -83.5 17t-65.5 67.5t-43 140.5t-15 237zM315 442q0 -104 6.5 -173.5t20.5 -111.5t36.5 -60.5t53.5 -18.5 q47 0 81 28.5t54 63.5v545q-20 35 -54 63.5t-81 28.5q-31 0 -53.5 -18.5t-36.5 -60.5t-20.5 -111.5t-6.5 -174.5z" />
<glyph unicode="A" d="M137 0l406 1143h143l406 -1143h-144l-96 285h-477l-99 -285h-139zM410 397h403l-70 207l-131 404l-131 -400z" />
<glyph unicode="B" d="M274 0v1143h328q84 0 156.5 -20.5t126 -58.5t84 -95.5t30.5 -130.5q0 -78 -37.5 -140.5t-130.5 -105.5q46 -17 84.5 -40.5t67.5 -57t46.5 -76.5t17.5 -99q0 -73 -32 -132.5t-86.5 -100.5t-129 -63.5t-160.5 -22.5h-365zM403 113h236q145 0 209.5 63.5t64.5 151.5 q0 98 -71.5 149t-210.5 51h-228v-415zM403 641h181q137 0 209.5 44t72.5 144q0 91 -64.5 146t-207.5 55h-191v-389z" />
<glyph unicode="C" d="M182 569q0 293 117 444.5t346 151.5q66 0 134.5 -15t126 -56t96 -113t42.5 -182h-129q-30 256 -272 256q-104 0 -167.5 -42t-99.5 -110.5t-48.5 -156t-12.5 -175.5t12.5 -174t48.5 -154.5t99.5 -110.5t167.5 -42q242 0 272 256h129q-4 -104 -41.5 -175t-95 -113t-129 -60 t-143.5 -18q-223 0 -338 149.5t-115 439.5z" />
<glyph unicode="D" d="M274 0v1143h304q137 0 228 -45t144.5 -122t75 -181.5t21.5 -221.5q0 -120 -23 -224.5t-76 -182.5t-144 -122t-226 -44h-304zM403 113h175q114 0 181.5 44t101.5 111.5t43 148.5t9 154q0 74 -9 155t-43 148.5t-101.5 111.5t-181.5 44h-175v-917z" />
<glyph unicode="E" d="M274 0v1143h705v-113h-576v-389h506v-113h-506v-415h576v-113h-705z" />
<glyph unicode="F" d="M274 0v1143h715v-113h-586v-418h515v-112h-515v-500h-129z" />
<glyph unicode="G" d="M184 573q0 287 112 439.5t320 152.5q64 0 130.5 -17.5t122 -62.5t92 -121.5t40.5 -195.5h-129q-14 141 -77.5 214t-180.5 73q-86 0 -142 -39t-91 -105.5t-49.5 -152.5t-14.5 -180q0 -93 14.5 -180t48.5 -155.5t92 -110.5t149 -42q92 0 153.5 37t95.5 72v297h-282v112h411 v-608h-98v115q-10 -15 -33.5 -38.5t-61.5 -45t-90 -36.5t-120 -15q-119 0 -198 51t-127 135t-67.5 190.5t-19.5 216.5z" />
<glyph unicode="H" d="M274 0v1143h129v-502h422v502h129v-1143h-129v528h-422v-528h-129z" />
<glyph unicode="I" d="M272 0v113h279v917h-279v113h686v-113h-278v-917h278v-113h-686z" />
<glyph unicode="J" d="M217 362v32.5t4 37.5h129q-2 -10 -3 -31.5t-1 -42.5q0 -57 13.5 -105t43 -84t77.5 -55.5t118 -19.5q143 0 197.5 87t54.5 245v717h129v-717q0 -219 -89 -332.5t-290 -113.5q-102 0 -174 28.5t-119 78.5t-68.5 121t-21.5 154z" />
<glyph unicode="K" d="M274 0v1143h129v-568l506 568h166l-442 -486l491 -657h-161l-412 567l-148 -159v-408h-129z" />
<glyph unicode="L" d="M274 0v1143h129v-1030h586v-113h-715z" />
<glyph unicode="M" d="M205 0v1143h186l146 -416l79 -252l80 252l146 416h182v-1143h-121v731l6 291l-239 -694h-111l-240 694l7 -291v-731h-121z" />
<glyph unicode="N" d="M274 0v1143h187l383 -1014l-13 307v707h123v-1143h-186l-383 1014l12 -307v-707h-123z" />
<glyph unicode="O" d="M182 567q0 135 27 245t81 188.5t136 121.5t190 43q111 0 192 -43t134 -121.5t79 -187t26 -238.5q0 -135 -27 -244.5t-81 -187t-136 -120.5t-191 -43q-110 0 -191 43t-134.5 120.5t-79 186t-25.5 237.5zM315 571q0 -90 13.5 -176t47.5 -152.5t91 -107.5t147 -41 q91 0 148 41t91 107.5t47 152.5t13 176q0 91 -13 177t-47 153.5t-91 108.5t-148 41q-90 0 -147 -41t-91 -108.5t-47.5 -153.5t-13.5 -177z" />
<glyph unicode="P" d="M274 0v1143h304q219 0 342.5 -85t123.5 -263q0 -174 -122.5 -261.5t-343.5 -87.5h-175v-446h-129zM403 559h177q180 0 255.5 63.5t75.5 172.5q0 108 -75.5 171.5t-255.5 63.5h-177v-471z" />
<glyph unicode="Q" d="M182 567q0 133 27 243t81 188.5t136 122.5t192 44q111 0 191 -43t133 -120.5t79 -186t26 -240.5q0 -266 -103 -421l225 -215h-157l-140 131q-49 -43 -113.5 -66.5t-146.5 -23.5q-110 0 -192 43t-134.5 121.5t-78 186t-25.5 236.5zM315 571q0 -90 13.5 -176t47.5 -152.5 t91 -107.5t147 -41q107 0 172 60l-307 295h156l217 -209q35 67 48 153t13 176t-13 177.5t-47 155t-91 108.5t-148 41q-90 0 -147 -41t-91 -108.5t-47.5 -153.5t-13.5 -177z" />
<glyph unicode="R" d="M274 0v1143h265q219 0 343 -86t124 -254q0 -141 -85 -224t-221 -114l381 -465h-163l-357 451h-158v-451h-129zM403 559h138q180 0 255.5 67.5t75.5 168.5q0 100 -75.5 167.5t-255.5 67.5h-138v-471z" />
<glyph unicode="S" d="M205 319h129q6 -106 77.5 -164.5t206.5 -58.5q123 0 200 50.5t77 150.5q0 72 -43 115t-129 71l-244 86q-114 41 -183 110t-69 185q0 74 30 130.5t81 94t120.5 57t149.5 19.5q82 0 150.5 -19.5t119 -61.5t79 -105.5t28.5 -149.5h-127q-2 70 -27.5 113t-62.5 66.5t-81 32 t-83 8.5q-123 0 -183.5 -51.5t-60.5 -131.5q0 -123 156 -178l244 -86q137 -47 201.5 -114.5t64.5 -182.5q0 -86 -32.5 -147.5t-88 -101.5t-130.5 -58t-161 -18q-90 0 -165.5 21.5t-130 63t-84 105t-29.5 149.5z" />
<glyph unicode="T" d="M158 1030v113h913v-113h-393v-1030h-129v1030h-391z" />
<glyph unicode="U" d="M242 395v748h129v-748q0 -164 55 -232.5t188 -68.5q136 0 191 68.5t55 232.5v748h129v-748q0 -225 -92 -320t-283 -95q-190 0 -281 95t-91 320z" />
<glyph unicode="V" d="M135 1143h141l209 -621l129 -395l131 395l209 621h140l-400 -1143h-159z" />
<glyph unicode="W" d="M109 1143h129l77 -658l43 -372l187 635h141l186 -635l43 372l78 658h127l-149 -1143h-180l-177 596l-176 -596h-180z" />
<glyph unicode="X" d="M129 0l408 588l-385 555h155l182 -275l123 -186l123 186l183 275h159l-385 -555l408 -588h-156l-205 307l-123 187l-122 -187l-205 -307h-160z" />
<glyph unicode="Y" d="M98 1143h150l184 -279l186 -295l185 295l180 279h150l-453 -684v-459h-129v463z" />
<glyph unicode="Z" d="M219 0v102l631 928h-621v113h772v-103l-632 -927h639v-113h-789z" />
<glyph unicode="[" d="M422 -365v1659h545v-102h-428v-1454h428v-103h-545z" />
<glyph unicode="\" d="M37 1294h131l1135 -1659h-132z" />
<glyph unicode="]" d="M262 -262h432v1454h-432v102h545v-1659h-545v103z" />
<glyph unicode="^" d="M252 451l309 692h105l309 -692h-119l-242 563l-241 -563h-121z" />
<glyph unicode="_" d="M45 0h1139v-111h-1139v111z" />
<glyph unicode="`" d="M453 1395h163l158 -391h-76z" />
<glyph unicode="a" d="M201 227q0 76 30.5 126t79.5 78t109.5 39t122.5 11q59 0 133 -10t127 -27v82q0 56 -6 105t-29 86t-68 58.5t-122 21.5q-240 0 -240 -205h-121q0 98 36 158.5t91 95.5t120.5 47t123.5 12q178 0 257 -89t79 -255v-428q0 -27 11 -36t40 -9q47 0 110 14v-94q-22 -10 -60 -19 t-83 -9q-39 0 -62.5 10t-37 27.5t-18.5 38t-5 40.5v17q-37 -47 -115.5 -90t-203.5 -43q-64 0 -119 14t-95 44t-62.5 77t-22.5 112zM319 229q0 -139 189 -139q92 0 163.5 25.5t131.5 68.5v168q-47 10 -114.5 17.5t-129.5 7.5q-110 0 -175 -31t-65 -117z" />
<glyph unicode="b" d="M274 0v1294h121v-503q15 16 37.5 35.5t54 37t74.5 29.5t96 12q74 0 139.5 -25.5t117 -82t81 -143.5t29.5 -210q0 -125 -30.5 -213t-83 -144t-119 -81.5t-138.5 -25.5q-98 0 -168.5 39.5t-113.5 93.5v-113h-97zM395 186q41 -41 99.5 -67.5t136.5 -26.5q141 0 204.5 97.5 t63.5 252.5q0 156 -63.5 253.5t-204.5 97.5q-78 0 -136.5 -27t-99.5 -68v-512z" />
<glyph unicode="c" d="M205 440q0 140 40 230t102.5 142t137 72.5t144.5 20.5q57 0 119.5 -13t116 -49t91 -96.5t43.5 -154.5h-122q-13 117 -79.5 160t-164.5 43q-148 0 -226.5 -84t-78.5 -267q0 -182 78.5 -268t226.5 -86q98 0 164.5 44t79.5 161h122q-6 -94 -43.5 -155.5t-93 -96.5t-119 -49 t-120.5 -14q-72 0 -146 21.5t-134 73.5t-99 141t-39 224z" />
<glyph unicode="d" d="M205 438q0 121 29.5 209t81 145.5t117 85t138.5 27.5q52 0 95 -12t74.5 -29.5t55 -37t38.5 -35.5v503h120v-1294h-96v113q-37 -47 -106.5 -90t-178.5 -43q-69 0 -134.5 24.5t-118 78.5t-84 141t-31.5 214zM330 442q0 -155 63.5 -252.5t204.5 -97.5q78 0 136.5 26.5 t99.5 67.5v512q-41 41 -99.5 68t-136.5 27q-141 0 -204.5 -97.5t-63.5 -253.5z" />
<glyph unicode="e" d="M205 440q0 133 38 222.5t98 143.5t135 76.5t147 22.5q67 0 140 -21.5t132 -73.5t97 -141t38 -225v-28h-704q16 -330 303 -330q116 0 188 51t90 150h121q-12 -90 -55 -149.5t-101.5 -94.5t-125 -49t-123.5 -14q-82 0 -158 25.5t-133.5 80.5t-92 142t-34.5 212zM328 516 h577q-16 143 -90 213t-201 70t-199.5 -70t-86.5 -213z" />
<glyph unicode="f" d="M252 0v111h240v663h-240v111h240v16q0 189 123.5 296.5t365.5 107.5v-111q-72 0 -138.5 -13.5t-117.5 -47t-82 -90t-31 -142.5v-16h369v-111h-369v-663h369v-111h-729z" />
<glyph unicode="g" d="M205 440q0 125 30.5 213t83 144.5t119 82t137.5 25.5q54 0 99 -12t79.5 -32.5t61.5 -44t43 -44.5v113h96v-928q0 -80 -18 -143.5t-61.5 -107.5t-115 -67.5t-177.5 -23.5q-80 0 -147.5 14.5t-117 50t-77 94t-27.5 146.5h121q0 -106 59.5 -153.5t184.5 -47.5q86 0 137 19.5 t76.5 53.5t34 79t8.5 96v127q-15 -16 -37.5 -35.5t-55 -37t-75.5 -29.5t-97 -12q-71 0 -137.5 25.5t-117 81.5t-80 143t-29.5 210zM330 442q0 -155 63.5 -252.5t204.5 -97.5q78 0 136.5 26.5t99.5 67.5v512q-41 41 -99.5 68t-136.5 27q-141 0 -204.5 -97.5t-63.5 -253.5z " />
<glyph unicode="h" d="M274 0v1294h121v-499q15 16 34.5 35.5t50 36t73.5 27.5t102 11q56 0 110 -14t97 -53t68.5 -111t25.5 -184v-543h-120v512q0 70 -8.5 123t-32 89t-63.5 54.5t-101 18.5q-90 0 -147.5 -31t-88.5 -66v-700h-121z" />
<glyph unicode="i" d="M242 0v111h327v663h-327v111h448v-774h301v-111h-749zM547 1128v166h166v-166h-166z" />
<glyph unicode="j" d="M311 -264q72 0 138.5 13t117.5 47t82 90.5t31 142.5v745h-344v111h465v-869q0 -186 -124 -288.5t-366 -102.5v111zM657 1128v166h166v-166h-166z" />
<glyph unicode="k" d="M274 0v1294h121v-831l496 422h158l-398 -334l416 -551h-149l-351 481l-172 -143v-338h-121z" />
<glyph unicode="l" d="M242 0v111h313v1073h-313v110h434v-1183h315v-111h-749z" />
<glyph unicode="m" d="M127 0v885h96v-131q13 20 33 45.5t49 49t68 40t86 16.5q71 0 120.5 -38t73.5 -107q13 20 33.5 44.5t50 47t67.5 38t85 15.5q94 0 154.5 -67.5t60.5 -204.5v-633h-121v602q0 88 -27.5 141.5t-95.5 53.5q-65 0 -110 -41t-74 -88v-668h-121v602q0 88 -27.5 141.5t-95.5 53.5 q-65 0 -110.5 -41t-73.5 -88v-668h-121z" />
<glyph unicode="n" d="M274 0v885h97v-113q37 53 106.5 93t181.5 40q56 0 109 -14t95 -54t67.5 -111t25.5 -183v-543h-120v512q0 70 -8.5 123t-32 89t-63.5 54.5t-101 18.5q-90 0 -147.5 -31t-88.5 -66v-700h-121z" />
<glyph unicode="o" d="M205 440q0 135 37 225.5t96 143.5t133 74.5t145 21.5q74 0 147 -21.5t131 -74.5t94 -142t36 -223q0 -135 -37 -225t-96.5 -143t-133 -74.5t-145.5 -21.5q-73 0 -146 21.5t-131.5 74.5t-94 142t-35.5 222zM330 442q0 -350 284 -350q285 0 285 350q0 351 -285 351 q-284 0 -284 -351z" />
<glyph unicode="p" d="M274 -365v1250h97v-113q18 23 44.5 46.5t61.5 43t79 31.5t99 12q70 0 135.5 -24.5t118 -78.5t84 -142.5t31.5 -213.5q0 -120 -29.5 -208t-81 -145.5t-117 -85t-139.5 -27.5q-53 0 -95 12t-73.5 29.5t-55 37t-38.5 35.5v-459h-121zM395 186q41 -41 99.5 -67.5t136.5 -26.5 q141 0 204.5 97.5t63.5 252.5q0 156 -63.5 253.5t-204.5 97.5q-78 0 -136.5 -27t-99.5 -68v-512z" />
<glyph unicode="q" d="M205 440q0 125 30.5 213t83 144.5t119 82t137.5 25.5q54 0 99 -12t81 -32.5t61.5 -44t41.5 -44.5v113h96v-1250h-120v459q-15 -16 -37.5 -35.5t-55 -37t-75.5 -29.5t-97 -12q-71 0 -137.5 25.5t-117 81.5t-80 143t-29.5 210zM330 442q0 -155 63.5 -252.5t204.5 -97.5 q78 0 136.5 26.5t99.5 67.5v512q-41 41 -99.5 68t-136.5 27q-141 0 -204.5 -97.5t-63.5 -253.5z" />
<glyph unicode="r" d="M242 0v111h235v663h-235v111h331v-191q15 37 40.5 75t62.5 68.5t88 49t119 18.5q82 0 153 -26v-123q-32 12 -68 19t-79 7q-60 0 -107 -16t-82.5 -41t-61.5 -55.5t-40 -59.5v-499h393v-111h-749z" />
<glyph unicode="s" d="M225 281h119q8 -84 78 -137.5t221 -53.5q105 0 170.5 32t65.5 111q0 43 -21.5 71t-63.5 47.5t-102.5 33.5t-136.5 33q-61 14 -116.5 31.5t-96.5 43t-64.5 65.5t-23.5 101q0 66 27.5 113t74.5 77t113 43t139 13q78 0 145.5 -15.5t118 -49t81 -86t36.5 -127.5h-119 q-10 55 -36.5 88t-64.5 51t-81 23.5t-82 5.5q-229 0 -229 -127q0 -41 23.5 -65.5t66.5 -42t103.5 -30t134.5 -30.5q67 -17 121.5 -35.5t93 -47t60 -70.5t21.5 -103q0 -74 -28.5 -124t-78.5 -82t-116.5 -45t-142.5 -13q-184 0 -291.5 74.5t-118.5 226.5z" />
<glyph unicode="t" d="M158 774v111h295v409h120v-409h435v-111h-435v-403q0 -150 43 -215.5t166 -65.5q52 0 105 9.5t98 23.5v-111q-39 -14 -90 -23t-117 -9q-80 0 -140 17t-101 59t-62.5 114t-21.5 180v424h-295z" />
<glyph unicode="u" d="M274 342v543h121v-512q0 -70 8.5 -123t32 -89t63.5 -54.5t101 -18.5q90 0 147.5 31t88.5 65v701h120v-885h-96v113q-37 -54 -106.5 -93.5t-182.5 -39.5q-55 0 -108 14t-95 54t-68 110.5t-26 183.5z" />
<glyph unicode="v" d="M170 885h133l178 -439l135 -329l125 309l187 459h131l-377 -885h-135z" />
<glyph unicode="w" d="M127 885h121l121 -772l178 581h135l178 -581l123 772h119l-154 -885h-160l-174 565l-174 -565h-159z" />
<glyph unicode="x" d="M143 0l398 455l-379 430h149l305 -353l304 353h145l-377 -432l399 -453h-149l-328 375l-321 -375h-146z" />
<glyph unicode="y" d="M166 885h133l178 -439l135 -329l125 309l187 459h131l-381 -895q-43 -101 -91 -170.5t-106.5 -112.5t-131.5 -62.5t-165 -19.5v111q70 0 125 14t98 46t78 81t64 119z" />
<glyph unicode="z" d="M242 0v90l569 684h-559v111h727v-90l-569 -682h579v-113h-747z" />
<glyph unicode="{" d="M233 414v102q121 0 178.5 33t57.5 123q0 16 -1 41.5t-3 54.5l-10 178q-2 23 -2 36v17q0 84 22.5 140.5t67.5 91.5t114.5 49t163.5 14h146v-102h-138q-61 0 -108 -5t-81 -26.5t-51.5 -63.5t-17.5 -116v-13.5t2 -31.5l15 -229q2 -17 2 -31v-19q0 -73 -39 -125.5t-111 -66.5 q72 -14 111 -66.5t39 -126.5v-18t-2 -31l-15 -229q-2 -23 -2 -32v-13q0 -74 17.5 -116t51.5 -63.5t81 -26.5t108 -5h138v-103h-146q-94 0 -163.5 14.5t-114.5 49.5t-67.5 91t-22.5 140v17.5t2 36.5l10 178q2 28 3 54t1 42q0 90 -57.5 123t-178.5 33z" />
<glyph unicode="|" d="M559 -365v1659h113v-1659h-113z" />
<glyph unicode="}" d="M262 -262h137q62 0 109 5t81 26.5t51 63.5t17 116v13t-2 32l-14 229q-2 17 -2 31v18q0 74 39 126.5t110 66.5q-71 14 -110 66.5t-39 125.5v19t2 31l14 229q2 22 2 31.5v13.5q0 74 -17 116t-51 63.5t-81 26.5t-109 5h-137v102h146q94 0 163.5 -14t114.5 -49t67.5 -91.5 t22.5 -140.5v-17t-2 -36l-10 -178q-2 -29 -3 -54.5t-1 -41.5q0 -90 57 -123t178 -33v-102q-121 0 -178 -33t-57 -123q0 -16 1 -42t3 -54l10 -178q2 -23 2 -36.5v-17.5q0 -84 -22.5 -140t-67.5 -91t-114.5 -49.5t-163.5 -14.5h-146v103z" />
<glyph unicode="~" d="M174 342q10 35 28.5 76t47.5 75.5t66.5 58t84.5 23.5q45 0 104.5 -22.5t120 -48t115 -48t88.5 -22.5q56 0 94 43t64 98l68 -28q-11 -35 -29 -76t-47 -76t-67 -58.5t-85 -23.5q-45 0 -104 22.5t-119.5 48.5t-115 48.5t-89.5 22.5q-55 0 -93 -43t-64 -99z" />
<glyph unicode="&#xa0;" />
<glyph unicode="&#xa1;" d="M510 674v211h209v-211h-209zM549 98l29 391h75l29 -391v-356h-133v356z" />
<glyph unicode="&#xa2;" d="M207 573q0 123 31.5 207t83 137.5t115 80t126.5 34.5v254h101v-250q55 -4 112.5 -19.5t105.5 -51t80.5 -94t38.5 -146.5h-122q-13 109 -71 153t-144 48v-703q86 4 144 50t71 155h122q-6 -86 -38.5 -145.5t-80.5 -95t-105.5 -53t-112.5 -21.5v-256h-101v258 q-65 8 -129.5 34.5t-115 80t-81 137.5t-30.5 206zM330 578q0 -160 60.5 -245t172.5 -106v695q-112 -19 -172.5 -103t-60.5 -241z" />
<glyph unicode="&#xa3;" d="M250 0v113q31 6 67.5 18t68.5 33.5t53.5 56.5t21.5 86q0 21 -6 70l-23 190h-182v111h170q-2 18 -3 37.5t-1 40.5q0 94 29.5 159.5t77.5 109.5t110.5 69.5t129 38t133.5 16.5t124 4v-111q-96 -2 -182 -10t-151.5 -37.5t-104.5 -88t-39 -161.5q0 -18 1 -34.5t3 -32.5h323 v-111h-311l25 -200q2 -13 3 -29t1 -31q0 -65 -33 -116.5t-92 -79.5h579v-111h-792z" />
<glyph unicode="&#xa4;" d="M205 227l162 162q-54 72 -54 178q0 107 54 178l-162 162l74 74l157 -160q39 23 82 36t96 13q54 0 97 -13t82 -36l157 160l74 -74l-162 -162q53 -71 53 -178q0 -106 -53 -178l162 -162l-74 -73l-157 159q-39 -22 -82 -35.5t-97 -13.5q-53 0 -96 13.5t-82 35.5l-157 -159z M434 567q0 -92 48 -146t132 -54t132.5 54t48.5 146t-48.5 146.5t-132.5 54.5t-132 -54.5t-48 -146.5z" />
<glyph unicode="&#xa5;" d="M98 1143h150l184 -279l186 -295l185 295l180 279h150l-377 -570h239v-112h-315v-348h315v-113h-757v113h313v348h-313v112h239z" />
<glyph unicode="&#xa6;" d="M559 293h113v-658h-113v658zM559 639v655h113v-655h-113z" />
<glyph unicode="&#xa7;" d="M186 551q0 139 138 211q-54 69 -54 158q0 63 24.5 109t69 77t103.5 45t127 14q65 0 124.5 -14t104.5 -49t74 -93.5t33 -146.5h-119q-8 99 -60.5 151t-162.5 52q-90 0 -141.5 -37t-51.5 -108q0 -74 56.5 -118t150.5 -83l234 -96q43 -19 79.5 -41.5t65.5 -51t45 -66.5 t16 -85q0 -137 -139 -213q55 -68 55 -154q0 -63 -25.5 -110t-71.5 -78t-107.5 -45.5t-130.5 -14.5q-68 0 -128.5 14.5t-107.5 49.5t-75.5 93.5t-32.5 146.5h118q9 -99 64 -151t172 -52q96 0 148.5 37t52.5 108q0 74 -56.5 118t-150.5 83l-234 96q-43 19 -80 41.5t-65.5 51 t-45 66.5t-16.5 85zM309 571q0 -45 30 -88t124 -82l233 -96q43 -18 81 -38.5t69 -43.5q74 56 74 135q0 45 -30 88t-124 82l-234 97q-92 37 -149 82q-74 -56 -74 -136z" />
<glyph unicode="&#xa8;" d="M328 1128v166h166v-166h-166zM739 1128v166h166v-166h-166z" />
<glyph unicode="&#xa9;" d="M139 571q0 99 28 188t85 157.5t147 109.5t215 41t215.5 -40t147.5 -108.5t85 -158.5t28 -189q0 -98 -28 -187t-85 -157.5t-147.5 -109.5t-215.5 -41t-215 40t-147 108.5t-85 158.5t-28 188zM231 571q0 -84 20.5 -158.5t65.5 -133t119 -92t178 -33.5q105 0 178.5 33.5 t118.5 92t65.5 133t20.5 158.5q0 82 -20.5 158t-65.5 134.5t-118.5 92t-178.5 33.5q-104 0 -178 -33.5t-119 -92t-65.5 -134.5t-20.5 -158zM375 571q0 156 65.5 234t177.5 78q87 0 148 -50.5t65 -164.5h-100q-2 55 -28.5 90t-84.5 35q-49 0 -77.5 -24t-43 -58.5t-18.5 -72.5 t-4 -67q0 -28 4 -66t18.5 -73t43 -58.5t77.5 -23.5q58 0 84.5 35t28.5 90h100q-4 -115 -66.5 -165t-146.5 -50q-116 0 -179.5 78t-63.5 233z" />
<glyph unicode="&#xaa;" d="M319 666q0 57 23 93t59.5 57.5t83.5 29.5t95 8q51 0 103 -7t83 -20v60q0 39 -4 71.5t-20.5 57t-47 39t-86.5 14.5q-168 0 -168 -137h-106q0 69 26.5 114.5t67.5 72t91 36.5t97 10q261 0 261 -254v-297q0 -20 8 -28t37 -8q12 0 28.5 2t38.5 8v-86q-18 -8 -49 -14.5 t-57 -6.5q-62 0 -81.5 34t-19.5 65v2q-28 -35 -85.5 -68t-151.5 -33q-96 0 -161 44t-65 141zM334 260v100h594v-100h-594zM428 668q0 -95 131 -95q66 0 117 18.5t90 47.5v113q-33 8 -80 12t-88 4q-80 0 -125 -20.5t-45 -79.5z" />
<glyph unicode="&#xab;" d="M197 475l309 356h129l-297 -356l297 -356h-129zM594 475l309 356h129l-297 -356l297 -356h-129z" />
<glyph unicode="&#xac;" d="M340 389v111h549v-379h-125v268h-424z" />
<glyph unicode="&#xad;" d="M317 516v113h594v-113h-594z" />
<glyph unicode="&#xae;" d="M139 819q0 99 28 188t85 157.5t147 109.5t215 41t215.5 -40t147.5 -108.5t85 -158.5t28 -189q0 -98 -28 -187t-85 -157.5t-147.5 -109.5t-215.5 -41t-215 39.5t-147 108.5t-85 159t-28 188zM231 819q0 -84 20.5 -158.5t65.5 -133t119 -92.5t178 -34q105 0 178.5 34 t118.5 92.5t65.5 133t20.5 158.5q0 82 -20.5 158t-65.5 134t-118.5 92t-178.5 34q-104 0 -178 -34t-119 -92t-65.5 -134t-20.5 -158zM434 530v594h166q117 0 170 -49t53 -129q0 -78 -39 -115.5t-75 -52.5q57 -41 85.5 -110.5t28.5 -137.5h-102q0 66 -25.5 124.5t-79.5 101.5 h-86v-226h-96zM530 838h64q129 0 129 100t-129 100h-64v-200z" />
<glyph unicode="&#xaf;" d="M344 1126v111h543v-111h-543z" />
<glyph unicode="&#xb0;" d="M303 852q0 70 24.5 127t67.5 99t99.5 64.5t119.5 22.5q64 0 121.5 -22.5t99.5 -64.5t66.5 -99t24.5 -127t-24.5 -127t-66.5 -98t-99.5 -63.5t-121.5 -22.5q-63 0 -119.5 22.5t-99.5 63.5t-67.5 98t-24.5 127zM414 852q0 -96 56 -156.5t144 -60.5q91 0 146 60.5t55 156.5 q0 98 -55 158.5t-146 60.5q-88 0 -144 -60.5t-56 -158.5z" />
<glyph unicode="&#xb1;" d="M164 0v111h903v-111h-903zM164 647v111h393v385h117v-385h393v-111h-393v-389h-117v389h-393z" />
<glyph unicode="&#xb2;" d="M387 956q6 105 70.5 152t156.5 47q93 0 151 -47t58 -129q0 -68 -36.5 -112t-94.5 -81l-90 -57q-41 -24 -65.5 -50t-28.5 -61h330v-77h-426v34q0 84 36.5 133.5t96.5 84.5l84 49q41 24 71.5 56t30.5 79q0 51 -32.5 77.5t-86.5 26.5q-53 0 -91 -26.5t-44 -98.5h-90z" />
<glyph unicode="&#xb3;" d="M385 727h90q10 -121 141 -121q60 0 96 25.5t36 77.5q0 53 -40 80.5t-102 27.5h-20v72h20q60 0 94.5 21.5t34.5 70.5q0 45 -32.5 71.5t-86.5 26.5q-53 0 -92 -26.5t-43 -94.5h-90q6 103 70.5 150t156.5 47q99 0 154 -48t55 -124q0 -94 -92 -129q49 -18 78 -57t29 -92 q0 -78 -60.5 -126.5t-163.5 -48.5q-100 0 -164.5 48.5t-68.5 148.5z" />
<glyph unicode="&#xb4;" d="M453 1004l157 391h164l-246 -391h-75z" />
<glyph unicode="&#xb5;" d="M274 -365v1250h121v-774h172q90 0 148.5 29.5t87.5 64.5v680h121v-752q0 -27 11 -36t40 -9q47 0 110 14v-94q-22 -10 -60 -19t-83 -9q-39 0 -62.5 10t-37 27.5t-18.5 38t-5 40.5v31q-10 -21 -32.5 -43.5t-56.5 -40.5t-80 -30.5t-107 -12.5h-148v-365h-121z" />
<glyph unicode="&#xb6;" d="M147 793q0 98 40 164.5t102.5 107.5t139.5 59.5t151 18.5h102v-1508h-113v811q-75 0 -151 18.5t-135.5 60.5t-97.5 107.5t-38 160.5zM264 795q0 -66 23.5 -113t64.5 -77t96.5 -43t120.5 -13v491q-65 0 -120.5 -13t-96.5 -43t-64.5 -77t-23.5 -112zM868 -365v1508h113 v-1508h-113z" />
<glyph unicode="&#xb7;" d="M510 467v209h209v-209h-209z" />
<glyph unicode="&#xb8;" d="M432 -350l25 78q18 -11 46.5 -18t57.5 -7q41 0 62.5 14.5t21.5 34.5q0 35 -47 57.5t-113 38.5l33 152h80l-18 -90q84 -25 135 -65t51 -99q0 -53 -43 -92t-135 -39q-53 0 -96 12.5t-60 22.5z" />
<glyph unicode="&#xb9;" d="M422 541v77h158v416q-23 -22 -55.5 -34.5t-80.5 -12.5h-22v82h41q96 0 133 74h72v-525h137v-77h-383z" />
<glyph unicode="&#xba;" d="M299 823q0 99 28.5 164.5t73.5 105.5t101.5 56t111.5 16q58 0 114 -16t101 -56t73 -105.5t28 -164.5q0 -98 -29 -163.5t-74 -105.5t-101 -56.5t-112 -16.5q-57 0 -113.5 16.5t-101.5 56.5t-72.5 105.5t-27.5 163.5zM332 260v100h569v-100h-569zM412 823q0 -123 52 -183 t150 -60q99 0 151 60t52 183t-52 183.5t-151 60.5q-98 0 -150 -60.5t-52 -183.5z" />
<glyph unicode="&#xbb;" d="M197 119l297 356l-297 356h129l309 -356l-309 -356h-129zM594 119l297 356l-297 356h129l309 -356l-309 -356h-129z" />
<glyph unicode="&#xbc;" d="M116 541v77h158v416q-23 -22 -55.5 -34.5t-80.5 -12.5h-22v82h41q96 0 133 74h72v-525h137v-77h-383zM213 0l293 475h61v-61l-254 -414h-100zM643 148v62l315 393h80v-379h98v-76h-98v-147h-84v147h-311zM662 668v61l253 414h101l-293 -475h-61zM745 224h209v260z" />
<glyph unicode="&#xbd;" d="M116 541v77h158v416q-23 -22 -55.5 -34.5t-80.5 -12.5h-22v82h41q96 0 133 74h72v-525h137v-77h-383zM213 0l293 475h61v-61l-254 -414h-100zM662 668v61l253 414h101l-293 -475h-61zM694 416q6 105 70.5 152t156.5 47q93 0 151 -47t58 -129q0 -68 -36.5 -112t-94.5 -81 l-90 -57q-41 -24 -65.5 -50t-28.5 -61h330v-77h-426v34q0 84 36.5 133.5t96.5 84.5l84 49q41 24 71.5 56t30.5 79q0 51 -32.5 77.5t-86.5 26.5q-53 0 -91 -26.5t-44 -98.5h-90z" />
<glyph unicode="&#xbe;" d="M79 727h90q10 -121 141 -121q60 0 96 25.5t36 77.5q0 53 -40 80.5t-102 27.5h-20v72h20q60 0 94.5 21.5t34.5 70.5q0 45 -32.5 71.5t-86.5 26.5q-53 0 -92 -26.5t-43 -94.5h-90q6 103 70.5 150t156.5 47q99 0 154 -48t55 -124q0 -94 -92 -129q49 -18 78 -57t29 -92 q0 -78 -60.5 -126.5t-163.5 -48.5q-100 0 -164.5 48.5t-68.5 148.5zM213 0l293 475h61v-61l-254 -414h-100zM643 148v62l315 393h80v-379h98v-76h-98v-147h-84v147h-311zM662 668v61l253 414h101l-293 -475h-61zM745 224h209v260z" />
<glyph unicode="&#xbf;" d="M231 29q0 63 25 120.5t75 113.5t125.5 114.5t176.5 126.5l59 -68q-100 -80 -164.5 -138t-101.5 -103t-51.5 -84t-14.5 -78q0 -41 13.5 -77t45.5 -63.5t84 -44t128 -16.5q129 0 198.5 49t69.5 152h123q0 -86 -33 -146.5t-87 -97.5t-125.5 -53.5t-149.5 -16.5 q-103 0 -177.5 26t-122.5 68t-72 98t-24 118zM530 676v209h209v-209h-209z" />
<glyph unicode="&#xc0;" d="M137 0l406 1143h143l406 -1143h-144l-96 285h-477l-99 -285h-139zM393 1614h163l158 -391h-76zM410 397h403l-70 207l-131 404l-131 -400z" />
<glyph unicode="&#xc1;" d="M137 0l406 1143h143l406 -1143h-144l-96 285h-477l-99 -285h-139zM410 397h403l-70 207l-131 404l-131 -400zM519 1223l157 391h164l-246 -391h-75z" />
<glyph unicode="&#xc2;" d="M137 0l406 1143h143l406 -1143h-144l-96 285h-477l-99 -285h-139zM344 1223l205 391h131l205 -391h-82l-189 251l-188 -251h-82zM410 397h403l-70 207l-131 404l-131 -400z" />
<glyph unicode="&#xc3;" d="M137 0l406 1143h143l406 -1143h-144l-96 285h-477l-99 -285h-139zM278 1313q12 41 33.5 83t49 75.5t61.5 55t73 21.5q41 0 71.5 -21.5t56 -48t49.5 -48t54 -21.5q43 0 79 43t63 96l61 -29q-12 -40 -33.5 -82t-49.5 -76t-61.5 -55.5t-72.5 -21.5q-41 0 -71.5 21.5 t-56.5 48t-49.5 48t-53.5 21.5q-43 0 -79 -43t-63 -96zM410 397h403l-70 207l-131 404l-131 -400z" />
<glyph unicode="&#xc4;" d="M137 0l406 1143h143l406 -1143h-144l-96 285h-477l-99 -285h-139zM327 1347v166h166v-166h-166zM410 397h403l-70 207l-131 404l-131 -400zM738 1347v166h166v-166h-166z" />
<glyph unicode="&#xc5;" d="M137 0l406 1143h143l406 -1143h-144l-96 285h-477l-99 -285h-139zM356 1454q0 53 19.5 99t54.5 81t82 54.5t102 19.5q56 0 103 -19.5t82 -54.5t54 -81t19 -99t-19 -99t-54 -81t-82 -54.5t-103 -19.5q-55 0 -102 19.5t-82 54.5t-54.5 81t-19.5 99zM410 397h403l-70 207 l-131 404l-131 -400zM446 1454q0 -72 48.5 -120t119.5 -48q72 0 120 48t48 120t-48 120t-120 48q-71 0 -119.5 -48t-48.5 -120z" />
<glyph unicode="&#xc6;" d="M41 0l209 1143h862v-113h-420v-389h338v-113h-338v-415h420v-113h-549v528h-297l-94 -528h-131zM287 641h276v389h-209z" />
<glyph unicode="&#xc7;" d="M182 569q0 293 117 444.5t346 151.5q66 0 134.5 -15t126 -56t96 -113t42.5 -182h-129q-30 256 -272 256q-104 0 -167.5 -42t-99.5 -110.5t-48.5 -156t-12.5 -175.5t12.5 -174t48.5 -154.5t99.5 -110.5t167.5 -42q242 0 272 256h129q-4 -104 -41.5 -175t-95 -113t-129 -60 t-143.5 -18q-223 0 -338 149.5t-115 439.5zM472 -350l25 78q18 -11 46.5 -18t57.5 -7q41 0 62.5 14.5t21.5 34.5q0 35 -47 57.5t-113 38.5l33 152h80l-18 -90q84 -25 135 -65t51 -99q0 -53 -43 -92t-135 -39q-53 0 -96 12.5t-60 22.5z" />
<glyph unicode="&#xc8;" d="M274 0v1143h705v-113h-576v-389h506v-113h-506v-415h576v-113h-705zM411 1614h163l158 -391h-76z" />
<glyph unicode="&#xc9;" d="M274 0v1143h705v-113h-576v-389h506v-113h-506v-415h576v-113h-705zM537 1223l157 391h164l-246 -391h-75z" />
<glyph unicode="&#xca;" d="M274 0v1143h705v-113h-576v-389h506v-113h-506v-415h576v-113h-705zM362 1223l205 391h131l205 -391h-82l-189 251l-188 -251h-82z" />
<glyph unicode="&#xcb;" d="M274 0v1143h705v-113h-576v-389h506v-113h-506v-415h576v-113h-705zM346 1347v166h166v-166h-166zM757 1347v166h166v-166h-166z" />
<glyph unicode="&#xcc;" d="M272 0v113h279v917h-279v113h686v-113h-278v-917h278v-113h-686zM393 1614h163l158 -391h-76z" />
<glyph unicode="&#xcd;" d="M272 0v113h279v917h-279v113h686v-113h-278v-917h278v-113h-686zM519 1223l157 391h164l-246 -391h-75z" />
<glyph unicode="&#xce;" d="M272 0v113h279v917h-279v113h686v-113h-278v-917h278v-113h-686zM344 1223l205 391h131l205 -391h-82l-189 251l-188 -251h-82z" />
<glyph unicode="&#xcf;" d="M272 0v113h279v917h-279v113h686v-113h-278v-917h278v-113h-686zM328 1347v166h166v-166h-166zM739 1347v166h166v-166h-166z" />
<glyph unicode="&#xd0;" d="M174 537v112h100v494h304q137 0 228 -45t144.5 -122t75 -181.5t21.5 -221.5q0 -120 -23 -224.5t-76 -182.5t-144 -122t-226 -44h-304v537h-100zM403 113h175q114 0 181.5 44t101.5 111.5t43 148.5t9 154q0 74 -9 155t-43 148.5t-101.5 111.5t-181.5 44h-175v-381h246 v-112h-246v-424z" />
<glyph unicode="&#xd1;" d="M274 0v1143h187l383 -1014l-13 307v707h123v-1143h-186l-383 1014l12 -307v-707h-123zM289 1313q12 41 33.5 83t49 75.5t61.5 55t73 21.5q41 0 71.5 -21.5t56 -48t49.5 -48t54 -21.5q43 0 79 43t63 96l61 -29q-12 -40 -33.5 -82t-49.5 -76t-61.5 -55.5t-72.5 -21.5 q-41 0 -71.5 21.5t-56.5 48t-49.5 48t-53.5 21.5q-43 0 -79 -43t-63 -96z" />
<glyph unicode="&#xd2;" d="M182 567q0 135 27 245t81 188.5t136 121.5t190 43q111 0 192 -43t134 -121.5t79 -187t26 -238.5q0 -135 -27 -244.5t-81 -187t-136 -120.5t-191 -43q-110 0 -191 43t-134.5 120.5t-79 186t-25.5 237.5zM315 571q0 -90 13.5 -176t47.5 -152.5t91 -107.5t147 -41 q91 0 148 41t91 107.5t47 152.5t13 176q0 91 -13 177t-47 153.5t-91 108.5t-148 41q-90 0 -147 -41t-91 -108.5t-47.5 -153.5t-13.5 -177zM393 1614h163l158 -391h-76z" />
<glyph unicode="&#xd3;" d="M182 567q0 135 27 245t81 188.5t136 121.5t190 43q111 0 192 -43t134 -121.5t79 -187t26 -238.5q0 -135 -27 -244.5t-81 -187t-136 -120.5t-191 -43q-110 0 -191 43t-134.5 120.5t-79 186t-25.5 237.5zM315 571q0 -90 13.5 -176t47.5 -152.5t91 -107.5t147 -41 q91 0 148 41t91 107.5t47 152.5t13 176q0 91 -13 177t-47 153.5t-91 108.5t-148 41q-90 0 -147 -41t-91 -108.5t-47.5 -153.5t-13.5 -177zM519 1223l157 391h164l-246 -391h-75z" />
<glyph unicode="&#xd4;" d="M182 567q0 135 27 245t81 188.5t136 121.5t190 43q111 0 192 -43t134 -121.5t79 -187t26 -238.5q0 -135 -27 -244.5t-81 -187t-136 -120.5t-191 -43q-110 0 -191 43t-134.5 120.5t-79 186t-25.5 237.5zM315 571q0 -90 13.5 -176t47.5 -152.5t91 -107.5t147 -41 q91 0 148 41t91 107.5t47 152.5t13 176q0 91 -13 177t-47 153.5t-91 108.5t-148 41q-90 0 -147 -41t-91 -108.5t-47.5 -153.5t-13.5 -177zM344 1223l205 391h131l205 -391h-82l-189 251l-188 -251h-82z" />
<glyph unicode="&#xd5;" d="M182 567q0 135 27 245t81 188.5t136 121.5t190 43q111 0 192 -43t134 -121.5t79 -187t26 -238.5q0 -135 -27 -244.5t-81 -187t-136 -120.5t-191 -43q-110 0 -191 43t-134.5 120.5t-79 186t-25.5 237.5zM278 1313q12 41 33.5 83t49 75.5t61.5 55t73 21.5q41 0 71.5 -21.5 t56 -48t49.5 -48t54 -21.5q43 0 79 43t63 96l61 -29q-12 -40 -33.5 -82t-49.5 -76t-61.5 -55.5t-72.5 -21.5q-41 0 -71.5 21.5t-56.5 48t-49.5 48t-53.5 21.5q-43 0 -79 -43t-63 -96zM315 571q0 -90 13.5 -176t47.5 -152.5t91 -107.5t147 -41q91 0 148 41t91 107.5t47 152.5 t13 176q0 91 -13 177t-47 153.5t-91 108.5t-148 41q-90 0 -147 -41t-91 -108.5t-47.5 -153.5t-13.5 -177z" />
<glyph unicode="&#xd6;" d="M182 567q0 135 27 245t81 188.5t136 121.5t190 43q111 0 192 -43t134 -121.5t79 -187t26 -238.5q0 -135 -27 -244.5t-81 -187t-136 -120.5t-191 -43q-110 0 -191 43t-134.5 120.5t-79 186t-25.5 237.5zM315 571q0 -90 13.5 -176t47.5 -152.5t91 -107.5t147 -41 q91 0 148 41t91 107.5t47 152.5t13 176q0 91 -13 177t-47 153.5t-91 108.5t-148 41q-90 0 -147 -41t-91 -108.5t-47.5 -153.5t-13.5 -177zM328 1347v166h166v-166h-166zM739 1347v166h166v-166h-166z" />
<glyph unicode="&#xd7;" d="M154 61l383 381l-383 381l79 82l381 -381l381 381l80 -82l-383 -381l383 -381l-80 -81l-381 380l-381 -380z" />
<glyph unicode="&#xd8;" d="M27 0l211 233q-56 142 -56 336q0 133 27 243t81 188.5t136 121.5t190 43q107 0 187 -41t133 -116l121 135h145l-211 -236q56 -139 56 -334q0 -133 -27 -242.5t-81 -187t-136 -120.5t-193 -43q-104 0 -184 39.5t-133 113.5l-121 -133h-145zM315 571q0 -59 5.5 -116.5 t17.5 -110.5l510 567q-35 64 -91.5 102t-142.5 38q-90 0 -147 -41t-91 -108.5t-47.5 -153.5t-13.5 -177zM381 231q35 -63 91 -100t142 -37q91 0 148 41t91 107.5t47 152.5t13 176q0 60 -5 116t-17 110z" />
<glyph unicode="&#xd9;" d="M242 395v748h129v-748q0 -164 55 -232.5t188 -68.5q136 0 191 68.5t55 232.5v748h129v-748q0 -225 -92 -320t-283 -95q-190 0 -281 95t-91 320zM393 1614h163l158 -391h-76z" />
<glyph unicode="&#xda;" d="M242 395v748h129v-748q0 -164 55 -232.5t188 -68.5q136 0 191 68.5t55 232.5v748h129v-748q0 -225 -92 -320t-283 -95q-190 0 -281 95t-91 320zM519 1223l157 391h164l-246 -391h-75z" />
<glyph unicode="&#xdb;" d="M242 395v748h129v-748q0 -164 55 -232.5t188 -68.5q136 0 191 68.5t55 232.5v748h129v-748q0 -225 -92 -320t-283 -95q-190 0 -281 95t-91 320zM344 1223l205 391h131l205 -391h-82l-189 251l-188 -251h-82z" />
<glyph unicode="&#xdc;" d="M242 395v748h129v-748q0 -164 55 -232.5t188 -68.5q136 0 191 68.5t55 232.5v748h129v-748q0 -225 -92 -320t-283 -95q-190 0 -281 95t-91 320zM328 1347v166h166v-166h-166zM739 1347v166h166v-166h-166z" />
<glyph unicode="&#xdd;" d="M98 1143h150l184 -279l186 -295l185 295l180 279h150l-453 -684v-459h-129v463zM519 1223l157 391h164l-246 -391h-75z" />
<glyph unicode="&#xde;" d="M274 0v1143h129v-228h175q219 0 342.5 -85t123.5 -263q0 -174 -122.5 -261t-343.5 -87h-175v-219h-129zM403 332h177q180 0 255.5 63.5t75.5 171.5q0 109 -75.5 172.5t-255.5 63.5h-177v-471z" />
<glyph unicode="&#xdf;" d="M258 0v891q0 219 100.5 321.5t270.5 102.5q90 0 156.5 -25.5t111.5 -69.5t66.5 -103.5t21.5 -127.5q0 -88 -31.5 -154.5t-78 -115.5t-98.5 -81t-93 -48q45 -19 104.5 -53.5t113.5 -84t91 -113t37 -138.5q0 -62 -24.5 -104t-64.5 -67.5t-91 -37.5t-107 -12 q-61 0 -114.5 12t-89.5 35v114q47 -22 94 -36.5t102 -14.5q90 0 130 35t40 92q0 51 -30.5 98t-82 89t-118 77t-135.5 64v94q159 47 241 134t82 212q0 105 -58.5 164t-176.5 59q-131 0 -189.5 -75.5t-58.5 -235.5v-897h-121z" />
<glyph unicode="&#xe0;" d="M201 227q0 76 30.5 126t79.5 78t109.5 39t122.5 11q59 0 133 -10t127 -27v82q0 56 -6 105t-29 86t-68 58.5t-122 21.5q-240 0 -240 -205h-121q0 98 36 158.5t91 95.5t120.5 47t123.5 12q178 0 257 -89t79 -255v-428q0 -27 11 -36t40 -9q47 0 110 14v-94q-22 -10 -60 -19 t-83 -9q-39 0 -62.5 10t-37 27.5t-18.5 38t-5 40.5v17q-37 -47 -115.5 -90t-203.5 -43q-64 0 -119 14t-95 44t-62.5 77t-22.5 112zM319 229q0 -139 189 -139q92 0 163.5 25.5t131.5 68.5v168q-47 10 -114.5 17.5t-129.5 7.5q-110 0 -175 -31t-65 -117zM384 1395h163 l158 -391h-76z" />
<glyph unicode="&#xe1;" d="M201 227q0 76 30.5 126t79.5 78t109.5 39t122.5 11q59 0 133 -10t127 -27v82q0 56 -6 105t-29 86t-68 58.5t-122 21.5q-240 0 -240 -205h-121q0 98 36 158.5t91 95.5t120.5 47t123.5 12q178 0 257 -89t79 -255v-428q0 -27 11 -36t40 -9q47 0 110 14v-94q-22 -10 -60 -19 t-83 -9q-39 0 -62.5 10t-37 27.5t-18.5 38t-5 40.5v17q-37 -47 -115.5 -90t-203.5 -43q-64 0 -119 14t-95 44t-62.5 77t-22.5 112zM319 229q0 -139 189 -139q92 0 163.5 25.5t131.5 68.5v168q-47 10 -114.5 17.5t-129.5 7.5q-110 0 -175 -31t-65 -117zM510 1004l157 391h164 l-246 -391h-75z" />
<glyph unicode="&#xe2;" d="M201 227q0 76 30.5 126t79.5 78t109.5 39t122.5 11q59 0 133 -10t127 -27v82q0 56 -6 105t-29 86t-68 58.5t-122 21.5q-240 0 -240 -205h-121q0 98 36 158.5t91 95.5t120.5 47t123.5 12q178 0 257 -89t79 -255v-428q0 -27 11 -36t40 -9q47 0 110 14v-94q-22 -10 -60 -19 t-83 -9q-39 0 -62.5 10t-37 27.5t-18.5 38t-5 40.5v17q-37 -47 -115.5 -90t-203.5 -43q-64 0 -119 14t-95 44t-62.5 77t-22.5 112zM319 229q0 -139 189 -139q92 0 163.5 25.5t131.5 68.5v168q-47 10 -114.5 17.5t-129.5 7.5q-110 0 -175 -31t-65 -117zM337 1004l205 391h131 l205 -391h-82l-189 251l-188 -251h-82z" />
<glyph unicode="&#xe3;" d="M201 227q0 76 30.5 126t79.5 78t109.5 39t122.5 11q59 0 133 -10t127 -27v82q0 56 -6 105t-29 86t-68 58.5t-122 21.5q-240 0 -240 -205h-121q0 98 36 158.5t91 95.5t120.5 47t123.5 12q178 0 257 -89t79 -255v-428q0 -27 11 -36t40 -9q47 0 110 14v-94q-22 -10 -60 -19 t-83 -9q-39 0 -62.5 10t-37 27.5t-18.5 38t-5 40.5v17q-37 -47 -115.5 -90t-203.5 -43q-64 0 -119 14t-95 44t-62.5 77t-22.5 112zM270 1094q12 41 33.5 83t49 75.5t61.5 55t73 21.5q41 0 71.5 -21.5t56 -48t49.5 -48t54 -21.5q43 0 79 43t63 96l61 -29q-12 -40 -33.5 -82 t-49.5 -76t-61.5 -55.5t-72.5 -21.5q-41 0 -71.5 21.5t-56.5 48t-49.5 48t-53.5 21.5q-43 0 -79 -43t-63 -96zM319 229q0 -139 189 -139q92 0 163.5 25.5t131.5 68.5v168q-47 10 -114.5 17.5t-129.5 7.5q-110 0 -175 -31t-65 -117z" />
<glyph unicode="&#xe4;" d="M201 227q0 76 30.5 126t79.5 78t109.5 39t122.5 11q59 0 133 -10t127 -27v82q0 56 -6 105t-29 86t-68 58.5t-122 21.5q-240 0 -240 -205h-121q0 98 36 158.5t91 95.5t120.5 47t123.5 12q178 0 257 -89t79 -255v-428q0 -27 11 -36t40 -9q47 0 110 14v-94q-22 -10 -60 -19 t-83 -9q-39 0 -62.5 10t-37 27.5t-18.5 38t-5 40.5v17q-37 -47 -115.5 -90t-203.5 -43q-64 0 -119 14t-95 44t-62.5 77t-22.5 112zM319 229q0 -139 189 -139q92 0 163.5 25.5t131.5 68.5v168q-47 10 -114.5 17.5t-129.5 7.5q-110 0 -175 -31t-65 -117zM321 1128v166h166 v-166h-166zM732 1128v166h166v-166h-166z" />
<glyph unicode="&#xe5;" d="M201 227q0 76 30.5 126t79.5 78t109.5 39t122.5 11q59 0 133 -10t127 -27v82q0 56 -6 105t-29 86t-68 58.5t-122 21.5q-240 0 -240 -205h-121q0 98 36 158.5t91 95.5t120.5 47t123.5 12q178 0 257 -89t79 -255v-428q0 -27 11 -36t40 -9q47 0 110 14v-94q-22 -10 -60 -19 t-83 -9q-39 0 -62.5 10t-37 27.5t-18.5 38t-5 40.5v17q-37 -47 -115.5 -90t-203.5 -43q-64 0 -119 14t-95 44t-62.5 77t-22.5 112zM319 229q0 -139 189 -139q92 0 163.5 25.5t131.5 68.5v168q-47 10 -114.5 17.5t-129.5 7.5q-110 0 -175 -31t-65 -117zM349 1235 q0 53 19.5 99t54.5 81t82 54.5t102 19.5q56 0 103 -19.5t82 -54.5t54 -81t19 -99t-19 -99t-54 -81t-82 -54.5t-103 -19.5q-55 0 -102 19.5t-82 54.5t-54.5 81t-19.5 99zM439 1235q0 -72 48.5 -120t119.5 -48q72 0 120 48t48 120t-48 120t-120 48q-71 0 -119.5 -48 t-48.5 -120z" />
<glyph unicode="&#xe6;" d="M68 238q0 69 25.5 116t66.5 75t92 39t102 11q64 0 116 -9t85 -21v112q0 101 -45 169.5t-141 68.5q-86 0 -124 -56.5t-38 -140.5h-109q0 133 73 218t208 85q98 0 156.5 -43t87.5 -112q32 65 93.5 110t151.5 45q136 0 214.5 -114.5t78.5 -350.5v-6h-493q2 -172 55 -261 t151 -89q44 0 76.5 17.5t53 45t30.5 64.5t10 76h115q-2 -64 -21.5 -119t-56.5 -97t-88 -66.5t-119 -24.5q-159 0 -247 137q-41 -58 -107.5 -97.5t-171.5 -39.5q-131 0 -205.5 69.5t-74.5 188.5zM186 238q0 -76 46.5 -114t123.5 -38q80 0 141.5 32t96.5 64q-33 80 -41 178 q-27 11 -75 16t-101 5q-191 0 -191 -143zM672 535h372q-10 122 -54 194t-130 72q-88 0 -133 -73t-55 -193z" />
<glyph unicode="&#xe7;" d="M205 440q0 140 40 230t102.5 142t137 72.5t144.5 20.5q57 0 119.5 -13t116 -49t91 -96.5t43.5 -154.5h-122q-13 117 -79.5 160t-164.5 43q-148 0 -226.5 -84t-78.5 -267q0 -182 78.5 -268t226.5 -86q98 0 164.5 44t79.5 161h122q-6 -90 -41.5 -150.5t-87 -96.5t-112 -51 t-115.5 -17l-14 -70q84 -25 135 -65t51 -99q0 -53 -43 -92t-135 -39q-53 0 -96 12.5t-60 22.5l25 78q18 -11 47 -18t57 -7q41 0 62.5 14.5t21.5 34.5q0 35 -47 57.5t-112 38.5l28 136q-65 6 -129.5 32.5t-116 80t-82 137t-30.5 206.5z" />
<glyph unicode="&#xe8;" d="M205 440q0 133 38 222.5t98 143.5t135 76.5t147 22.5q67 0 140 -21.5t132 -73.5t97 -141t38 -225v-28h-704q16 -330 303 -330q116 0 188 51t90 150h121q-12 -90 -55 -149.5t-101.5 -94.5t-125 -49t-123.5 -14q-82 0 -158 25.5t-133.5 80.5t-92 142t-34.5 212zM328 516 h577q-16 143 -90 213t-201 70t-199.5 -70t-86.5 -213zM372 1395h163l158 -391h-76z" />
<glyph unicode="&#xe9;" d="M205 440q0 133 38 222.5t98 143.5t135 76.5t147 22.5q67 0 140 -21.5t132 -73.5t97 -141t38 -225v-28h-704q16 -330 303 -330q116 0 188 51t90 150h121q-12 -90 -55 -149.5t-101.5 -94.5t-125 -49t-123.5 -14q-82 0 -158 25.5t-133.5 80.5t-92 142t-34.5 212zM328 516 h577q-16 143 -90 213t-201 70t-199.5 -70t-86.5 -213zM498 1004l157 391h164l-246 -391h-75z" />
<glyph unicode="&#xea;" d="M205 440q0 133 38 222.5t98 143.5t135 76.5t147 22.5q67 0 140 -21.5t132 -73.5t97 -141t38 -225v-28h-704q16 -330 303 -330q116 0 188 51t90 150h121q-12 -90 -55 -149.5t-101.5 -94.5t-125 -49t-123.5 -14q-82 0 -158 25.5t-133.5 80.5t-92 142t-34.5 212zM322 1004 l205 391h131l205 -391h-82l-189 251l-188 -251h-82zM328 516h577q-16 143 -90 213t-201 70t-199.5 -70t-86.5 -213z" />
<glyph unicode="&#xeb;" d="M205 440q0 133 38 222.5t98 143.5t135 76.5t147 22.5q67 0 140 -21.5t132 -73.5t97 -141t38 -225v-28h-704q16 -330 303 -330q116 0 188 51t90 150h121q-12 -90 -55 -149.5t-101.5 -94.5t-125 -49t-123.5 -14q-82 0 -158 25.5t-133.5 80.5t-92 142t-34.5 212zM306 1128 v166h166v-166h-166zM328 516h577q-16 143 -90 213t-201 70t-199.5 -70t-86.5 -213zM717 1128v166h166v-166h-166z" />
<glyph unicode="&#xec;" d="M242 0v111h327v663h-327v111h448v-774h301v-111h-749zM409 1395h163l158 -391h-76z" />
<glyph unicode="&#xed;" d="M242 0v111h327v663h-327v111h448v-774h301v-111h-749zM535 1004l157 391h164l-246 -391h-75z" />
<glyph unicode="&#xee;" d="M242 0v111h327v663h-327v111h448v-774h301v-111h-749zM360 1004l205 391h131l205 -391h-82l-189 251l-188 -251h-82z" />
<glyph unicode="&#xef;" d="M242 0v111h327v663h-327v111h448v-774h301v-111h-749zM342 1128v166h166v-166h-166zM753 1128v166h166v-166h-166z" />
<glyph unicode="&#xf0;" d="M205 401q0 113 34.5 193t91 131t129 74.5t148.5 23.5q78 0 126 -18.5t71 -34.5l-115 242l-213 -51v112l166 39l-86 182h127l70 -155l207 51v-113l-160 -39l129 -282q37 -80 65.5 -176.5t28.5 -194.5q0 -104 -35 -180t-92 -126t-131 -74.5t-154 -24.5q-77 0 -150 23.5 t-130.5 74.5t-92 131t-34.5 192zM328 401q0 -61 13 -117.5t47 -99.5t88 -69.5t138 -26.5q82 0 137.5 26.5t89 69.5t47 99.5t13.5 117.5q0 62 -13.5 118t-47 99.5t-89 70t-137.5 26.5q-84 0 -138 -26.5t-88 -70t-47 -99.5t-13 -118z" />
<glyph unicode="&#xf1;" d="M274 0v885h97v-113q37 53 106.5 93t181.5 40q56 0 109 -14t95 -54t67.5 -111t25.5 -183v-543h-120v512q0 70 -8.5 123t-32 89t-63.5 54.5t-101 18.5q-90 0 -147.5 -31t-88.5 -66v-700h-121zM278 1094q12 41 33.5 83t49 75.5t61.5 55t73 21.5q41 0 71.5 -21.5t56 -48 t49.5 -48t54 -21.5q43 0 79 43t63 96l61 -29q-12 -40 -33.5 -82t-49.5 -76t-61.5 -55.5t-72.5 -21.5q-41 0 -71.5 21.5t-56.5 48t-49.5 48t-53.5 21.5q-43 0 -79 -43t-63 -96z" />
<glyph unicode="&#xf2;" d="M205 440q0 135 37 225.5t96 143.5t133 74.5t145 21.5q74 0 147 -21.5t131 -74.5t94 -142t36 -223q0 -135 -37 -225t-96.5 -143t-133 -74.5t-145.5 -21.5q-73 0 -146 21.5t-131.5 74.5t-94 142t-35.5 222zM330 442q0 -350 284 -350q285 0 285 350q0 351 -285 351 q-284 0 -284 -351zM393 1395h163l158 -391h-76z" />
<glyph unicode="&#xf3;" d="M205 440q0 135 37 225.5t96 143.5t133 74.5t145 21.5q74 0 147 -21.5t131 -74.5t94 -142t36 -223q0 -135 -37 -225t-96.5 -143t-133 -74.5t-145.5 -21.5q-73 0 -146 21.5t-131.5 74.5t-94 142t-35.5 222zM330 442q0 -350 284 -350q285 0 285 350q0 351 -285 351 q-284 0 -284 -351zM519 1004l157 391h164l-246 -391h-75z" />
<glyph unicode="&#xf4;" d="M205 440q0 135 37 225.5t96 143.5t133 74.5t145 21.5q74 0 147 -21.5t131 -74.5t94 -142t36 -223q0 -135 -37 -225t-96.5 -143t-133 -74.5t-145.5 -21.5q-73 0 -146 21.5t-131.5 74.5t-94 142t-35.5 222zM330 442q0 -350 284 -350q285 0 285 350q0 351 -285 351 q-284 0 -284 -351zM344 1004l205 391h131l205 -391h-82l-189 251l-188 -251h-82z" />
<glyph unicode="&#xf5;" d="M205 440q0 135 37 225.5t96 143.5t133 74.5t145 21.5q74 0 147 -21.5t131 -74.5t94 -142t36 -223q0 -135 -37 -225t-96.5 -143t-133 -74.5t-145.5 -21.5q-73 0 -146 21.5t-131.5 74.5t-94 142t-35.5 222zM278 1094q12 41 33.5 83t49 75.5t61.5 55t73 21.5 q41 0 71.5 -21.5t56 -48t49.5 -48t54 -21.5q43 0 79 43t63 96l61 -29q-12 -40 -33.5 -82t-49.5 -76t-61.5 -55.5t-72.5 -21.5q-41 0 -71.5 21.5t-56.5 48t-49.5 48t-53.5 21.5q-43 0 -79 -43t-63 -96zM330 442q0 -350 284 -350q285 0 285 350q0 351 -285 351 q-284 0 -284 -351z" />
<glyph unicode="&#xf6;" d="M205 440q0 135 37 225.5t96 143.5t133 74.5t145 21.5q74 0 147 -21.5t131 -74.5t94 -142t36 -223q0 -135 -37 -225t-96.5 -143t-133 -74.5t-145.5 -21.5q-73 0 -146 21.5t-131.5 74.5t-94 142t-35.5 222zM328 1128v166h166v-166h-166zM330 442q0 -350 284 -350 q285 0 285 350q0 351 -285 351q-284 0 -284 -351zM739 1128v166h166v-166h-166z" />
<glyph unicode="&#xf7;" d="M236 389v111h757v-111h-757zM530 0v168h168v-168h-168zM530 717v168h168v-168h-168z" />
<glyph unicode="&#xf8;" d="M66 0l192 180q-25 49 -39 113.5t-14 148.5q0 136 38 225t97 142t132 74.5t144 21.5q78 0 157 -25.5t138 -88.5l101 94h151l-192 -180q24 -52 38.5 -116.5t14.5 -146.5q0 -135 -38 -224t-97.5 -142t-132 -74.5t-144.5 -21.5q-77 0 -156 25.5t-139 88.5l-100 -94h-151z M330 442q0 -102 24 -172l469 439q-73 84 -209 84q-284 0 -284 -351zM406 176q69 -84 206 -84q287 0 287 350q0 99 -25 172z" />
<glyph unicode="&#xf9;" d="M274 342v543h121v-512q0 -70 8.5 -123t32 -89t63.5 -54.5t101 -18.5q90 0 147.5 31t88.5 65v701h120v-885h-96v113q-37 -54 -106.5 -93.5t-182.5 -39.5q-55 0 -108 14t-95 54t-68 110.5t-26 183.5zM395 1395h163l158 -391h-76z" />
<glyph unicode="&#xfa;" d="M274 342v543h121v-512q0 -70 8.5 -123t32 -89t63.5 -54.5t101 -18.5q90 0 147.5 31t88.5 65v701h120v-885h-96v113q-37 -54 -106.5 -93.5t-182.5 -39.5q-55 0 -108 14t-95 54t-68 110.5t-26 183.5zM519 1004l157 391h164l-246 -391h-75z" />
<glyph unicode="&#xfb;" d="M274 342v543h121v-512q0 -70 8.5 -123t32 -89t63.5 -54.5t101 -18.5q90 0 147.5 31t88.5 65v701h120v-885h-96v113q-37 -54 -106.5 -93.5t-182.5 -39.5q-55 0 -108 14t-95 54t-68 110.5t-26 183.5zM344 1004l205 391h131l205 -391h-82l-189 251l-188 -251h-82z" />
<glyph unicode="&#xfc;" d="M274 342v543h121v-512q0 -70 8.5 -123t32 -89t63.5 -54.5t101 -18.5q90 0 147.5 31t88.5 65v701h120v-885h-96v113q-37 -54 -106.5 -93.5t-182.5 -39.5q-55 0 -108 14t-95 54t-68 110.5t-26 183.5zM328 1128v166h166v-166h-166zM739 1128v166h166v-166h-166z" />
<glyph unicode="&#xfd;" d="M166 885h133l178 -439l135 -329l125 309l187 459h131l-381 -895q-43 -101 -91 -170.5t-106.5 -112.5t-131.5 -62.5t-165 -19.5v111q70 0 125 14t98 46t78 81t64 119zM519 1004l157 391h164l-246 -391h-75z" />
<glyph unicode="&#xfe;" d="M274 -365v1659h121v-503q13 14 34.5 33.5t54 38t75.5 30.5t96 12q72 0 138.5 -25.5t118 -81t82 -143.5t30.5 -211q0 -120 -29.5 -208.5t-81 -145.5t-117 -83.5t-139.5 -26.5q-53 0 -95 12t-73.5 29.5t-55 37t-38.5 35.5v-459h-121zM395 186q41 -41 99.5 -67.5 t136.5 -26.5q141 0 204.5 97.5t63.5 252.5q0 156 -63.5 253.5t-204.5 97.5q-78 0 -136.5 -27t-99.5 -68v-512z" />
<glyph unicode="&#xff;" d="M166 885h133l178 -439l135 -329l125 309l187 459h131l-381 -895q-43 -101 -91 -170.5t-106.5 -112.5t-131.5 -62.5t-165 -19.5v111q70 0 125 14t98 46t78 81t64 119zM328 1128v166h166v-166h-166zM739 1128v166h166v-166h-166z" />
<glyph unicode="&#x152;" d="M55 567q0 291 102.5 444.5t321.5 153.5q49 0 88 -6t68 -16h547v-113h-418v-389h336v-113h-336v-415h418v-113h-547q-29 -10 -67 -15t-87 -5q-225 0 -325.5 153.5t-100.5 433.5zM188 571q0 -94 12.5 -181t45.5 -154.5t92 -107.5t154 -40q40 0 78 6t65 17v921 q-29 10 -69 17.5t-74 7.5q-95 0 -154 -40t-92 -107.5t-45.5 -155.5t-12.5 -183z" />
<glyph unicode="&#x153;" d="M43 440q0 125 25.5 214t68.5 144.5t99.5 81t119.5 25.5q84 0 151.5 -43t108.5 -137q43 92 113 136t154 44q135 0 218 -114.5t83 -350.5v-6h-510q2 -170 59.5 -260t155.5 -90q43 0 76.5 17.5t56 45t34 64.5t11.5 76h115q-2 -64 -23.5 -119t-58.5 -97t-90.5 -66.5 t-120.5 -24.5q-90 0 -160 45t-113 135q-41 -94 -108.5 -137t-153.5 -43q-65 0 -121.5 25.5t-98.5 81.5t-66.5 143t-24.5 210zM158 442q0 -163 50 -260.5t150 -97.5q101 0 151 97.5t50 260.5q0 164 -50 261.5t-151 97.5q-100 0 -150 -97.5t-50 -261.5zM678 532h389 q-12 123 -59 196t-134 73q-86 0 -135 -74t-61 -195z" />
<glyph unicode="&#x178;" d="M98 1143h150l184 -279l186 -295l185 295l180 279h150l-453 -684v-459h-129v463zM328 1347v166h166v-166h-166zM739 1347v166h166v-166h-166z" />
<glyph unicode="&#x2c6;" d="M344 1004l205 391h131l205 -391h-82l-189 251l-188 -251h-82z" />
<glyph unicode="&#x2dc;" d="M289 1094q12 41 33.5 83t49 75.5t61.5 55t73 21.5q41 0 71.5 -21.5t56 -48t49.5 -48t54 -21.5q43 0 79 43t63 96l61 -29q-12 -40 -33.5 -82t-49.5 -76t-61.5 -55.5t-72.5 -21.5q-41 0 -71.5 21.5t-56.5 48t-49.5 48t-53.5 21.5q-43 0 -79 -43t-63 -96z" />
<glyph unicode="&#x2000;" horiz-adv-x="854" />
<glyph unicode="&#x2001;" horiz-adv-x="1708" />
<glyph unicode="&#x2002;" horiz-adv-x="854" />
<glyph unicode="&#x2003;" horiz-adv-x="1708" />
<glyph unicode="&#x2004;" horiz-adv-x="569" />
<glyph unicode="&#x2005;" horiz-adv-x="427" />
<glyph unicode="&#x2006;" horiz-adv-x="284" />
<glyph unicode="&#x2007;" horiz-adv-x="284" />
<glyph unicode="&#x2008;" horiz-adv-x="213" />
<glyph unicode="&#x2009;" horiz-adv-x="341" />
<glyph unicode="&#x200a;" horiz-adv-x="94" />
<glyph unicode="&#x2010;" d="M317 516v113h594v-113h-594z" />
<glyph unicode="&#x2011;" d="M317 516v113h594v-113h-594z" />
<glyph unicode="&#x2012;" d="M317 516v113h594v-113h-594z" />
<glyph unicode="&#x2013;" d="M236 389v111h757v-111h-757z" />
<glyph unicode="&#x2014;" d="M0 389v111h1229v-111h-1229z" />
<glyph unicode="&#x2018;" d="M455 725l276 479q17 29 28 36t25 7q37 0 37 -35q0 -14 -6 -34l-137 -453h-223z" />
<glyph unicode="&#x2019;" d="M408 737q0 13 6 35l137 453h223l-276 -480q-17 -28 -28 -35.5t-26 -7.5q-36 0 -36 35z" />
<glyph unicode="&#x201a;" d="M393 -279q0 13 6 35l138 453h223l-277 -479q-16 -29 -27.5 -36t-25.5 -7q-37 0 -37 34z" />
<glyph unicode="&#x201c;" d="M213 725l276 479q17 29 28 36t26 7q37 0 37 -35q0 -14 -7 -34l-137 -453h-223zM618 725l277 479q16 29 27.5 36t25.5 7q37 0 37 -35q0 -14 -6 -34l-137 -453h-224z" />
<glyph unicode="&#x201d;" d="M244 737q0 13 6 35l137 453h223l-276 -480q-17 -28 -28 -35.5t-25 -7.5q-37 0 -37 35zM649 737q0 13 6 35l138 453h223l-277 -480q-16 -28 -27.5 -35.5t-25.5 -7.5q-37 0 -37 35z" />
<glyph unicode="&#x201e;" d="M179 -279q0 13 6 35l138 453h223l-277 -479q-16 -29 -27.5 -36t-25.5 -7q-37 0 -37 34zM583 -279q0 13 6 35l138 453h223l-277 -479q-16 -29 -27.5 -36t-25.5 -7q-37 0 -37 34z" />
<glyph unicode="&#x2022;" d="M373 571q0 70 21.5 117t56 75t77.5 39t86 11t86 -11t78 -39t56.5 -75t21.5 -117q0 -71 -21.5 -117t-56.5 -74t-78 -39t-86 -11t-86 11t-77.5 39t-56 74t-21.5 117z" />
<glyph unicode="&#x2026;" d="M143 0v172h172v-172h-172zM528 0v172h172v-172h-172zM913 0v172h172v-172h-172z" />
<glyph unicode="&#x202f;" horiz-adv-x="341" />
<glyph unicode="&#x2039;" d="M395 475l310 356h129l-297 -356l297 -356h-129z" />
<glyph unicode="&#x203a;" d="M395 119l297 356l-297 356h129l310 -356l-310 -356h-129z" />
<glyph unicode="&#x205f;" horiz-adv-x="427" />
<glyph unicode="&#x20ac;" d="M182 569q0 293 117 444.5t348 151.5q62 0 129.5 -13t126 -50t98 -102.5t43.5 -170.5h-129q-14 127 -81.5 176.5t-176.5 49.5q-77 0 -133.5 -21.5t-95.5 -58.5t-61.5 -88t-34.5 -111h463v-110h-478q-2 -23 -2 -47.5v-47.5v-42.5t2 -41.5h478v-110h-465q10 -62 32.5 -114 t61.5 -91t95 -60.5t136 -21.5q52 0 97 10.5t78.5 37t56 69.5t28.5 108h129q-4 -100 -43.5 -165.5t-98 -103.5t-129.5 -52t-134 -14q-229 0 -343 151.5t-114 437.5z" />
<glyph unicode="&#x2122;" d="M125 1053v90h403v-90h-153v-502h-94v502h-156zM596 551v592h131l84 -318l86 318h131v-592h-92v424l-82 -268h-82l-84 268v-424h-92z" />
<glyph unicode="&#x25fc;" horiz-adv-x="885" d="M0 0v885h885v-885h-885z" />
<glyph unicode="&#xfb01;" d="M84 774v111h221v2q0 94 21.5 168.5t72 128t131 82t199.5 28.5v-110q-74 0 -131 -13.5t-95 -47t-57.5 -91t-19.5 -145.5v-2h254v-111h-254v-774h-121v774h-221zM827 1128v166h166v-166h-166zM852 0v885h121v-885h-121z" />
<glyph unicode="&#xfb02;" d="M84 774v111h221v2q0 94 21.5 168.5t72 128t131 82t199.5 28.5v-110q-74 0 -131 -13.5t-95 -47t-57.5 -91t-19.5 -145.5v-2h254v-111h-254v-774h-121v774h-221zM852 0v1294h121v-1294h-121z" />
</font>
</defs>
</svg>
