<?xml version="1.0" standalone="no"?>
<!DOCTYPE svg PUBLIC "-//W3C//DTD SVG 1.1//EN" "http://www.w3.org/Graphics/SVG/1.1/DTD/svg11.dtd" >
<svg xmlns="http://www.w3.org/2000/svg" xmlns:xlink="http://www.w3.org/1999/xlink" version="1.1">
<metadata></metadata>
<defs>
<font id="webfontregular" horiz-adv-x="1048" >
<font-face units-per-em="2048" ascent="1630" descent="-418" />
<missing-glyph horiz-adv-x="452" />
<glyph horiz-adv-x="0" />
<glyph horiz-adv-x="0" />
<glyph unicode="&#xd;" horiz-adv-x="452" />
<glyph unicode=" "  horiz-adv-x="452" />
<glyph unicode="&#x09;" horiz-adv-x="452" />
<glyph unicode="&#xa0;" horiz-adv-x="452" />
<glyph unicode="!" horiz-adv-x="596" d="M166 0v264h264v-264h-264zM172 728v388h252v-388l-96 -370h-60z" />
<glyph unicode="&#x22;" horiz-adv-x="932" d="M144 1196h270l-104 -548h-62zM518 1196h270l-104 -548h-62z" />
<glyph unicode="#" horiz-adv-x="1044" d="M72 286l32 168h142l44 232h-140l32 168h140l52 262h180l-52 -262h160l52 262h180l-52 -262h142l-32 -168h-142l-44 -232h140l-32 -168h-142l-54 -286h-180l54 286h-160l-54 -286h-180l54 286h-140zM416 446h176l48 248h-176z" />
<glyph unicode="$" horiz-adv-x="1100" d="M84 344h244q4 -75 53 -120t129 -60v300l-110 30q-145 41 -218.5 118t-73.5 198q0 135 102 221q101 84 276 101v230h150v-232q163 -18 259.5 -109.5t106.5 -240.5h-242q-11 144 -146 174v-290l120 -32q144 -40 217 -114.5t73 -199.5q0 -143 -104 -232q-103 -88 -284 -102 v-230h-150v230q-176 17 -284 108q-107 91 -118 252zM344 832q0 -50 38 -82t128 -58v266q-80 -4 -123 -37t-43 -89zM614 158q83 8 128.5 45t45.5 95q0 52 -41 85t-133 57v-282z" />
<glyph unicode="%" horiz-adv-x="1578" d="M64 808q0 89 26.5 155t71 102.5t96 53.5t108.5 17q58 0 110 -17t96.5 -53.5t71 -102.5t26.5 -155t-26.5 -155t-71 -102.5t-96 -53.5t-110.5 -17q-57 0 -108.5 17t-96 53.5t-71 102.5t-26.5 155zM240 808q0 -174 126 -174q128 0 128 174t-128 174q-126 0 -126 -174zM320 0 l744 1116h194l-744 -1116h-194zM908 308q0 89 26.5 155t71 102.5t96.5 53.5t110 17q57 0 108.5 -17t96 -53.5t71 -102.5t26.5 -155t-26.5 -155t-71 -102.5t-96 -53.5t-108.5 -17q-59 0 -110.5 17t-96 53.5t-71 102.5t-26.5 155zM1084 308q0 -174 128 -174q126 0 126 174 t-126 174q-128 0 -128 -174z" />
<glyph unicode="&#x26;" horiz-adv-x="1190" d="M60 288q0 63 22.5 115.5t66 92.5t86.5 67t105 57q-45 50 -88 117q-42 65 -42 147q0 107 85.5 179.5t236.5 72.5q156 0 243 -75.5t87 -190.5q0 -53 -17.5 -95.5t-54 -76t-73 -57t-93.5 -51.5l210 -234q68 114 68 260h202q-5 -217 -148 -396l200 -220h-282l-72 82 q-158 -102 -358 -102q-99 0 -175 25.5t-120.5 69.5t-66.5 98t-22 115zM302 316q0 -78 52.5 -116t145.5 -38q109 0 192 50l-252 292q-69 -37 -103.5 -80t-34.5 -108zM432 878q0 -40 21 -78t69 -94q62 36 90 70.5t28 85.5q0 56 -29 84t-79 28q-46 0 -73 -25.5t-27 -70.5z" />
<glyph unicode="'" horiz-adv-x="558" d="M144 1196h270l-104 -548h-62z" />
<glyph unicode="(" horiz-adv-x="654" d="M134 454q0 223 85 434t241 376h248q-182 -182 -266 -392t-84 -418t84 -418t266 -392h-248q-156 160 -241 374t-85 436z" />
<glyph unicode=")" horiz-adv-x="654" d="M-54 -356q182 182 266 392t84 418t-84 418t-266 392h248q156 -165 241 -376t85 -434q0 -222 -85 -436t-241 -374h-248z" />
<glyph unicode="*" horiz-adv-x="692" d="M28 918l40 126l228 -92l-16 244h132l-16 -244l228 92l40 -126l-236 -58l158 -190l-108 -76l-132 210l-132 -210l-108 76l158 190z" />
<glyph unicode="+" horiz-adv-x="1040" d="M118 384v188h302v308h198v-308h304v-188h-304v-310h-198v310h-302z" />
<glyph unicode="," horiz-adv-x="596" d="M146 -322l150 322h-130v264h264v-264l-156 -322h-128z" />
<glyph unicode="-" horiz-adv-x="712" d="M110 354v222h492v-222h-492z" />
<glyph unicode="." horiz-adv-x="596" d="M166 0v264h264v-264h-264z" />
<glyph unicode="/" horiz-adv-x="696" d="M-10 -128l516 1392h200l-516 -1392h-200z" />
<glyph unicode="0" horiz-adv-x="1152" d="M114 558q0 273 114 425.5t348 152.5t348 -152.5t114 -425.5t-114 -425.5t-348 -152.5t-348 152.5t-114 425.5zM368 558q0 -87 9.5 -152t32.5 -117.5t64.5 -79.5t101.5 -27t101.5 27t64.5 79.5t32.5 117.5t9.5 152t-9.5 152t-32.5 117.5t-64.5 79.5t-101.5 27t-101.5 -27 t-64.5 -79.5t-32.5 -117.5t-9.5 -152z" />
<glyph unicode="1" horiz-adv-x="724" d="M32 702v208q113 4 199 63q85 58 117 143h226v-1116h-256v802q-46 -44 -123.5 -72t-162.5 -28z" />
<glyph unicode="2" horiz-adv-x="952" d="M58 760q0 179 114 277.5t300 98.5q182 0 286 -90t104 -246q0 -121 -65 -207q-63 -83 -183 -167l-136 -94q-92 -62 -106 -128h502v-204h-788v82q0 144 67 241t173 167l134 90q68 46 114 93q46 46 46 125q0 73 -43 111.5t-117 38.5q-83 0 -126.5 -48.5t-45.5 -139.5h-230z " />
<glyph unicode="3" horiz-adv-x="966" d="M48 354h234q1 -101 55 -144q53 -42 129 -42q79 0 128.5 39.5t49.5 112.5q0 75 -52.5 114.5t-147.5 39.5h-98v178h98q85 0 131.5 37.5t46.5 110.5q0 69 -42.5 108.5t-115.5 39.5q-71 0 -121 -41q-49 -40 -51 -137h-234q0 172 113.5 269t298.5 97q180 0 287 -90t107 -230 q0 -84 -39 -149t-111 -101q82 -33 127 -100t45 -162q0 -144 -108 -234t-302 -90q-196 0 -312 96t-116 278z" />
<glyph unicode="4" horiz-adv-x="976" d="M20 220v162l534 734h226v-708h156v-188h-156v-220h-246v220h-514zM246 408h288v392z" />
<glyph unicode="5" horiz-adv-x="992" d="M86 354h234q2 -102 54 -144t128 -42q88 0 134 50t46 134q0 91 -51.5 140.5t-146.5 49.5q-107 0 -218 -78l-146 36l46 616h682v-204h-486l-18 -242q93 56 216 56q167 0 265.5 -102t98.5 -266q0 -171 -109.5 -274.5t-306.5 -103.5q-190 0 -306 98.5t-116 275.5z" />
<glyph unicode="6" horiz-adv-x="1070" d="M114 550q0 284 124.5 435t337.5 151q171 0 281.5 -96.5t110.5 -267.5h-234q0 78 -42 127t-118 49q-97 0 -151.5 -84t-58.5 -246q110 74 248 74q148 0 251 -92.5t103 -253.5q0 -167 -112.5 -266.5t-291.5 -99.5q-211 0 -329 145q-119 146 -119 425zM366 454 q18 -286 200 -286q75 0 118.5 46t43.5 126q0 85 -48.5 128.5t-129.5 43.5q-101 0 -184 -58z" />
<glyph unicode="7" horiz-adv-x="808" d="M18 912v204h770v-180q-170 -179 -239 -402t-69 -484v-50h-260v86q0 243 85 471.5t215 354.5h-502z" />
<glyph unicode="8" horiz-adv-x="1024" d="M84 304q0 91 47.5 158.5t132.5 101.5q-78 39 -118 105t-40 147q0 139 112 229.5t294 90.5t295 -90t113 -228q0 -82 -41 -148.5t-121 -105.5q85 -34 133.5 -102.5t48.5 -157.5q0 -144 -115 -234t-313 -90t-313 90t-115 234zM324 320q0 -73 51 -113.5t137 -40.5t137 40.5 t51 113.5q0 74 -50.5 115t-137.5 41q-85 0 -136.5 -41.5t-51.5 -114.5zM344 800q0 -71 44.5 -110.5t123.5 -39.5t123.5 39.5t44.5 110.5t-44.5 110.5t-123.5 39.5t-123.5 -39.5t-44.5 -110.5z" />
<glyph unicode="9" horiz-adv-x="1068" d="M102 344h234q0 -78 44 -127t122 -49q95 0 144.5 79t55.5 247q-98 -70 -234 -70q-157 0 -261.5 91.5t-104.5 254.5q0 167 112.5 266.5t291.5 99.5q209 0 328.5 -146t119.5 -434q0 -292 -121 -434t-329 -142q-187 0 -294.5 102.5t-107.5 261.5zM340 776q0 -85 48.5 -128.5 t129.5 -43.5q99 0 184 58q-9 147 -61.5 216.5t-138.5 69.5q-75 0 -118.5 -46t-43.5 -126z" />
<glyph unicode=":" horiz-adv-x="648" d="M192 0v264h264v-264h-264zM192 626v264h264v-264h-264z" />
<glyph unicode=";" horiz-adv-x="648" d="M172 -322l150 322h-130v264h264v-264l-156 -322h-128zM192 626v264h264v-264h-264z" />
<glyph unicode="&#x3c;" horiz-adv-x="1040" d="M130 384v146l780 392v-198l-540 -264l540 -264v-204z" />
<glyph unicode="=" horiz-adv-x="1040" d="M138 182v186h764v-186h-764zM138 588v186h764v-186h-764z" />
<glyph unicode="&#x3e;" horiz-adv-x="1040" d="M130 -8v198l540 264l-540 264v204l780 -392v-146z" />
<glyph unicode="?" horiz-adv-x="900" d="M52 758q0 180 109 279t291 99q177 0 272.5 -90t95.5 -218q0 -53 -17.5 -99.5t-50 -83.5t-56 -57t-57.5 -46q-8 -5 -11 -8q-50 -38 -73 -74.5t-23 -95.5v-12h-200v12q0 55 8 98.5t17.5 69.5t33.5 54.5t38 41t49 40.5q48 39 71 71t23 79q0 57 -35.5 90.5t-108.5 33.5 q-94 0 -130 -55t-36 -129h-210zM300 0v252h264v-252h-264z" />
<glyph unicode="@" horiz-adv-x="1878" d="M110 430q0 176 57.5 327t166 263.5t277.5 177t379 64.5q364 0 571 -182.5t207 -527.5q0 -254 -107.5 -413t-304.5 -159q-104 0 -156 42q-51 41 -62 96q-36 -48 -116 -93t-198 -45q-125 0 -205.5 62.5t-80.5 187.5q0 63 24 112t59 77.5t87 47.5t96 27t98 12l192 16v20 q0 94 -28 139t-114 45q-78 0 -111 -36t-35 -110h-232q1 78 26.5 137.5t64 95.5t92.5 58.5t106.5 30.5t112.5 8q198 0 281 -88t83 -258v-340q0 -74 60 -74q85 0 146.5 101.5t61.5 294.5q0 152 -43.5 264.5t-126 180.5t-193 100.5t-251.5 32.5q-337 0 -526.5 -178.5 t-189.5 -511.5q0 -326 182.5 -493t515.5 -167q141 0 268.5 27.5t193.5 58.5v-144q-62 -28 -195 -54t-271 -26q-170 0 -311 39t-242.5 110t-171.5 170t-103.5 218.5t-33.5 256.5zM784 248q0 -98 120 -98q101 0 190 72v166l-142 -16q-86 -10 -127 -39t-41 -85z" />
<glyph unicode="A" horiz-adv-x="1180" d="M40 0l410 1116h280l410 -1116h-266l-70 202h-438l-68 -202h-258zM428 394h314l-158 470z" />
<glyph unicode="B" horiz-adv-x="1166" d="M150 0v1116h464q203 0 309.5 -80.5t106.5 -231.5q0 -164 -142 -226q188 -58 188 -254q0 -157 -110.5 -240.5t-321.5 -83.5h-494zM404 200h210q120 0 160 37t40 101t-40 101t-160 37h-210v-276zM404 664h184q109 0 144 34q36 34 36 92t-36 92q-35 34 -144 34h-184v-252z " />
<glyph unicode="C" horiz-adv-x="1214" d="M110 558q0 267 134.5 422.5t385.5 155.5q211 0 348 -112t152 -312h-258q-6 83 -65 144q-59 60 -173 60q-61 0 -108 -20.5t-75.5 -54.5t-46.5 -81.5t-25 -96.5t-7 -105t7 -105t25 -96.5t46.5 -81.5t75.5 -54.5t108 -20.5q114 0 173 60q59 61 65 144h258 q-15 -200 -152 -312t-348 -112q-251 0 -385.5 155.5t-134.5 422.5z" />
<glyph unicode="D" horiz-adv-x="1224" d="M150 0v1116h398q280 0 423 -149.5t143 -408.5t-143 -408.5t-423 -149.5h-398zM404 208h140q308 0 308 350t-308 350h-140v-700z" />
<glyph unicode="E" d="M150 0v1116h800v-214h-546v-226h442v-214h-442v-248h546v-214h-800z" />
<glyph unicode="F" horiz-adv-x="1008" d="M150 0v1116h758v-214h-504v-226h424v-214h-424v-462h-254z" />
<glyph unicode="G" horiz-adv-x="1284" d="M110 556q0 128 31.5 229.5t82.5 166t121.5 107t144 60t154.5 17.5q128 0 233.5 -42t177 -129t87.5 -209h-254q-17 68 -72 116q-56 48 -164 48q-288 0 -288 -364q0 -180 71 -270t205 -90q122 0 187 54t75 130h-248v192h502v-572h-200v138q-106 -158 -344 -158 q-109 0 -199 34.5t-158.5 103.5t-106.5 181t-38 257z" />
<glyph unicode="H" horiz-adv-x="1258" d="M150 0v1116h254v-436h450v436h254v-1116h-254v460h-450v-460h-254z" />
<glyph unicode="I" horiz-adv-x="718" d="M78 0v164h154v788h-154v164h562v-164h-154v-788h154v-164h-562z" />
<glyph unicode="J" horiz-adv-x="1006" d="M64 358v102h252v-100q0 -94 37 -134t115 -40t115 40t37 134v538h-444v218h698v-750q0 -190 -92 -282q-104 -104 -314 -104q-404 0 -404 378z" />
<glyph unicode="K" horiz-adv-x="1142" d="M150 0v1116h254v-462l404 462h306l-400 -434l426 -682h-296l-302 496l-138 -150v-346h-254z" />
<glyph unicode="L" horiz-adv-x="940" d="M150 0v1116h254v-898h496v-218h-750z" />
<glyph unicode="M" horiz-adv-x="1424" d="M150 0v1116h312l258 -506l260 506h294v-1116h-242v786l-250 -488h-140l-250 488v-786h-242z" />
<glyph unicode="N" horiz-adv-x="1270" d="M150 0v1116h310l416 -786v786h244v-1116h-310l-416 786v-786h-244z" />
<glyph unicode="O" horiz-adv-x="1300" d="M110 558q0 267 138 422.5t402 155.5t402 -155.5t138 -422.5t-138 -422.5t-402 -155.5t-402 155.5t-138 422.5zM372 558q0 -57 7 -105.5t26.5 -96.5t49.5 -81.5t80 -54t115 -20.5t115 20.5t80 54t49.5 81.5t26.5 96.5t7 105.5t-7 105.5t-26.5 96.5t-49.5 81.5t-80 54 t-115 20.5t-115 -20.5t-80 -54t-49.5 -81.5t-26.5 -96.5t-7 -105.5z" />
<glyph unicode="P" horiz-adv-x="1120" d="M150 0v1116h390q237 0 371 -91q135 -91 135 -287t-135 -287q-134 -91 -371 -91h-136v-360h-254zM404 568h134q132 0 188 39t56 131q0 91 -56.5 130.5t-187.5 39.5h-134v-340z" />
<glyph unicode="Q" horiz-adv-x="1306" d="M110 558q0 267 138 422.5t402 155.5t402 -155.5t138 -422.5q0 -237 -116 -388l134 -134l-152 -150l-148 148q-116 -54 -258 -54q-264 0 -402 155.5t-138 422.5zM372 558q0 -57 7 -106t26.5 -98t49.5 -83t80 -55.5t115 -21.5q50 0 92 12l-134 134l148 146l138 -140 q34 84 34 212q0 57 -7 105.5t-26.5 96.5t-49.5 81.5t-80 54t-115 20.5t-115 -20.5t-80 -54t-49.5 -81.5t-26.5 -96.5t-7 -105.5z" />
<glyph unicode="R" horiz-adv-x="1164" d="M150 0v1116h390q237 0 371 -91q135 -91 135 -287q0 -131 -65 -210q-65 -78 -167 -116l284 -412h-292l-232 360h-170v-360h-254zM404 568h134q132 0 188 39t56 131q0 91 -56.5 130.5t-187.5 39.5h-134v-340z" />
<glyph unicode="S" horiz-adv-x="1090" d="M84 344h258q7 -89 77 -130q68 -40 161 -40q89 0 138.5 34t49.5 92q0 47 -34.5 79t-111.5 53l-224 60q-288 79 -288 316q0 69 23.5 125t64 93t96 62.5t117 36.5t129.5 11q190 0 312 -91t134 -265h-256q-6 87 -66 125q-59 37 -140 37q-77 0 -118.5 -30.5t-41.5 -85.5 q0 -46 32.5 -76.5t111.5 -51.5l224 -60q134 -36 212 -111t78 -207q0 -91 -38 -158.5t-104 -106t-144.5 -57t-169.5 -18.5q-211 0 -339 94q-130 95 -143 270z" />
<glyph unicode="T" horiz-adv-x="966" d="M34 898v218h898v-218h-322v-898h-254v898h-322z" />
<glyph unicode="U" horiz-adv-x="1224" d="M132 422v694h254v-668q0 -138 55 -193t171 -55t171 55t55 193v668h254v-694q0 -232 -128 -337t-352 -105q-226 0 -353 105t-127 337z" />
<glyph unicode="V" horiz-adv-x="1104" d="M22 1116h264l270 -846l270 846h256l-386 -1116h-288z" />
<glyph unicode="W" horiz-adv-x="1648" d="M52 1116h244l200 -798l206 798h252l208 -798l198 798h236l-304 -1116h-254l-214 810l-214 -810h-254z" />
<glyph unicode="X" horiz-adv-x="1110" d="M28 0l380 574l-360 542h290l222 -342l220 342h276l-358 -538l384 -578h-288l-246 382l-244 -382h-276z" />
<glyph unicode="Y" horiz-adv-x="1070" d="M0 1116h278l262 -464l262 464h268l-408 -690v-426h-254v426z" />
<glyph unicode="Z" horiz-adv-x="1042" d="M82 0v204l546 694h-530v218h844v-204l-548 -694h570v-218h-882z" />
<glyph unicode="[" horiz-adv-x="626" d="M170 -356v1620h442v-168h-228v-1284h228v-168h-442z" />
<glyph unicode="\" horiz-adv-x="696" d="M-10 1264h200l516 -1392h-200z" />
<glyph unicode="]" horiz-adv-x="626" d="M14 -188h228v1284h-228v168h442v-1620h-442v168z" />
<glyph unicode="^" horiz-adv-x="884" d="M50 500l320 616h144l320 -616h-202l-194 386l-192 -386h-196z" />
<glyph unicode="_" horiz-adv-x="912" d="M54 0h804v-186h-804v186z" />
<glyph unicode="`" horiz-adv-x="852" d="M226 1338h260l140 -290h-112z" />
<glyph unicode="a" horiz-adv-x="1014" d="M66 230q0 63 24 112t59 77.5t87 47.5t96 27t98 12l192 16v20q0 94 -28 139t-114 45q-78 0 -111 -36t-35 -110h-232q1 78 26.5 137.5t64 95.5t92.5 58.5t106.5 30.5t112.5 8q198 0 281 -88t83 -258v-344q0 -27 10.5 -39.5t37.5 -12.5q39 0 70 18v-168q-58 -38 -158 -38 q-162 0 -162 130v10q-36 -50 -116 -95t-198 -45q-125 0 -205.5 62.5t-80.5 187.5zM312 248q0 -98 120 -98q101 0 190 72v166l-142 -16q-86 -10 -127 -39t-41 -85z" />
<glyph unicode="b" horiz-adv-x="1064" d="M124 0v1324h248v-516q94 102 240 102q73 0 137.5 -26t119.5 -78.5t87 -144.5t32 -213t-32.5 -214t-88 -147t-121 -80.5t-138.5 -26.5q-106 0 -171 41q-63 40 -93 85v-106h-220zM372 244q60 -60 162 -60q202 0 202 260q0 128 -50.5 195t-151.5 67q-102 0 -162 -60v-402z " />
<glyph unicode="c" horiz-adv-x="990" d="M76 446q0 105 26.5 188t69.5 133.5t102 83.5t118.5 46t125.5 13q172 0 283 -90t123 -260h-244q-4 65 -46.5 106.5t-117.5 41.5q-188 0 -188 -262q0 -264 188 -264q75 0 117.5 41.5t46.5 106.5h244q-12 -170 -123 -260t-283 -90q-65 0 -124.5 13.5t-119 47t-102.5 84.5 t-69.5 133.5t-26.5 187.5z" />
<glyph unicode="d" horiz-adv-x="1064" d="M76 442q0 121 32.5 214t88 147t121 80.5t138.5 26.5q148 0 236 -104v518h248v-1324h-220v106q-30 -45 -93 -85q-65 -41 -171 -41q-74 0 -140 26t-121 78.5t-87 144.5t-32 213zM328 446q0 -128 50.5 -195t151.5 -67q102 0 162 60v402q-60 60 -162 60q-202 0 -202 -260z " />
<glyph unicode="e" horiz-adv-x="1006" d="M76 446q0 103 25.5 185t67 133t98.5 85t115.5 47.5t123.5 13.5q64 0 121.5 -13t115.5 -46t99.5 -83.5t67.5 -133.5t26 -188v-36h-618q7 -244 198 -244q75 0 120.5 35t55.5 99h240q-11 -72 -42.5 -129t-74 -92t-96.5 -58t-105 -32t-104 -9q-67 0 -127.5 14.5t-117.5 48.5 t-98 86.5t-66 133.5t-25 183zM322 544h368q-22 186 -184 186q-164 0 -184 -186z" />
<glyph unicode="f" horiz-adv-x="580" d="M14 706v184h128v148q0 140 73.5 223t226.5 83q84 0 122 -20v-190q-33 10 -70 10q-57 0 -80.5 -30t-23.5 -90v-134h174v-184h-174v-706h-248v706h-128z" />
<glyph unicode="g" horiz-adv-x="1030" d="M50 -178q0 72 46 114t104 64q-49 22 -81.5 63.5t-32.5 96.5q0 109 142 174q-132 91 -132 250q0 68 24.5 124t64.5 92.5t92 62t105 36.5t106 11q78 0 162 -27q85 -27 144 -85q72 112 236 112v-216q-113 0 -160 -24q12 -65 12 -86q0 -68 -24.5 -124t-64.5 -92.5t-92 -62 t-105 -36.5t-106 -11q-80 0 -158 24q-52 -25 -52 -70q0 -70 134 -70h228q97 0 170 -23.5t120.5 -81t47.5 -145.5q0 -152 -130 -230t-358 -78q-212 0 -327 64t-115 174zM260 -144q0 -116 240 -116q246 0 246 120q0 44 -35 64t-113 20h-282q-56 -25 -56 -88zM328 584 q0 -70 43.5 -111t118.5 -41t117.5 41t42.5 111t-43.5 111t-118.5 41t-117.5 -41t-42.5 -111z" />
<glyph unicode="h" horiz-adv-x="1054" d="M124 0v1324h248v-536q34 48 97 85q62 37 171 37q300 0 300 -360v-550h-248v506q0 96 -30 144t-120 48q-110 0 -170 -66v-632h-248z" />
<glyph unicode="i" horiz-adv-x="500" d="M120 1104v220h260v-220h-260zM126 0v890h248v-890h-248z" />
<glyph unicode="j" horiz-adv-x="516" d="M-34 -206q38 -10 70 -10q55 0 76.5 30t21.5 90v986h248v-1000q0 -141 -71 -223.5t-223 -82.5q-84 0 -122 20v190zM128 1104v220h260v-220h-260z" />
<glyph unicode="k" horiz-adv-x="994" d="M124 0v1324h248v-808l330 374h274l-322 -346l326 -544h-286l-210 378l-112 -122v-256h-248z" />
<glyph unicode="l" horiz-adv-x="496" d="M124 0v1324h248v-1324h-248z" />
<glyph unicode="m" horiz-adv-x="1558" d="M124 0v890h220v-116q82 136 272 136q71 0 139 -28t109 -108q94 136 286 136q294 0 294 -360v-550h-248v506q0 93 -26 143q-25 49 -108 49q-98 0 -158 -66q4 -36 4 -82v-550h-248v506q0 95 -26 144q-26 48 -108 48q-98 0 -154 -66v-632h-248z" />
<glyph unicode="n" horiz-adv-x="1054" d="M124 0v890h220v-116q87 136 290 136q306 0 306 -360v-550h-248v506q0 96 -30 144t-120 48q-110 0 -170 -66v-632h-248z" />
<glyph unicode="o" d="M76 446v7q0 100 26 180q27 82 70.5 133t103.5 84t121 46.5t127 13.5t127 -13.5t121 -46.5t103.5 -84t70.5 -133q26 -79 26 -180v-7.5v-6.5q0 -101 -26 -181q-27 -82 -70.5 -133t-103.5 -84.5t-121 -47t-127 -13.5t-127 13.5t-121 47t-103.5 84.5t-70.5 133 q-26 80 -26 181v7zM328 446q0 -264 196 -264t196 264q0 262 -196 262t-196 -262z" />
<glyph unicode="p" horiz-adv-x="1064" d="M124 -396v1286h220v-106q30 45 93 85q65 41 171 41q74 0 140 -26t121 -78.5t87 -144.5t32 -213t-32.5 -214t-88 -147t-121 -80.5t-138.5 -26.5q-86 0 -146 32t-90 72v-480h-248zM372 244q60 -60 162 -60q202 0 202 260q0 128 -50.5 195t-151.5 67q-102 0 -162 -60v-402z " />
<glyph unicode="q" horiz-adv-x="1064" d="M76 442q0 121 32.5 214t88 147t121 80.5t138.5 26.5q106 0 171 -41q63 -40 93 -85v106h220v-1286h-248v480q-30 -40 -90 -72t-146 -32q-74 0 -140 26t-121 78.5t-87 144.5t-32 213zM328 446q0 -128 50.5 -195t151.5 -67q102 0 162 60v402q-60 60 -162 60 q-202 0 -202 -260z" />
<glyph unicode="r" horiz-adv-x="702" d="M124 0v890h220v-122q73 142 234 142q54 0 106 -20v-212q-57 26 -128 26q-129 0 -184 -72v-632h-248z" />
<glyph unicode="s" horiz-adv-x="950" d="M68 290h244q4 -64 53 -104t127 -40q63 0 101.5 26.5t38.5 73.5q0 21 -9 36.5t-22.5 25t-40.5 19.5t-51 16t-67 16.5t-76 20.5q-41 11 -74 22.5t-70.5 33t-62 48t-41 67.5t-16.5 91q0 71 31 124.5t84.5 84t116 45t134.5 14.5q161 0 262.5 -71t113.5 -209h-244 q-4 52 -41 83t-97 31q-49 0 -81.5 -22.5t-32.5 -61.5q0 -20 10 -35t24.5 -25t42.5 -19t52.5 -14.5t66 -15.5t72.5 -19q57 -16 98 -34t81.5 -48.5t61.5 -77t21 -108.5q0 -76 -33.5 -133t-90.5 -89t-123.5 -47t-142.5 -15q-179 0 -293.5 79.5t-126.5 230.5z" />
<glyph unicode="t" horiz-adv-x="692" d="M10 706v184h80q56 0 78 22.5t22 77.5v162h196v-262h262v-184h-262v-394q0 -70 27.5 -102t100.5 -32q71 0 120 20v-188q-25 -11 -77 -20.5t-107 -9.5q-88 0 -150 22t-96.5 64.5t-50 95.5t-15.5 122v422h-128z" />
<glyph unicode="u" horiz-adv-x="1044" d="M114 340v550h248v-504q0 -96 28 -145t116 -49q106 0 166 66v632h248v-890h-218v118q-37 -57 -104 -97q-68 -41 -182 -41q-48 0 -89 8.5t-81.5 32.5t-68.5 63t-45.5 104.5t-17.5 151.5z" />
<glyph unicode="v" horiz-adv-x="956" d="M26 890h266l198 -634l198 634h242l-314 -890h-276z" />
<glyph unicode="w" horiz-adv-x="1446" d="M34 890h248l160 -636l160 636h256l160 -636l160 636h234l-270 -890h-264l-156 602l-156 -602h-262z" />
<glyph unicode="x" horiz-adv-x="944" d="M4 0l334 460l-302 430h290l160 -242l154 242h266l-300 -416l334 -474h-288l-192 286l-190 -286h-266z" />
<glyph unicode="y" horiz-adv-x="956" d="M26 890h266l198 -634l198 634h242l-352 -996q-20 -54 -36 -89.5t-46.5 -81.5t-64.5 -73t-88 -46.5t-119 -19.5q-66 0 -130 20v198q61 -18 102 -18q48 0 79.5 23t52.5 79l28 76z" />
<glyph unicode="z" horiz-adv-x="896" d="M72 0v158l430 544h-420v188h730v-158l-430 -544h440v-188h-750z" />
<glyph unicode="{" horiz-adv-x="674" d="M70 368v172q92 0 132 38t40 136v206q0 200 95 277t337 77v-174q-67 0 -102.5 -6t-64.5 -27t-39 -62.5t-10 -112.5v-206q0 -85 -41.5 -147t-122.5 -85q81 -23 122.5 -85t41.5 -147v-206q0 -49 4.5 -83t16.5 -57t26.5 -36.5t42 -20.5t54.5 -9t72 -2v-174q-242 0 -337 77 t-95 277v206q0 98 -40 136t-132 38z" />
<glyph unicode="|" horiz-adv-x="538" d="M170 -356v1620h198v-1620h-198z" />
<glyph unicode="}" horiz-adv-x="674" d="M0 -192q45 0 72 2t54.5 9t42 20.5t26.5 36.5t16.5 57t4.5 83v206q0 85 41.5 147t122.5 85q-81 23 -122.5 85t-41.5 147v206q0 71 -10 112.5t-39 62.5t-64.5 27t-102.5 6v174q242 0 337 -77t95 -277v-206q0 -98 40 -136t132 -38v-172q-92 0 -132 -38t-40 -136v-206 q0 -200 -95 -277t-337 -77v174z" />
<glyph unicode="~" horiz-adv-x="1040" d="M106 308q0 344 238 344q103 0 205 -85q7 -6 33 -29t36.5 -30.5t29.5 -16.5t36 -9q80 0 80 154h170q0 -344 -238 -344q-103 0 -205 85q-7 6 -33 29t-36.5 30.5t-29.5 16.5t-36 9q-80 0 -80 -154h-170z" />
<glyph unicode="&#xa1;" horiz-adv-x="596" d="M166 625v264h264v-264h-264zM172 161l96 370h60l96 -370v-388h-252v388z" />
<glyph unicode="&#xa2;" horiz-adv-x="998" d="M76 446q0 91 20.5 165t54.5 124t82 86t98.5 55t108.5 28v232h150v-230q144 -16 237 -105q93 -88 105 -241h-226q-4 59 -41 103.5t-99 58.5v-552q62 12 99 56t41 104h226q-12 -153 -105 -242q-92 -87 -237 -104v-230h-150v232q-58 9 -108.5 28t-98.5 55t-82 86.5 t-54.5 125t-20.5 165.5zM312 446q0 -233 152 -274v546q-152 -36 -152 -272z" />
<glyph unicode="&#xa3;" horiz-adv-x="998" d="M68 0v156q107 24 157 90q49 65 49 148q0 5 -1 14.5t-1 15.5h-166v154h102q-33 50 -64 106q-30 54 -30 130q0 136 111 229t297 93q81 0 150 -19.5t128 -61t95.5 -114.5t42.5 -171h-242q-5 105 -53 146q-49 42 -117 42q-75 0 -118.5 -42t-43.5 -112q0 -20 4 -41.5 t8.5 -36.5t15.5 -39t16 -34.5t20.5 -38.5t19.5 -36h310v-154h-254q0 -6 1 -14t1 -14q0 -57 -27 -110t-73 -92h546v-194h-884z" />
<glyph unicode="&#xa4;" horiz-adv-x="1040" d="M54 212l136 136q-54 98 -54 210t54 210l-136 136l122 122l136 -136q89 54 208 54t208 -54l136 136l122 -122l-136 -136q54 -98 54 -210t-54 -210l136 -136l-122 -122l-136 136q-89 -54 -208 -54t-208 54l-136 -136zM342 558q0 -92 48 -147t130 -55t130 55t48 147t-48 147 t-130 55t-130 -55t-48 -147z" />
<glyph unicode="&#xa5;" horiz-adv-x="1102" d="M26 1116h278l252 -478l252 478h268l-318 -550h224v-142h-304v-120h304v-142h-304v-162h-254v162h-304v142h304v120h-304v142h222z" />
<glyph unicode="&#xa6;" horiz-adv-x="538" d="M170 286h198v-642h-198v642zM170 622v642h198v-642h-198z" />
<glyph unicode="&#xa7;" horiz-adv-x="1034" d="M64 502q0 144 156 210q-64 70 -64 160q0 88 52 149t132.5 88t181.5 27q173 0 269.5 -78t106.5 -232h-206q-13 154 -178 154q-63 0 -101.5 -24t-38.5 -70q0 -43 34 -73t102 -59l254 -108q206 -83 206 -244q0 -61 -32 -117q-31 -55 -122 -93q62 -66 62 -160 q0 -57 -20.5 -103t-55.5 -78t-84 -53.5t-105.5 -31.5t-120.5 -10q-169 0 -281 83q-110 82 -121 241h206q4 -78 56 -123t148 -45q76 0 121 27.5t45 78.5q0 43 -34.5 72t-105.5 60l-254 108q-208 79 -208 244zM272 548q0 -86 120 -136l248 -104q50 -19 82 -48q40 40 40 96 q0 86 -120 136l-246 104q-50 19 -82 48q-42 -38 -42 -96z" />
<glyph unicode="&#xa8;" horiz-adv-x="852" d="M118 1088v206h224v-206h-224zM510 1088v206h224v-206h-224z" />
<glyph unicode="&#xa9;" horiz-adv-x="1360" d="M110 558q0 259 157 418.5t413 159.5t413 -159.5t157 -418.5t-157 -418.5t-413 -159.5t-413 159.5t-157 418.5zM224 558q0 -211 126 -340.5t330 -129.5t330 129.5t126 340.5q0 209 -126 339.5t-330 130.5t-330 -130.5t-126 -339.5zM360 558q0 79 19.5 141.5t51 101 t75 63.5t87.5 34.5t93 9.5q126 0 208 -66q81 -65 92 -192h-180q-4 48 -35.5 78t-86.5 30q-140 0 -140 -200q0 -97 35.5 -148.5t104.5 -51.5q55 0 86.5 30t35.5 78h180q-11 -127 -92 -192q-82 -66 -208 -66q-49 0 -93 10t-87.5 35t-75 63.5t-51 100.5t-19.5 141z" />
<glyph unicode="&#xaa;" horiz-adv-x="768" d="M96 710q0 40 15.5 70.5t36.5 47.5t55.5 29t60.5 16.5t64 8.5l118 10v14q0 58 -16 84t-66 26q-44 0 -63 -22t-21 -64h-160q6 206 262 206q134 0 185 -58t51 -160v-214q0 -30 28 -30q15 0 46 12v-108q-39 -24 -106 -24q-66 0 -88 25t-22 57v4q-19 -28 -70 -57 q-50 -29 -126 -29q-77 0 -130 37q-54 37 -54 119zM120 304v138h536v-138h-536zM268 724q0 -60 70 -60q61 0 108 44v98l-70 -8q-60 -8 -84 -26t-24 -48z" />
<glyph unicode="&#xab;" horiz-adv-x="990" d="M116 466l238 318h188l-220 -318l220 -318h-188zM460 466l238 318h188l-220 -318l220 -318h-188z" />
<glyph unicode="&#xac;" horiz-adv-x="1040" d="M118 384v188h788v-572h-200v384h-588z" />
<glyph unicode="&#xad;" horiz-adv-x="712" d="M110 354v222h492v-222h-492z" />
<glyph unicode="&#xae;" horiz-adv-x="1056" d="M90 868q0 89 26.5 165.5t79 136.5t138 94t194.5 34t194.5 -34t138 -94t79 -136.5t26.5 -165.5q0 -90 -26.5 -166.5t-79 -136t-137.5 -93.5t-195 -34t-195 34t-137.5 93.5t-79 136t-26.5 166.5zM186 868q0 -153 85 -248.5t257 -95.5t257 95.5t85 248.5t-85 248.5 t-257 95.5t-257 -95.5t-85 -248.5zM348 622v494h176q206 0 206 -162q0 -108 -110 -142l138 -190h-132l-118 174h-42v-174h-118zM466 888h46q53 0 76.5 14.5t23.5 51.5q0 36 -24 51t-76 15h-46v-132z" />
<glyph unicode="&#xaf;" horiz-adv-x="852" d="M150 1112v160h552v-160h-552z" />
<glyph unicode="&#xb0;" horiz-adv-x="668" d="M50 854q0 123 83.5 202.5t200.5 79.5t200.5 -79.5t83.5 -202.5t-83 -202.5t-201 -79.5t-201 79.5t-83 202.5zM192 854q0 -68 39.5 -109t102.5 -41t102.5 41t39.5 109t-39.5 109t-102.5 41t-102.5 -41t-39.5 -109z" />
<glyph unicode="&#xb1;" horiz-adv-x="1040" d="M118 598v188h302v308h198v-308h304v-188h-304v-310h-198v310h-302zM122 0v182h796v-182h-796z" />
<glyph unicode="&#xb2;" horiz-adv-x="696" d="M102 902q0 109 72 167.5t176 58.5q98 0 164 -53.5t66 -150.5q0 -54 -24.5 -99.5t-52 -70t-75.5 -58.5l-68 -48q-31 -21 -48 -38.5t-22 -41.5h298v-122h-476v46q0 100 45 159q47 61 103 97l74 48q47 31 67.5 55.5t20.5 66.5q0 43 -22 64.5t-60 21.5q-40 0 -65 -24t-25 -78 h-148z" />
<glyph unicode="&#xb3;" horiz-adv-x="706" d="M100 660h148q0 -106 102 -106q45 0 70.5 22.5t25.5 63.5q0 88 -112 88h-54v110h54q98 0 98 84q0 86 -86 86q-90 0 -90 -102h-146q0 107 71.5 164.5t178.5 57.5q103 0 165 -52q63 -52 63 -140q0 -93 -86 -146q100 -48 100 -158q0 -91 -65.5 -144.5t-178.5 -53.5 q-110 0 -184 56t-74 170z" />
<glyph unicode="&#xb4;" horiz-adv-x="852" d="M226 1048l140 290h260l-288 -290h-112z" />
<glyph unicode="&#xb5;" d="M124 -396v1286h248v-632q60 -66 166 -66q88 0 118 49t30 145v504h248v-550q0 -85 -18 -150t-46.5 -104t-69.5 -63.5t-81 -33.5t-87 -9q-105 0 -166 37q-64 39 -94 83v-496h-248z" />
<glyph unicode="&#xb6;" horiz-adv-x="1142" d="M84 770q0 176 100 261t264 85h172v-1512h-172v820q-163 0 -264 86q-100 85 -100 260zM810 -396v1512h172v-1512h-172z" />
<glyph unicode="&#xb7;" horiz-adv-x="616" d="M176 326v264h264v-264h-264z" />
<glyph unicode="&#xb8;" horiz-adv-x="852" d="M232 -240h114q7 -60 68 -60q35 0 55.5 18.5t20.5 53.5q0 38 -22 57t-58 19q-54 0 -84 -36l-70 30l58 158h76l-36 -100q40 26 100 26q77 0 121.5 -42.5t44.5 -111.5q0 -80 -57 -122t-141 -42q-82 0 -132 39t-58 113z" />
<glyph unicode="&#xb9;" horiz-adv-x="564" d="M84 854v138q71 0 119 37t73 87h138v-670h-154v476q-25 -28 -71 -48t-105 -20z" />
<glyph unicode="&#xba;" horiz-adv-x="764" d="M90 844q0 81 25.5 140.5t69 91t92.5 46t105 14.5t105 -14.5t92.5 -46t69 -91t25.5 -140.5q0 -80 -25.5 -139t-69 -90.5t-92.5 -46t-105 -14.5t-105 14.5t-92.5 46t-69 90.5t-25.5 139zM114 304v138h536v-138h-536zM264 844q0 -150 118 -150t118 150q0 152 -118 152 t-118 -152z" />
<glyph unicode="&#xbb;" horiz-adv-x="990" d="M104 148l220 318l-220 318h188l238 -318l-238 -318h-188zM448 148l220 318l-220 318h188l238 -318l-238 -318h-188z" />
<glyph unicode="&#xbc;" horiz-adv-x="1414" d="M84 854v138q71 0 119 37t73 87h138v-670h-154v476q-25 -28 -71 -48t-105 -20zM228 0l744 1116h166l-744 -1116h-166zM776 136v98l322 438h148v-424h82v-112h-82v-134h-152v134h-318zM908 248h186v254z" />
<glyph unicode="&#xbd;" horiz-adv-x="1470" d="M84 854v138q71 0 119 37t73 87h138v-670h-154v476q-25 -28 -71 -48t-105 -20zM228 0l744 1116h166l-744 -1116h-166zM876 458q0 109 72 167.5t176 58.5q98 0 164 -53.5t66 -150.5q0 -54 -24.5 -99.5t-52 -70t-75.5 -58.5l-68 -48q-31 -21 -48 -38.5t-22 -41.5h298v-122 h-476v46q0 100 45 159q47 61 103 97l74 48q47 31 67.5 55.5t20.5 66.5q0 43 -22 64.5t-60 21.5q-40 0 -65 -24t-25 -78h-148z" />
<glyph unicode="&#xbe;" horiz-adv-x="1538" d="M100 660h148q0 -106 102 -106q45 0 70.5 22.5t25.5 63.5q0 88 -112 88h-54v110h54q98 0 98 84q0 86 -86 86q-90 0 -90 -102h-146q0 107 71.5 164.5t178.5 57.5q103 0 165 -52q63 -52 63 -140q0 -93 -86 -146q100 -48 100 -158q0 -91 -65.5 -144.5t-178.5 -53.5 q-110 0 -184 56t-74 170zM352 0l744 1116h166l-744 -1116h-166zM900 136v98l322 438h148v-424h82v-112h-82v-134h-152v134h-318zM1032 248h186v254z" />
<glyph unicode="&#xbf;" horiz-adv-x="900" d="M79 62q0 53 17 99.5t50.5 84t54.5 56t58 45.5l12 9q50 38 73 74.5t23 95.5v12h200v-12q0 -55 -8 -98t-18 -69.5t-33 -54.5t-38 -41t-49 -41q-48 -39 -71 -71t-23 -79q0 -57 35.5 -90.5t108.5 -33.5q94 0 130 55t36 129h210q0 -180 -109 -279q-110 -99 -291 -99 q-177 0 -272.5 90t-95.5 218zM335 638v252h264v-252h-264z" />
<glyph unicode="&#xc0;" horiz-adv-x="1180" d="M40 0l410 1116h280l410 -1116h-266l-70 202h-438l-68 -202h-258zM302 1552h260l140 -290h-112zM428 394h314l-158 470z" />
<glyph unicode="&#xc1;" horiz-adv-x="1180" d="M40 0l410 1116h280l410 -1116h-266l-70 202h-438l-68 -202h-258zM428 394h314l-158 470zM478 1262l140 290h260l-288 -290h-112z" />
<glyph unicode="&#xc2;" horiz-adv-x="1180" d="M40 0l410 1116h280l410 -1116h-266l-70 202h-438l-68 -202h-258zM274 1256l244 298h144l244 -298h-126l-190 126l-190 -126h-126zM428 394h314l-158 470z" />
<glyph unicode="&#xc3;" horiz-adv-x="1180" d="M40 0l410 1116h280l410 -1116h-266l-70 202h-438l-68 -202h-258zM282 1306v136q23 42 67.5 71t96.5 29q47 0 93 -19t76 -41t67.5 -41t69.5 -19q82 0 146 78v-136q-23 -42 -67.5 -71t-96.5 -29q-47 0 -93 19t-76 41t-67.5 41t-69.5 19q-82 0 -146 -78zM428 394h314 l-158 470z" />
<glyph unicode="&#xc4;" horiz-adv-x="1180" d="M40 0l410 1116h280l410 -1116h-266l-70 202h-438l-68 -202h-258zM282 1302v206h224v-206h-224zM428 394h314l-158 470zM674 1302v206h224v-206h-224z" />
<glyph unicode="&#xc5;" horiz-adv-x="1180" d="M40 0l410 1116h280l410 -1116h-266l-70 202h-438l-68 -202h-258zM362 1452q0 104 68 167t160 63t160 -63t68 -167t-68 -167t-160 -63t-160 63t-68 167zM428 394h314l-158 470zM480 1452q0 -56 30.5 -87t79.5 -31t79.5 31t30.5 87t-30.5 87t-79.5 31t-79.5 -31t-30.5 -87z " />
<glyph unicode="&#xc6;" horiz-adv-x="1668" d="M-22 0l656 1116h936v-214h-546v-226h442v-214h-442v-248h546v-214h-800v202h-402l-118 -202h-272zM466 394h304v512h-8z" />
<glyph unicode="&#xc7;" horiz-adv-x="1214" d="M110 558q0 267 134.5 422.5t385.5 155.5q211 0 348 -112t152 -312h-258q-6 83 -65 144q-59 60 -173 60q-61 0 -108 -20.5t-75.5 -54.5t-46.5 -81.5t-25 -96.5t-7 -105t7 -105t25 -96.5t46.5 -81.5t75.5 -54.5t108 -20.5q114 0 173 60q59 61 65 144h258 q-15 -200 -152 -312t-348 -112q-251 0 -385.5 155.5t-134.5 422.5zM464 -240h114q7 -60 68 -60q35 0 55.5 18.5t20.5 53.5q0 38 -22 57t-58 19q-54 0 -84 -36l-70 30l58 158h76l-36 -100q40 26 100 26q77 0 121.5 -42.5t44.5 -111.5q0 -80 -57 -122t-141 -42q-82 0 -132 39 t-58 113z" />
<glyph unicode="&#xc8;" d="M150 0v1116h800v-214h-546v-226h442v-214h-442v-248h546v-214h-800zM256 1552h260l140 -290h-112z" />
<glyph unicode="&#xc9;" d="M150 0v1116h800v-214h-546v-226h442v-214h-442v-248h546v-214h-800zM432 1262l140 290h260l-288 -290h-112z" />
<glyph unicode="&#xca;" d="M150 0v1116h800v-214h-546v-226h442v-214h-442v-248h546v-214h-800zM228 1256l244 298h144l244 -298h-126l-190 126l-190 -126h-126z" />
<glyph unicode="&#xcb;" d="M150 0v1116h800v-214h-546v-226h442v-214h-442v-248h546v-214h-800zM236 1302v206h224v-206h-224zM628 1302v206h224v-206h-224z" />
<glyph unicode="&#xcc;" horiz-adv-x="718" d="M72 1552h260l140 -290h-112zM78 0v164h154v788h-154v164h562v-164h-154v-788h154v-164h-562z" />
<glyph unicode="&#xcd;" horiz-adv-x="718" d="M78 0v164h154v788h-154v164h562v-164h-154v-788h154v-164h-562zM246 1262l140 290h260l-288 -290h-112z" />
<glyph unicode="&#xce;" horiz-adv-x="718" d="M44 1256l244 298h144l244 -298h-126l-190 126l-190 -126h-126zM78 0v164h154v788h-154v164h562v-164h-154v-788h154v-164h-562z" />
<glyph unicode="&#xcf;" horiz-adv-x="718" d="M52 1302v206h224v-206h-224zM78 0v164h154v788h-154v164h562v-164h-154v-788h154v-164h-562zM444 1302v206h224v-206h-224z" />
<glyph unicode="&#xd0;" horiz-adv-x="1244" d="M46 488v166h124v462h398q280 0 423 -149.5t143 -408.5t-143 -408.5t-423 -149.5h-398v488h-124zM424 208h140q308 0 308 350t-308 350h-140v-254h182v-166h-182v-280z" />
<glyph unicode="&#xd1;" horiz-adv-x="1270" d="M150 0v1116h310l416 -786v786h244v-1116h-310l-416 786v-786h-244zM328 1306v136q23 42 67.5 71t96.5 29q47 0 93 -19t76 -41t67.5 -41t69.5 -19q82 0 146 78v-136q-23 -42 -67.5 -71t-96.5 -29q-47 0 -93 19t-76 41t-67.5 41t-69.5 19q-82 0 -146 -78z" />
<glyph unicode="&#xd2;" horiz-adv-x="1300" d="M110 558q0 267 138 422.5t402 155.5t402 -155.5t138 -422.5t-138 -422.5t-402 -155.5t-402 155.5t-138 422.5zM362 1552h260l140 -290h-112zM372 558q0 -57 7 -105.5t26.5 -96.5t49.5 -81.5t80 -54t115 -20.5t115 20.5t80 54t49.5 81.5t26.5 96.5t7 105.5t-7 105.5 t-26.5 96.5t-49.5 81.5t-80 54t-115 20.5t-115 -20.5t-80 -54t-49.5 -81.5t-26.5 -96.5t-7 -105.5z" />
<glyph unicode="&#xd3;" horiz-adv-x="1300" d="M110 558q0 267 138 422.5t402 155.5t402 -155.5t138 -422.5t-138 -422.5t-402 -155.5t-402 155.5t-138 422.5zM372 558q0 -57 7 -105.5t26.5 -96.5t49.5 -81.5t80 -54t115 -20.5t115 20.5t80 54t49.5 81.5t26.5 96.5t7 105.5t-7 105.5t-26.5 96.5t-49.5 81.5t-80 54 t-115 20.5t-115 -20.5t-80 -54t-49.5 -81.5t-26.5 -96.5t-7 -105.5zM538 1262l140 290h260l-288 -290h-112z" />
<glyph unicode="&#xd4;" horiz-adv-x="1300" d="M110 558q0 267 138 422.5t402 155.5t402 -155.5t138 -422.5t-138 -422.5t-402 -155.5t-402 155.5t-138 422.5zM334 1256l244 298h144l244 -298h-126l-190 126l-190 -126h-126zM372 558q0 -57 7 -105.5t26.5 -96.5t49.5 -81.5t80 -54t115 -20.5t115 20.5t80 54t49.5 81.5 t26.5 96.5t7 105.5t-7 105.5t-26.5 96.5t-49.5 81.5t-80 54t-115 20.5t-115 -20.5t-80 -54t-49.5 -81.5t-26.5 -96.5t-7 -105.5z" />
<glyph unicode="&#xd5;" horiz-adv-x="1300" d="M110 558q0 267 138 422.5t402 155.5t402 -155.5t138 -422.5t-138 -422.5t-402 -155.5t-402 155.5t-138 422.5zM342 1306v136q23 42 67.5 71t96.5 29q47 0 93 -19t76 -41t67.5 -41t69.5 -19q82 0 146 78v-136q-23 -42 -67.5 -71t-96.5 -29q-47 0 -93 19t-76 41t-67.5 41 t-69.5 19q-82 0 -146 -78zM372 558q0 -57 7 -105.5t26.5 -96.5t49.5 -81.5t80 -54t115 -20.5t115 20.5t80 54t49.5 81.5t26.5 96.5t7 105.5t-7 105.5t-26.5 96.5t-49.5 81.5t-80 54t-115 20.5t-115 -20.5t-80 -54t-49.5 -81.5t-26.5 -96.5t-7 -105.5z" />
<glyph unicode="&#xd6;" horiz-adv-x="1300" d="M110 558q0 267 138 422.5t402 155.5t402 -155.5t138 -422.5t-138 -422.5t-402 -155.5t-402 155.5t-138 422.5zM342 1302v206h224v-206h-224zM372 558q0 -57 7 -105.5t26.5 -96.5t49.5 -81.5t80 -54t115 -20.5t115 20.5t80 54t49.5 81.5t26.5 96.5t7 105.5t-7 105.5 t-26.5 96.5t-49.5 81.5t-80 54t-115 20.5t-115 -20.5t-80 -54t-49.5 -81.5t-26.5 -96.5t-7 -105.5zM734 1302v206h224v-206h-224z" />
<glyph unicode="&#xd7;" horiz-adv-x="1040" d="M148 238l240 238l-240 240l132 132l240 -240l240 240l132 -132l-240 -240l240 -238l-132 -132l-240 238l-240 -238z" />
<glyph unicode="&#xd8;" horiz-adv-x="1312" d="M48 -24l172 200q-104 146 -104 382q0 267 138 422.5t402 155.5q190 0 324 -88l168 192l116 -100l-174 -200q106 -152 106 -382q0 -267 -138 -422.5t-402 -155.5q-199 0 -326 88l-166 -192zM378 558q0 -111 28 -190l428 488q-66 60 -178 60q-65 0 -115 -20.5t-80 -54 t-49.5 -81.5t-26.5 -96.5t-7 -105.5zM478 258q67 -58 178 -58q65 0 115 20.5t80 54t49.5 81.5t26.5 96.5t7 105.5q0 106 -30 190z" />
<glyph unicode="&#xd9;" horiz-adv-x="1224" d="M132 422v694h254v-668q0 -138 55 -193t171 -55t171 55t55 193v668h254v-694q0 -232 -128 -337t-352 -105q-226 0 -353 105t-127 337zM324 1552h260l140 -290h-112z" />
<glyph unicode="&#xda;" horiz-adv-x="1224" d="M132 422v694h254v-668q0 -138 55 -193t171 -55t171 55t55 193v668h254v-694q0 -232 -128 -337t-352 -105q-226 0 -353 105t-127 337zM500 1262l140 290h260l-288 -290h-112z" />
<glyph unicode="&#xdb;" horiz-adv-x="1224" d="M132 422v694h254v-668q0 -138 55 -193t171 -55t171 55t55 193v668h254v-694q0 -232 -128 -337t-352 -105q-226 0 -353 105t-127 337zM296 1256l244 298h144l244 -298h-126l-190 126l-190 -126h-126z" />
<glyph unicode="&#xdc;" horiz-adv-x="1224" d="M132 422v694h254v-668q0 -138 55 -193t171 -55t171 55t55 193v668h254v-694q0 -232 -128 -337t-352 -105q-226 0 -353 105t-127 337zM304 1302v206h224v-206h-224zM696 1302v206h224v-206h-224z" />
<glyph unicode="&#xdd;" horiz-adv-x="1070" d="M0 1116h278l262 -464l262 464h268l-408 -690v-426h-254v426zM424 1262l140 290h260l-288 -290h-112z" />
<glyph unicode="&#xde;" horiz-adv-x="1126" d="M150 0v1116h254v-172h136q237 0 371 -91q135 -91 135 -287t-135 -287q-134 -91 -371 -91h-136v-188h-254zM404 396h134q131 0 187.5 39.5t56.5 130.5t-56.5 130.5t-187.5 39.5h-134v-340z" />
<glyph unicode="&#xdf;" horiz-adv-x="1106" d="M126 0v952q0 99 33 175.5t90.5 123t131.5 70t161 23.5q172 0 278 -89.5t106 -240.5q0 -212 -204 -340q58 -23 109.5 -54.5t104 -79.5t83.5 -116.5t31 -147.5q0 -59 -18.5 -109.5t-58 -93.5t-110 -68t-165.5 -25q-121 0 -190 30v194q70 -36 152 -36q140 0 140 124 q0 96 -80 161q-79 64 -212 111v160q65 37 105.5 90t53.5 97.5t13 90.5q0 74 -38 114t-108 40q-74 0 -117 -47t-43 -145v-964h-248z" />
<glyph unicode="&#xe0;" horiz-adv-x="1014" d="M66 230q0 63 24 112t59 77.5t87 47.5t96 27t98 12l192 16v20q0 94 -28 139t-114 45q-78 0 -111 -36t-35 -110h-232q1 78 26.5 137.5t64 95.5t92.5 58.5t106.5 30.5t112.5 8q198 0 281 -88t83 -258v-344q0 -27 10.5 -39.5t37.5 -12.5q39 0 70 18v-168q-58 -38 -158 -38 q-162 0 -162 130v10q-36 -50 -116 -95t-198 -45q-125 0 -205.5 62.5t-80.5 187.5zM198 1338h260l140 -290h-112zM312 248q0 -98 120 -98q101 0 190 72v166l-142 -16q-86 -10 -127 -39t-41 -85z" />
<glyph unicode="&#xe1;" horiz-adv-x="1014" d="M66 230q0 63 24 112t59 77.5t87 47.5t96 27t98 12l192 16v20q0 94 -28 139t-114 45q-78 0 -111 -36t-35 -110h-232q1 78 26.5 137.5t64 95.5t92.5 58.5t106.5 30.5t112.5 8q198 0 281 -88t83 -258v-344q0 -27 10.5 -39.5t37.5 -12.5q39 0 70 18v-168q-58 -38 -158 -38 q-162 0 -162 130v10q-36 -50 -116 -95t-198 -45q-125 0 -205.5 62.5t-80.5 187.5zM312 248q0 -98 120 -98q101 0 190 72v166l-142 -16q-86 -10 -127 -39t-41 -85zM370 1048l140 290h260l-288 -290h-112z" />
<glyph unicode="&#xe2;" horiz-adv-x="1014" d="M66 230q0 63 24 112t59 77.5t87 47.5t96 27t98 12l192 16v20q0 94 -28 139t-114 45q-78 0 -111 -36t-35 -110h-232q1 78 26.5 137.5t64 95.5t92.5 58.5t106.5 30.5t112.5 8q198 0 281 -88t83 -258v-344q0 -27 10.5 -39.5t37.5 -12.5q39 0 70 18v-168q-58 -38 -158 -38 q-162 0 -162 130v10q-36 -50 -116 -95t-198 -45q-125 0 -205.5 62.5t-80.5 187.5zM166 1042l244 298h144l244 -298h-126l-190 126l-190 -126h-126zM312 248q0 -98 120 -98q101 0 190 72v166l-142 -16q-86 -10 -127 -39t-41 -85z" />
<glyph unicode="&#xe3;" horiz-adv-x="1014" d="M66 230q0 63 24 112t59 77.5t87 47.5t96 27t98 12l192 16v20q0 94 -28 139t-114 45q-78 0 -111 -36t-35 -110h-232q1 78 26.5 137.5t64 95.5t92.5 58.5t106.5 30.5t112.5 8q198 0 281 -88t83 -258v-344q0 -27 10.5 -39.5t37.5 -12.5q39 0 70 18v-168q-58 -38 -158 -38 q-162 0 -162 130v10q-36 -50 -116 -95t-198 -45q-125 0 -205.5 62.5t-80.5 187.5zM174 1092v136q23 42 67.5 71t96.5 29q47 0 93 -19t76 -41t67.5 -41t69.5 -19q82 0 146 78v-136q-23 -42 -67.5 -71t-96.5 -29q-47 0 -93 19t-76 41t-67.5 41t-69.5 19q-82 0 -146 -78z M312 248q0 -98 120 -98q101 0 190 72v166l-142 -16q-86 -10 -127 -39t-41 -85z" />
<glyph unicode="&#xe4;" horiz-adv-x="1014" d="M66 230q0 63 24 112t59 77.5t87 47.5t96 27t98 12l192 16v20q0 94 -28 139t-114 45q-78 0 -111 -36t-35 -110h-232q1 78 26.5 137.5t64 95.5t92.5 58.5t106.5 30.5t112.5 8q198 0 281 -88t83 -258v-344q0 -27 10.5 -39.5t37.5 -12.5q39 0 70 18v-168q-58 -38 -158 -38 q-162 0 -162 130v10q-36 -50 -116 -95t-198 -45q-125 0 -205.5 62.5t-80.5 187.5zM174 1088v206h224v-206h-224zM312 248q0 -98 120 -98q101 0 190 72v166l-142 -16q-86 -10 -127 -39t-41 -85zM566 1088v206h224v-206h-224z" />
<glyph unicode="&#xe5;" horiz-adv-x="1014" d="M66 230q0 63 24 112t59 77.5t87 47.5t96 27t98 12l192 16v20q0 94 -28 139t-114 45q-78 0 -111 -36t-35 -110h-232q1 78 26.5 137.5t64 95.5t92.5 58.5t106.5 30.5t112.5 8q198 0 281 -88t83 -258v-344q0 -27 10.5 -39.5t37.5 -12.5q39 0 70 18v-168q-58 -38 -158 -38 q-162 0 -162 130v10q-36 -50 -116 -95t-198 -45q-125 0 -205.5 62.5t-80.5 187.5zM254 1238q0 104 68 167t160 63t160 -63t68 -167t-68 -167t-160 -63t-160 63t-68 167zM312 248q0 -98 120 -98q101 0 190 72v166l-142 -16q-86 -10 -127 -39t-41 -85zM372 1238 q0 -56 30.5 -87t79.5 -31t79.5 31t30.5 87t-30.5 87t-79.5 31t-79.5 -31t-30.5 -87z" />
<glyph unicode="&#xe6;" horiz-adv-x="1530" d="M66 236q0 63 24 111t59 76t87.5 47.5t95.5 27t98 12.5l192 16v16q0 94 -28 139t-114 45q-78 0 -111 -36t-35 -110h-232q1 78 26.5 138t64 95.5t91 58t101.5 30.5t103 8q190 0 274 -110q107 110 278 110q60 0 115.5 -13t112.5 -46t98.5 -83.5t67.5 -133.5t26 -188v-36 h-618q7 -244 198 -244q74 0 120 35t56 99h240q-11 -72 -42.5 -129t-74 -92t-96.5 -58t-105 -32t-104 -9q-213 0 -318 138q-157 -138 -344 -138q-135 0 -220.5 64.5t-85.5 191.5zM312 250q0 -100 120 -100q123 0 220 94q-18 59 -26 150l-146 -18q-89 -10 -128.5 -40.5 t-39.5 -85.5zM846 544h368q-22 186 -184 186q-164 0 -184 -186z" />
<glyph unicode="&#xe7;" horiz-adv-x="990" d="M76 446q0 105 26.5 188t69.5 133.5t102 83.5t118.5 46t125.5 13q172 0 283 -90t123 -260h-244q-4 65 -46.5 106.5t-117.5 41.5q-188 0 -188 -262q0 -264 188 -264q75 0 117.5 41.5t46.5 106.5h244q-12 -170 -123 -260t-283 -90q-65 0 -124.5 13.5t-119 47t-102.5 84.5 t-69.5 133.5t-26.5 187.5zM358 -240h114q7 -60 68 -60q35 0 55.5 18.5t20.5 53.5q0 38 -22 57t-58 19q-54 0 -84 -36l-70 30l58 158h76l-36 -100q40 26 100 26q77 0 121.5 -42.5t44.5 -111.5q0 -80 -57 -122t-141 -42q-82 0 -132 39t-58 113z" />
<glyph unicode="&#xe8;" horiz-adv-x="1006" d="M76 446q0 103 25.5 185t67 133t98.5 85t115.5 47.5t123.5 13.5q64 0 121.5 -13t115.5 -46t99.5 -83.5t67.5 -133.5t26 -188v-36h-618q7 -244 198 -244q75 0 120.5 35t55.5 99h240q-11 -72 -42.5 -129t-74 -92t-96.5 -58t-105 -32t-104 -9q-67 0 -127.5 14.5t-117.5 48.5 t-98 86.5t-66 133.5t-25 183zM220 1338h260l140 -290h-112zM322 544h368q-22 186 -184 186q-164 0 -184 -186z" />
<glyph unicode="&#xe9;" horiz-adv-x="1006" d="M76 446q0 103 25.5 185t67 133t98.5 85t115.5 47.5t123.5 13.5q64 0 121.5 -13t115.5 -46t99.5 -83.5t67.5 -133.5t26 -188v-36h-618q7 -244 198 -244q75 0 120.5 35t55.5 99h240q-11 -72 -42.5 -129t-74 -92t-96.5 -58t-105 -32t-104 -9q-67 0 -127.5 14.5t-117.5 48.5 t-98 86.5t-66 133.5t-25 183zM322 544h368q-22 186 -184 186q-164 0 -184 -186zM392 1048l140 290h260l-288 -290h-112z" />
<glyph unicode="&#xea;" horiz-adv-x="1006" d="M76 446q0 103 25.5 185t67 133t98.5 85t115.5 47.5t123.5 13.5q64 0 121.5 -13t115.5 -46t99.5 -83.5t67.5 -133.5t26 -188v-36h-618q7 -244 198 -244q75 0 120.5 35t55.5 99h240q-11 -72 -42.5 -129t-74 -92t-96.5 -58t-105 -32t-104 -9q-67 0 -127.5 14.5t-117.5 48.5 t-98 86.5t-66 133.5t-25 183zM188 1042l244 298h144l244 -298h-126l-190 126l-190 -126h-126zM322 544h368q-22 186 -184 186q-164 0 -184 -186z" />
<glyph unicode="&#xeb;" horiz-adv-x="1006" d="M76 446q0 103 25.5 185t67 133t98.5 85t115.5 47.5t123.5 13.5q64 0 121.5 -13t115.5 -46t99.5 -83.5t67.5 -133.5t26 -188v-36h-618q7 -244 198 -244q75 0 120.5 35t55.5 99h240q-11 -72 -42.5 -129t-74 -92t-96.5 -58t-105 -32t-104 -9q-67 0 -127.5 14.5t-117.5 48.5 t-98 86.5t-66 133.5t-25 183zM196 1088v206h224v-206h-224zM322 544h368q-22 186 -184 186q-164 0 -184 -186zM588 1088v206h224v-206h-224z" />
<glyph unicode="&#xec;" horiz-adv-x="500" d="M-32 1338h260l140 -290h-112zM126 0v890h248v-890h-248z" />
<glyph unicode="&#xed;" horiz-adv-x="500" d="M126 0v890h248v-890h-248zM144 1048l140 290h260l-288 -290h-112z" />
<glyph unicode="&#xee;" horiz-adv-x="500" d="M-60 1042l244 298h144l244 -298h-126l-190 126l-190 -126h-126zM126 0v890h248v-890h-248z" />
<glyph unicode="&#xef;" horiz-adv-x="500" d="M-52 1088v206h224v-206h-224zM126 0v890h248v-890h-248zM340 1088v206h224v-206h-224z" />
<glyph unicode="&#xf0;" d="M76 430q1 100 26.5 178.5t65 126t92 78.5t101.5 42t99 11q98 0 156 -50l-92 196l-196 -48v160l130 32l-76 168h248l50 -112l204 52v-162l-140 -36l116 -258q50 -114 81 -205q31 -92 31 -195q0 -107 -36.5 -190.5t-100 -134.5t-143.5 -77t-172 -26q-65 0 -124.5 12.5 t-119 45t-103 82t-70.5 129t-27 181.5zM328 422q0 -248 196 -248t196 248t-196 248t-196 -248z" />
<glyph unicode="&#xf1;" horiz-adv-x="1054" d="M124 0v890h220v-116q87 136 290 136q306 0 306 -360v-550h-248v506q0 96 -30 144t-120 48q-110 0 -170 -66v-632h-248zM224 1092v136q23 42 67.5 71t96.5 29q47 0 93 -19t76 -41t67.5 -41t69.5 -19q82 0 146 78v-136q-23 -42 -67.5 -71t-96.5 -29q-47 0 -93 19t-76 41 t-67.5 41t-69.5 19q-82 0 -146 -78z" />
<glyph unicode="&#xf2;" d="M76 446q-1 105 26 187t70.5 133t103.5 84t121 46.5t127 13.5t127 -13.5t121 -46.5t103.5 -84t70.5 -133t26 -187q1 -105 -26 -187.5t-70.5 -133.5t-103.5 -84.5t-121 -47t-127 -13.5t-127 13.5t-121 47t-103.5 84.5t-70.5 133.5t-26 187.5zM236 1338h260l140 -290h-112z M328 446q0 -264 196 -264t196 264q0 262 -196 262t-196 -262z" />
<glyph unicode="&#xf3;" d="M76 446q-1 105 26 187t70.5 133t103.5 84t121 46.5t127 13.5t127 -13.5t121 -46.5t103.5 -84t70.5 -133t26 -187q1 -105 -26 -187.5t-70.5 -133.5t-103.5 -84.5t-121 -47t-127 -13.5t-127 13.5t-121 47t-103.5 84.5t-70.5 133.5t-26 187.5zM328 446q0 -264 196 -264 t196 264q0 262 -196 262t-196 -262zM412 1048l140 290h260l-288 -290h-112z" />
<glyph unicode="&#xf4;" d="M76 446q-1 105 26 187t70.5 133t103.5 84t121 46.5t127 13.5t127 -13.5t121 -46.5t103.5 -84t70.5 -133t26 -187q1 -105 -26 -187.5t-70.5 -133.5t-103.5 -84.5t-121 -47t-127 -13.5t-127 13.5t-121 47t-103.5 84.5t-70.5 133.5t-26 187.5zM208 1042l244 298h144 l244 -298h-126l-190 126l-190 -126h-126zM328 446q0 -264 196 -264t196 264q0 262 -196 262t-196 -262z" />
<glyph unicode="&#xf5;" d="M76 446q-1 105 26 187t70.5 133t103.5 84t121 46.5t127 13.5t127 -13.5t121 -46.5t103.5 -84t70.5 -133t26 -187q1 -105 -26 -187.5t-70.5 -133.5t-103.5 -84.5t-121 -47t-127 -13.5t-127 13.5t-121 47t-103.5 84.5t-70.5 133.5t-26 187.5zM216 1092v136q23 42 67.5 71 t96.5 29q47 0 93 -19t76 -41t67.5 -41t69.5 -19q82 0 146 78v-136q-23 -42 -67.5 -71t-96.5 -29q-47 0 -93 19t-76 41t-67.5 41t-69.5 19q-82 0 -146 -78zM328 446q0 -264 196 -264t196 264q0 262 -196 262t-196 -262z" />
<glyph unicode="&#xf6;" d="M76 446q-1 105 26 187t70.5 133t103.5 84t121 46.5t127 13.5t127 -13.5t121 -46.5t103.5 -84t70.5 -133t26 -187q1 -105 -26 -187.5t-70.5 -133.5t-103.5 -84.5t-121 -47t-127 -13.5t-127 13.5t-121 47t-103.5 84.5t-70.5 133.5t-26 187.5zM216 1088v206h224v-206h-224z M328 446q0 -264 196 -264t196 264q0 262 -196 262t-196 -262zM608 1088v206h224v-206h-224z" />
<glyph unicode="&#xf7;" horiz-adv-x="1040" d="M118 384v188h804v-188h-804zM400 28v238h238v-238h-238zM400 690v238h238v-238h-238z" />
<glyph unicode="&#xf8;" horiz-adv-x="1056" d="M18 -24l144 166q-82 116 -82 304q-1 105 26 187t70.5 133t103.5 84t121 46.5t127 13.5q146 0 252 -62l146 166l112 -100l-146 -168q84 -109 84 -300q1 -105 -26 -187.5t-70.5 -133.5t-103.5 -84.5t-121 -47t-127 -13.5q-148 0 -254 62l-144 -166zM332 446q0 -72 14 -122 l302 346q-47 38 -120 38q-196 0 -196 -262zM408 220q47 -38 120 -38q196 0 196 264q0 57 -14 118z" />
<glyph unicode="&#xf9;" horiz-adv-x="1044" d="M114 340v550h248v-504q0 -96 28 -145t116 -49q106 0 166 66v632h248v-890h-218v118q-37 -57 -104 -97q-68 -41 -182 -41q-48 0 -89 8.5t-81.5 32.5t-68.5 63t-45.5 104.5t-17.5 151.5zM228 1338h260l140 -290h-112z" />
<glyph unicode="&#xfa;" horiz-adv-x="1044" d="M114 340v550h248v-504q0 -96 28 -145t116 -49q106 0 166 66v632h248v-890h-218v118q-37 -57 -104 -97q-68 -41 -182 -41q-48 0 -89 8.5t-81.5 32.5t-68.5 63t-45.5 104.5t-17.5 151.5zM404 1048l140 290h260l-288 -290h-112z" />
<glyph unicode="&#xfb;" horiz-adv-x="1044" d="M114 340v550h248v-504q0 -96 28 -145t116 -49q106 0 166 66v632h248v-890h-218v118q-37 -57 -104 -97q-68 -41 -182 -41q-48 0 -89 8.5t-81.5 32.5t-68.5 63t-45.5 104.5t-17.5 151.5zM200 1042l244 298h144l244 -298h-126l-190 126l-190 -126h-126z" />
<glyph unicode="&#xfc;" horiz-adv-x="1044" d="M114 340v550h248v-504q0 -96 28 -145t116 -49q106 0 166 66v632h248v-890h-218v118q-37 -57 -104 -97q-68 -41 -182 -41q-48 0 -89 8.5t-81.5 32.5t-68.5 63t-45.5 104.5t-17.5 151.5zM208 1088v206h224v-206h-224zM600 1088v206h224v-206h-224z" />
<glyph unicode="&#xfd;" horiz-adv-x="956" d="M26 890h266l198 -634l198 634h242l-352 -996q-20 -54 -36 -89.5t-46.5 -81.5t-64.5 -73t-88 -46.5t-119 -19.5q-66 0 -130 20v198q61 -18 102 -18q48 0 79.5 23t52.5 79l28 76zM378 1048l140 290h260l-288 -290h-112z" />
<glyph unicode="&#xfe;" horiz-adv-x="1064" d="M124 -396v1720h248v-518q88 104 236 104q74 0 140 -26t121 -78.5t87 -144.5t32 -213t-32.5 -214t-88 -147t-121 -80.5t-138.5 -26.5q-86 0 -146 32t-90 72v-480h-248zM372 244q60 -60 162 -60q202 0 202 260q0 128 -50.5 195t-151.5 67q-102 0 -162 -60v-402z" />
<glyph unicode="&#xff;" horiz-adv-x="956" d="M26 890h266l198 -634l198 634h242l-352 -996q-20 -54 -36 -89.5t-46.5 -81.5t-64.5 -73t-88 -46.5t-119 -19.5q-66 0 -130 20v198q61 -18 102 -18q48 0 79.5 23t52.5 79l28 76zM182 1088v206h224v-206h-224zM574 1088v206h224v-206h-224z" />
<glyph unicode="&#x152;" horiz-adv-x="1718" d="M110 558q0 260 146.5 409t439.5 149h924v-214h-546v-226h442v-214h-442v-248h546v-214h-924q-293 0 -439.5 149t-146.5 409zM372 558q0 -350 328 -350h120v700h-120q-328 0 -328 -350z" />
<glyph unicode="&#x153;" horiz-adv-x="1650" d="M76 446q0 104 27 186.5t70.5 133.5t103 84.5t119 46.5t124.5 13q215 0 320 -146q111 146 310 146q64 0 121.5 -13t115.5 -46t99.5 -83.5t67.5 -133.5t26 -188v-36h-618q7 -244 198 -244q75 0 120.5 35t55.5 99h240q-11 -72 -42.5 -129t-74 -92t-96.5 -58t-105 -32 t-104 -9q-206 0 -314 146q-105 -146 -320 -146q-65 0 -124.5 13t-119 46.5t-103 85t-70.5 134t-27 187.5zM328 446q0 -264 196 -264t196 264q0 262 -196 262t-196 -262zM966 544h368q-22 186 -184 186q-164 0 -184 -186z" />
<glyph unicode="&#x178;" horiz-adv-x="1070" d="M0 1116h278l262 -464l262 464h268l-408 -690v-426h-254v426zM228 1302v206h224v-206h-224zM620 1302v206h224v-206h-224z" />
<glyph unicode="&#x2c6;" horiz-adv-x="852" d="M110 1042l244 298h144l244 -298h-126l-190 126l-190 -126h-126z" />
<glyph unicode="&#x2dc;" horiz-adv-x="852" d="M118 1092v136q23 42 67.5 71t96.5 29q47 0 93 -19t76 -41t67.5 -41t69.5 -19q82 0 146 78v-136q-23 -42 -67.5 -71t-96.5 -29q-47 0 -93 19t-76 41t-67.5 41t-69.5 19q-82 0 -146 -78z" />
<glyph unicode="&#x2000;" horiz-adv-x="841" />
<glyph unicode="&#x2001;" horiz-adv-x="1682" />
<glyph unicode="&#x2002;" horiz-adv-x="841" />
<glyph unicode="&#x2003;" horiz-adv-x="1682" />
<glyph unicode="&#x2004;" horiz-adv-x="560" />
<glyph unicode="&#x2005;" horiz-adv-x="420" />
<glyph unicode="&#x2006;" horiz-adv-x="280" />
<glyph unicode="&#x2007;" horiz-adv-x="280" />
<glyph unicode="&#x2008;" horiz-adv-x="210" />
<glyph unicode="&#x2009;" horiz-adv-x="336" />
<glyph unicode="&#x200a;" horiz-adv-x="93" />
<glyph unicode="&#x2010;" horiz-adv-x="712" d="M110 354v222h492v-222h-492z" />
<glyph unicode="&#x2011;" horiz-adv-x="712" d="M110 354v222h492v-222h-492z" />
<glyph unicode="&#x2012;" horiz-adv-x="712" d="M110 354v222h492v-222h-492z" />
<glyph unicode="&#x2013;" horiz-adv-x="1040" d="M118 384v188h804v-188h-804z" />
<glyph unicode="&#x2014;" horiz-adv-x="1424" d="M110 384v188h1204v-188h-1204z" />
<glyph unicode="&#x2018;" horiz-adv-x="532" d="M134 648v264l142 284h122l-136 -284h136v-264h-264z" />
<glyph unicode="&#x2019;" horiz-adv-x="532" d="M134 648l136 284h-136v264h264v-264l-142 -284h-122z" />
<glyph unicode="&#x201a;" horiz-adv-x="624" d="M180 0v264h264v-264l-142 -284h-122l136 284h-136z" />
<glyph unicode="&#x201c;" horiz-adv-x="916" d="M134 648v264l142 284h122l-136 -284h136v-264h-264zM518 648v264l142 284h122l-136 -284h136v-264h-264z" />
<glyph unicode="&#x201d;" horiz-adv-x="916" d="M134 648l136 284h-136v264h264v-264l-142 -284h-122zM518 648l136 284h-136v264h264v-264l-142 -284h-122z" />
<glyph unicode="&#x201e;" horiz-adv-x="1008" d="M180 0v264h264v-264l-142 -284h-122l136 284h-136zM564 0v264h264v-264l-142 -284h-122l136 284h-136z" />
<glyph unicode="&#x2022;" horiz-adv-x="628" d="M120 466q0 80 48 137t146 57t146 -57t48 -137q0 -82 -48 -138t-146 -56t-146 56t-48 138z" />
<glyph unicode="&#x2026;" horiz-adv-x="1490" d="M180 0v254h254v-254h-254zM618 0v254h254v-254h-254zM1056 0v254h254v-254h-254z" />
<glyph unicode="&#x202f;" horiz-adv-x="336" />
<glyph unicode="&#x2039;" horiz-adv-x="646" d="M116 466l238 318h188l-220 -318l220 -318h-188z" />
<glyph unicode="&#x203a;" horiz-adv-x="646" d="M104 148l220 318l-220 318h188l238 -318l-238 -318h-188z" />
<glyph unicode="&#x205f;" horiz-adv-x="420" />
<glyph unicode="&#x20ac;" horiz-adv-x="1222" d="M28 370v116h132q-2 14 -2 72q0 56 2 72h-132v116h148q41 181 161 285q121 105 321 105q202 0 333.5 -107t146.5 -305h-242q-9 96 -67 158t-165 62q-104 0 -159 -57q-55 -56 -79 -141h300v-116h-318q-2 -16 -2 -72t2 -72h318v-116h-300q25 -88 79 -142q56 -56 159 -56 q107 0 165 62t67 158h242q-15 -198 -146.5 -305t-333.5 -107q-197 0 -319 102t-163 288h-148z" />
<glyph unicode="&#x2122;" horiz-adv-x="1110" d="M86 1012v104h370v-104h-126v-390h-118v390h-126zM514 622v494h130l108 -222l110 222h124v-494h-112v322l-88 -188h-72l-88 188v-322h-112z" />
<glyph unicode="&#x25fc;" horiz-adv-x="890" d="M0 0v890h890v-890h-890z" />
<glyph unicode="&#xfb01;" horiz-adv-x="1080" d="M14 706v184h128v148q0 140 73.5 223t226.5 83q84 0 122 -20v-190q-33 10 -70 10q-57 0 -80.5 -30t-23.5 -90v-134h174v-184h-174v-706h-248v706h-128zM700 1104v220h260v-220h-260zM706 0v890h248v-890h-248z" />
<glyph unicode="&#xfb02;" horiz-adv-x="1076" d="M14 706v184h128v148q0 140 73.5 223t226.5 83q84 0 122 -20v-190q-33 10 -70 10q-57 0 -80.5 -30t-23.5 -90v-134h174v-184h-174v-706h-248v706h-128zM704 0v1324h248v-1324h-248z" />
</font>
</defs>
</svg>
