<?xml version="1.0" standalone="no"?>
<!DOCTYPE svg PUBLIC "-//W3C//DTD SVG 20010904//EN"
 "http://www.w3.org/TR/2001/REC-SVG-20010904/DTD/svg10.dtd">
<svg version="1.0" xmlns="http://www.w3.org/2000/svg"
 width="500.000000pt" height="500.000000pt" viewBox="0 0 500.000000 500.000000"
 preserveAspectRatio="xMidYMid meet">
<metadata>
Created by potrace 1.11, written by Peter Selinger 2001-2013
</metadata>
<g transform="translate(0.000000,500.000000) scale(0.100000,-0.100000)"
fill="#000000" stroke="none">
<path d="M519 4481 l-29 -29 0 -1952 0 -1952 29 -29 29 -29 1952 0 1952 0 29
29 29 29 0 1952 0 1952 -29 29 -29 29 -1952 0 -1952 0 -29 -29z m3811 -1981
l0 -1830 -1830 0 -1830 0 0 1830 0 1830 1830 0 1830 0 0 -1830z"/>
<path d="M1209 2571 c-20 -16 -24 -29 -24 -71 0 -42 4 -55 24 -71 23 -18 58
-19 1291 -19 1233 0 1268 1 1291 19 20 16 24 29 24 71 0 42 -4 55 -24 71 -23
18 -58 19 -1291 19 -1233 0 -1268 -1 -1291 -19z"/>
</g>
</svg>
