<?xml version="1.0" standalone="no"?>
<!DOCTYPE svg PUBLIC "-//W3C//DTD SVG 20010904//EN"
 "http://www.w3.org/TR/2001/REC-SVG-20010904/DTD/svg10.dtd">
<svg version="1.0" xmlns="http://www.w3.org/2000/svg"
 width="500.000000pt" height="500.000000pt" viewBox="0 0 500.000000 500.000000"
 preserveAspectRatio="xMidYMid meet">
<metadata>
Created by potrace 1.11, written by Peter Selinger 2001-2013
</metadata>
<g transform="translate(0.000000,500.000000) scale(0.100000,-0.100000)"
fill="#000000" stroke="none">
<path d="M2453 4463 c-15 -8 -33 -20 -40 -26 -23 -24 -1893 -3777 -1893 -3800
0 -44 21 -86 55 -107 32 -20 41 -20 1917 -20 1333 0 1894 3 1916 11 38 13 72
64 72 108 0 45 -1881 3805 -1912 3822 -43 23 -86 27 -115 12z m268 -686 l217
-432 -564 -1120 c-310 -616 -609 -1213 -666 -1327 l-103 -207 -432 -1 c-238 0
-433 2 -433 5 0 10 1755 3515 1760 3515 3 0 102 -195 221 -433z m530 -1059
l211 -423 -168 -335 c-93 -184 -171 -342 -174 -350 -3 -8 -39 -80 -80 -160
-41 -80 -74 -147 -75 -150 0 -3 -69 -141 -153 -307 l-152 -303 -425 0 c-234 0
-425 3 -425 6 0 4 262 527 582 1163 320 636 596 1184 612 1218 17 35 32 63 33
63 2 0 98 -190 214 -422z m1008 -2020 c1 -5 -314 -8 -698 -8 l-699 0 351 702
350 701 348 -694 c191 -382 348 -697 348 -701z"/>
</g>
</svg>
