<?xml version="1.0" standalone="no"?>
<!DOCTYPE svg PUBLIC "-//W3C//DTD SVG 20010904//EN"
 "http://www.w3.org/TR/2001/REC-SVG-20010904/DTD/svg10.dtd">
<svg version="1.0" xmlns="http://www.w3.org/2000/svg"
 width="500.000000pt" height="500.000000pt" viewBox="0 0 500.000000 500.000000"
 preserveAspectRatio="xMidYMid meet">
<metadata>
Created by potrace 1.11, written by Peter Selinger 2001-2013
</metadata>
<g transform="translate(0.000000,500.000000) scale(0.100000,-0.100000)"
fill="#000000" stroke="none">
<path d="M1350 3957 c-55 -28 -62 -108 -13 -147 25 -20 39 -20 1113 -20 l1088
0 15 -42 c9 -24 45 -117 80 -208 193 -493 327 -843 324 -846 -2 -2 -509 -4
-1128 -4 -686 -1 -1155 -5 -1204 -11 -482 -60 -859 -357 -1122 -884 -89 -177
-170 -392 -223 -589 -26 -99 -25 -112 9 -147 l29 -29 2192 0 2192 0 30 30 c26
26 30 36 25 66 -5 29 -84 243 -132 359 -7 17 -32 80 -55 140 -51 134 -96 250
-143 370 -20 50 -94 241 -165 425 -72 184 -173 446 -226 582 -53 137 -139 359
-192 495 -53 137 -111 289 -130 338 -20 50 -46 100 -60 113 l-25 22 -1127 0
c-888 0 -1132 -3 -1152 -13z m2697 -1479 c6 -18 111 -289 233 -603 122 -314
230 -591 240 -617 l18 -48 -2034 0 -2034 0 6 28 c4 15 29 90 56 167 63 178
177 412 262 538 214 317 477 496 812 551 62 10 336 14 1255 15 l1176 1 10 -32z"/>
</g>
</svg>
