<?xml version="1.0" encoding="utf-8"?>
<!-- Generator: Adobe Illustrator 19.2.0, SVG Export Plug-In . SVG Version: 6.00 Build 0)  -->
<svg version="1.1" id="Layer_1" xmlns="http://www.w3.org/2000/svg" xmlns:xlink="http://www.w3.org/1999/xlink" x="0px" y="0px"
	 viewBox="0 0 90 90" style="enable-background:new 0 0 90 90;" xml:space="preserve">
<style type="text/css">
	.st0{fill:none;}
	.st1{fill:#FFFFFF;}
</style>
<rect class="st0" width="90" height="90"/>
<g>
	<path class="st1" d="M89.6,81.6L81.2,57l-0.4-6.7c0-0.2,0-0.3-0.1-0.4l-1.6-3.2L76.3,5c0-0.4-0.2-0.7-0.6-0.9l-6.2-3.8
		C69.3,0.1,69.1,0,68.9,0H21.1c-0.2,0-0.4,0.1-0.6,0.2L14.3,4c-0.3,0.2-0.5,0.6-0.6,0.9l-2.8,41.6l-1.6,3.2
		c-0.1,0.1-0.1,0.3-0.1,0.4L8.8,57L0.4,81.6c-0.1,0.2-0.1,0.5,0,0.8l2.3,6.8C2.8,89.7,3.2,90,3.8,90h82.5c0.5,0,1-0.3,1.1-0.8
		l2.3-6.8C89.7,82.1,89.7,81.8,89.6,81.6z M11.6,50.8h66.8l0.4,5.7H11.2L11.6,50.8z M11,57.9h68l8,23.3H3L11,57.9z M16,5.8h10.7
		h36.6H74l2.7,40.4H13.3L16,5.8z M85.4,87.6H4.6L3,82.7h84L85.4,87.6z"/>
	<path class="st1" d="M83.4,77.6l-1.9-5.4l-1.9-5.5l-1.9-5.5c-0.1-0.3-0.4-0.5-0.7-0.5h-5.8h0h-5.8c-0.2,0-0.4,0.1-0.6,0.3
		c-0.1,0.2-0.2,0.4-0.1,0.6l1.2,5.5l0,0l1.2,5.5c0,0,0,0,0,0l1.2,5.5c0.1,0.3,0.4,0.6,0.7,0.6h6.9h6.9c0,0,0,0,0,0
		c0.4,0,0.7-0.3,0.7-0.7C83.5,77.7,83.4,77.7,83.4,77.6z M67.5,67.5h4.7l1.1,4.1h-5L67.5,67.5z M73.7,67.5h4.7l1.4,4.1h-5L73.7,67.5
		z M76.6,62l1.4,4.1h-4.6L72.2,62H76.6z M70.7,62l1.1,4.1h-4.7L66.3,62H70.7z M69.6,77.1L68.7,73h5.1l1.1,4.1H69.6z M76.4,77.1
		L75.3,73h5.1l1.4,4.1H76.4z"/>
	<path class="st1" d="M74.1,42.7L71.8,9.1c0-0.3-0.3-0.5-0.6-0.5H18.7c-0.3,0-0.6,0.2-0.6,0.5l-2.2,33.6c0,0.2,0,0.3,0.2,0.4
		c0.1,0.1,0.3,0.2,0.4,0.2h57c0,0,0,0,0,0C73.8,43.3,74.1,43.1,74.1,42.7C74.1,42.7,74.1,42.7,74.1,42.7z M17.1,42.2l2.2-32.5h51.5
		l2.2,32.5H17.1z"/>
	<path class="st1" d="M59.4,12.5C54.6,12.1,49.8,12,45,12s-9.6,0.2-14.4,0.5c-2.2,0.2-4.2,2.1-4.5,4.3c-0.7,6.2-0.7,12.2,0,18.3
		c0.3,2.2,2.3,4.2,4.5,4.3C35.4,39.8,40.2,40,45,40c4.8,0,9.6-0.2,14.4-0.5c2.2-0.2,4.2-2.1,4.5-4.3c0.7-6.2,0.7-12.2,0-18.3
		C63.6,14.6,61.6,12.7,59.4,12.5z"/>
	<path class="st1" d="M55.5,72.3C55.5,72.3,55.5,72.3,55.5,72.3L55,66.7l-0.5-5.5c0-0.4-0.3-0.6-0.7-0.6h-5.8c0,0,0,0,0,0h-5.8
		c0,0,0,0,0,0h-5.8h-5.8h0h-5.8h-0.1h-5.8h0h-5.8c-0.3,0-0.6,0.2-0.7,0.5l-1.9,5.5l-1.9,5.5l-1.9,5.5c-0.1,0.2,0,0.5,0.1,0.6
		c0.1,0.2,0.4,0.3,0.6,0.3h6.9H21h6.9h6.9h6.8c0,0,0,0,0,0h6.9c0,0,0,0,0,0h6.8c0.2,0,0.4-0.1,0.5-0.2S56,78,56,77.8L55.5,72.3z
		 M17.8,67.5h4.7l-0.9,4.1h-5L17.8,67.5z M24,67.5h4.8l-0.6,4.1h-5L24,67.5z M30.2,67.5H35l-0.4,4.1h-5L30.2,67.5z M36.4,67.5h4.8
		L41,71.6h-5L36.4,67.5z M42.6,67.5h4.8l0.1,4.1h-5L42.6,67.5z M42.8,62h4.5l0.1,4.1h-4.7L42.8,62z M48.8,67.5h4.8l0.4,4.1h-5
		L48.8,67.5z M53.1,62l0.4,4.1h-4.7L48.7,62H53.1z M41.2,66.1h-4.7l0.4-4.1h4.4L41.2,66.1z M35.1,66.1h-4.7L31,62h4.4L35.1,66.1z
		 M28.9,66.1h-4.7l0.9-4.1h4.4L28.9,66.1z M22.8,66.1h-4.7l1.1-4.1h4.4L22.8,66.1z M13.4,62h4.4l-1.1,4.1H12L13.4,62z M11.5,67.5
		h4.7l-1.1,4.1h-5L11.5,67.5z M9.7,73h5.1l-1.1,4.1H8.3L9.7,73z M16.2,73h5.1l-0.9,4.1h-5.3L16.2,73z M22.8,73h5.1l-0.6,4.1h-5.4
		L22.8,73z M29.3,73h5.1l-0.4,4.1h-5.4L29.3,73z M35.9,73H41l-0.1,4.1h-5.4L35.9,73z M42.3,77.1l0.1-4.1h5.1l0.1,4.1H42.3z
		 M49.1,77.1L49,73h5.1l0.4,4.1H49.1z"/>
</g>
</svg>
