<?xml version="1.0" standalone="no"?>
<!DOCTYPE svg PUBLIC "-//W3C//DTD SVG 20010904//EN"
 "http://www.w3.org/TR/2001/REC-SVG-20010904/DTD/svg10.dtd">
<svg version="1.0" xmlns="http://www.w3.org/2000/svg"
 width="500.000000pt" height="500.000000pt" viewBox="0 0 500.000000 500.000000"
 preserveAspectRatio="xMidYMid meet">
<metadata>
Created by potrace 1.11, written by Peter Selinger 2001-2013
</metadata>
<g transform="translate(0.000000,500.000000) scale(0.100000,-0.100000)"
fill="#000000" stroke="none">
<path d="M2453 4463 c-15 -8 -33 -20 -40 -26 -23 -24 -1893 -3777 -1893 -3800
0 -44 21 -86 55 -107 32 -20 41 -20 1917 -20 1333 0 1894 3 1916 11 38 13 72
64 72 108 0 45 -1881 3805 -1912 3822 -43 23 -86 27 -115 12z m930 -2008 c482
-965 877 -1757 877 -1760 0 -3 -792 -5 -1760 -5 -968 0 -1760 2 -1760 5 0 10
1755 3515 1760 3515 3 0 400 -790 883 -1755z"/>
</g>
</svg>
