<?xml version="1.0" standalone="no"?>
<!DOCTYPE svg PUBLIC "-//W3C//DTD SVG 20010904//EN"
 "http://www.w3.org/TR/2001/REC-SVG-20010904/DTD/svg10.dtd">
<svg version="1.0" xmlns="http://www.w3.org/2000/svg"
 width="500.000000pt" height="500.000000pt" viewBox="0 0 500.000000 500.000000"
 preserveAspectRatio="xMidYMid meet">
<metadata>
Created by potrace 1.11, written by Peter Selinger 2001-2013
</metadata>
<g transform="translate(0.000000,500.000000) scale(0.100000,-0.100000)"
fill="#000000" stroke="none">
<path d="M519 4481 l-29 -29 0 -1952 0 -1952 29 -29 29 -29 1952 0 1952 0 29
29 29 29 0 1952 0 1952 -29 29 -29 29 -1952 0 -1952 0 -29 -29z m3661 -155 c0
-11 -102 -127 -178 -202 -212 -214 -477 -383 -772 -493 -141 -53 -366 -104
-523 -118 -97 -9 -325 -10 -417 -1 -189 18 -424 77 -605 151 -47 19 -247 119
-275 138 -149 98 -201 133 -217 147 -10 10 -34 29 -53 44 -77 58 -320 310
-320 332 0 3 756 6 1680 6 924 0 1680 -2 1680 -4z m150 -1881 l0 -1775 -1830
0 -1830 0 0 1773 0 1772 47 -55 c315 -368 695 -617 1138 -745 50 -15 101 -29
115 -31 14 -3 44 -9 68 -15 23 -5 59 -12 80 -15 20 -3 48 -7 62 -10 110 -18
401 -25 536 -11 350 34 710 154 993 330 194 120 477 368 581 509 19 26 36 48
38 48 1 0 2 -799 2 -1775z"/>
</g>
</svg>
