<?xml version="1.0" standalone="no"?>
<!DOCTYPE svg PUBLIC "-//W3C//DTD SVG 20010904//EN"
 "http://www.w3.org/TR/2001/REC-SVG-20010904/DTD/svg10.dtd">
<svg version="1.0" xmlns="http://www.w3.org/2000/svg"
 width="500.000000pt" height="500.000000pt" viewBox="0 0 500.000000 500.000000"
 preserveAspectRatio="xMidYMid meet">
<metadata>
Created by potrace 1.11, written by Peter Selinger 2001-2013
</metadata>
<g transform="translate(0.000000,500.000000) scale(0.100000,-0.100000)"
fill="#000000" stroke="none">
<path d="M2453 4654 c-16 -7 -34 -19 -40 -26 -6 -7 -192 -375 -413 -818 -222
-443 -404 -807 -406 -809 -3 -3 -136 127 -297 288 -161 160 -299 296 -307 301
-53 34 -130 -12 -130 -77 0 -37 11 -50 324 -363 l323 -324 -493 -987 c-337
-674 -494 -998 -494 -1020 0 -39 25 -82 60 -103 24 -14 64 -16 276 -16 l248 0
-122 -123 c-105 -107 -122 -128 -122 -156 0 -18 5 -41 11 -52 15 -28 66 -48
98 -39 15 4 108 89 208 189 l182 181 1138 0 1138 0 183 -184 c111 -112 193
-186 208 -189 32 -6 86 22 100 51 22 45 3 77 -120 202 l-120 120 248 0 c209 0
253 3 282 16 40 19 64 59 64 104 0 20 -164 358 -495 1021 l-495 990 319 319
c175 176 321 328 323 338 16 61 -54 131 -111 111 -14 -5 -159 -142 -321 -304
l-295 -295 -403 808 c-261 523 -412 815 -429 829 -32 26 -80 33 -120 17z m435
-1021 l384 -766 -388 -388 -388 -388 -383 382 c-210 210 -383 385 -383 389 0
4 13 34 28 65 82 165 176 354 200 400 15 28 142 281 282 562 140 281 257 511
260 511 3 0 178 -345 388 -767z m-1061 -2210 l-542 -543 -272 0 c-150 0 -273
2 -273 5 0 3 203 411 451 906 l451 902 363 -364 364 -364 -542 -542z m1983
367 c247 -495 450 -902 450 -905 0 -3 -125 -5 -277 -5 l-277 0 -538 538 c-296
295 -538 541 -538 545 0 10 712 726 722 726 5 1 210 -404 458 -899z m-831
-435 l475 -475 -952 0 c-524 0 -952 3 -952 6 0 10 934 943 945 943 6 0 223
-213 484 -474z"/>
</g>
</svg>
