<?xml version="1.0" standalone="no"?>
<!DOCTYPE svg PUBLIC "-//W3C//DTD SVG 20010904//EN"
 "http://www.w3.org/TR/2001/REC-SVG-20010904/DTD/svg10.dtd">
<svg version="1.0" xmlns="http://www.w3.org/2000/svg"
 width="500.000000pt" height="500.000000pt" viewBox="0 0 500.000000 500.000000"
 preserveAspectRatio="xMidYMid meet">
<metadata>
Created by potrace 1.11, written by Peter Selinger 2001-2013
</metadata>
<g transform="translate(0.000000,500.000000) scale(0.100000,-0.100000)"
fill="#000000" stroke="none">
<path d="M2260 4254 c-195 -29 -359 -79 -525 -159 -466 -224 -810 -638 -944
-1136 -11 -41 -22 -85 -25 -99 -2 -14 -7 -41 -10 -60 -3 -19 -9 -48 -12 -65
-10 -49 -13 -387 -4 -435 5 -25 11 -65 15 -90 13 -95 58 -256 101 -363 114
-285 283 -516 514 -707 198 -164 407 -274 650 -343 289 -83 639 -86 935 -7
349 92 694 314 910 585 22 28 43 52 46 55 19 16 115 169 156 250 74 142 146
342 167 460 2 14 7 41 10 60 3 19 9 49 12 65 3 17 7 109 9 205 5 301 -46 536
-175 805 -176 368 -497 677 -874 843 -93 41 -253 95 -315 107 -169 33 -214 38
-371 40 -113 2 -209 -2 -270 -11z m450 -177 c14 -3 43 -8 64 -11 248 -40 563
-187 751 -351 307 -267 500 -622 551 -1010 10 -74 11 -320 2 -395 -28 -238
-127 -502 -260 -698 -257 -378 -643 -617 -1106 -687 -84 -12 -367 -14 -422 -2
-14 3 -43 8 -64 12 -128 19 -289 72 -431 142 -415 205 -719 580 -835 1033 -12
47 -24 99 -26 115 -1 17 -7 59 -13 95 -10 64 -7 329 4 404 27 183 115 435 198
571 119 194 235 327 397 456 193 154 466 275 705 313 55 8 111 17 125 19 31 5
325 0 360 -6z"/>
</g>
</svg>
