<?xml version="1.0" standalone="no"?>
<!DOCTYPE svg PUBLIC "-//W3C//DTD SVG 20010904//EN"
 "http://www.w3.org/TR/2001/REC-SVG-20010904/DTD/svg10.dtd">
<svg version="1.0" xmlns="http://www.w3.org/2000/svg"
 width="500.000000pt" height="500.000000pt" viewBox="0 0 500.000000 500.000000"
 preserveAspectRatio="xMidYMid meet">
<metadata>
Created by potrace 1.11, written by Peter Selinger 2001-2013
</metadata>
<g transform="translate(0.000000,500.000000) scale(0.100000,-0.100000)"
fill="#000000" stroke="none">
<path d="M519 4481 l-29 -29 0 -1952 0 -1952 29 -29 29 -29 1952 0 1952 0 29
29 29 29 0 1952 0 1952 -29 29 -29 29 -1952 0 -1952 0 -29 -29z m3811 -1981
l0 -1830 -1830 0 -1830 0 0 1830 0 1830 1830 0 1830 0 0 -1830z"/>
<path d="M2260 4254 c-332 -50 -639 -184 -878 -383 l-64 -53 -40 38 c-22 22
-92 92 -156 156 -64 65 -128 122 -142 127 -66 23 -139 -44 -119 -111 5 -20 58
-81 146 -168 76 -76 146 -147 156 -158 18 -20 18 -22 -45 -99 -78 -95 -120
-160 -186 -283 -69 -130 -145 -341 -166 -460 -2 -14 -7 -41 -10 -60 -3 -19 -9
-48 -12 -65 -10 -50 -13 -366 -4 -425 4 -30 11 -75 15 -100 41 -280 187 -603
375 -829 l50 -60 -160 -160 c-157 -158 -166 -170 -160 -226 5 -51 73 -83 127
-59 15 6 95 79 177 162 l149 150 71 -60 c172 -145 401 -264 636 -331 289 -83
639 -86 935 -7 235 62 482 188 665 341 l62 51 30 -28 c17 -16 85 -83 152 -150
66 -67 130 -126 141 -131 44 -23 113 11 127 62 12 46 -12 81 -151 218 -71 71
-137 137 -146 147 -16 18 -15 21 26 72 24 29 49 58 56 65 6 7 21 29 34 50 13
21 26 40 29 43 24 18 134 235 178 350 22 56 68 215 76 260 2 14 7 41 10 60 3
19 9 49 12 65 3 17 7 109 9 205 4 239 -25 417 -101 632 -62 174 -177 377 -292
515 -29 34 -52 66 -52 70 0 5 66 73 146 153 164 163 182 191 160 245 -17 40
-62 65 -103 57 -16 -3 -86 -65 -185 -163 l-159 -159 -60 50 c-120 100 -269
191 -419 255 -81 35 -244 90 -299 100 -168 33 -214 38 -371 40 -113 2 -208 -2
-270 -11z m450 -177 c14 -3 43 -8 64 -11 248 -40 546 -179 749 -349 l29 -24
-522 -522 c-286 -287 -525 -522 -530 -524 -8 -1 -744 726 -1009 997 -49 50
-51 43 29 107 195 155 465 275 705 313 55 8 111 17 125 19 31 5 325 0 360 -6z
m1041 -597 c165 -205 288 -499 326 -775 9 -73 11 -319 1 -395 -24 -200 -103
-437 -204 -610 -58 -100 -168 -245 -186 -245 -5 0 -245 236 -534 525 l-524
525 527 527 c488 488 528 526 543 510 8 -9 31 -37 51 -62z m-1950 -414 c266
-266 501 -502 522 -524 l39 -40 -527 -527 -527 -526 -29 33 c-42 48 -151 212
-192 291 -62 116 -138 341 -152 451 -3 17 -9 60 -14 96 -10 65 -7 330 4 404
27 183 114 435 198 571 67 109 174 255 188 255 3 0 223 -218 490 -484z m1232
-1232 c285 -285 516 -521 515 -525 -5 -13 -113 -96 -183 -141 -202 -130 -405
-206 -653 -243 -84 -12 -367 -14 -422 -2 -14 3 -43 8 -64 12 -65 9 -197 44
-271 72 -154 57 -374 184 -477 275 l-38 33 527 527 c353 353 531 524 538 518
6 -5 244 -242 528 -526z"/>
</g>
</svg>
