<?xml version="1.0" standalone="no"?>
<!DOCTYPE svg PUBLIC "-//W3C//DTD SVG 20010904//EN"
 "http://www.w3.org/TR/2001/REC-SVG-20010904/DTD/svg10.dtd">
<svg version="1.0" xmlns="http://www.w3.org/2000/svg"
 width="500.000000pt" height="500.000000pt" viewBox="0 0 500.000000 500.000000"
 preserveAspectRatio="xMidYMid meet">
<metadata>
Created by potrace 1.11, written by Peter Selinger 2001-2013
</metadata>
<g transform="translate(0.000000,500.000000) scale(0.100000,-0.100000)"
fill="#000000" stroke="none">
<path d="M408 4110 c-30 -30 -30 -31 -23 -108 13 -159 23 -265 30 -322 2 -19
7 -66 10 -105 3 -38 10 -110 15 -160 10 -98 17 -167 25 -260 3 -33 7 -78 10
-100 5 -46 13 -135 20 -215 3 -30 8 -71 10 -90 3 -19 7 -64 10 -100 3 -36 9
-112 15 -170 6 -58 13 -132 16 -165 3 -33 7 -76 9 -95 2 -19 7 -64 10 -100 3
-36 8 -78 10 -95 2 -16 6 -70 10 -120 4 -49 9 -97 10 -106 2 -9 6 -56 10 -105
4 -49 9 -96 10 -105 2 -9 6 -52 10 -95 3 -43 8 -97 11 -119 11 -90 13 -114 19
-190 3 -44 8 -91 10 -105 2 -14 6 -59 10 -100 3 -41 8 -84 10 -95 2 -11 4 -26
4 -32 1 -10 372 -13 1821 -13 1611 0 1820 2 1821 15 1 8 2 18 3 23 1 4 6 45
10 92 4 47 9 99 11 115 2 17 7 64 10 105 3 41 8 89 10 105 5 33 11 91 21 205
3 41 8 86 9 100 1 14 6 59 9 100 4 41 9 91 11 110 2 19 7 64 10 100 3 36 7 85
10 110 2 25 7 69 10 98 3 28 7 73 10 100 12 124 17 180 20 212 1 19 6 64 9
100 8 71 11 110 21 210 3 36 8 85 10 110 2 25 7 72 10 105 3 33 8 80 10 105 3
25 7 74 10 110 3 36 7 81 10 100 2 19 7 64 10 100 3 36 8 81 10 100 2 19 7 69
11 110 3 41 7 86 9 100 1 14 5 59 9 100 4 41 9 91 11 110 2 19 7 70 11 112 6
77 6 78 -24 108 -41 40 -83 40 -123 1 -17 -18 -29 -41 -30 -58 -1 -15 -2 -39
-4 -53 -3 -28 -14 -143 -20 -205 -3 -22 -7 -67 -10 -100 -3 -33 -8 -85 -11
-115 -2 -30 -7 -73 -9 -95 -2 -22 -6 -69 -10 -105 -4 -36 -8 -81 -10 -100 -17
-188 -26 -274 -30 -278 -6 -6 -80 36 -120 68 -22 17 -112 102 -200 189 -223
219 -304 265 -490 277 -154 11 -276 -23 -390 -109 -22 -17 -116 -107 -210
-202 -144 -146 -180 -177 -235 -203 -161 -75 -352 -54 -489 55 -25 20 -111
102 -191 183 -179 181 -254 234 -374 265 -49 13 -227 14 -271 2 -123 -34 -211
-95 -386 -270 -79 -79 -167 -161 -194 -183 -50 -38 -131 -81 -139 -73 -4 4
-10 53 -22 179 -2 30 -7 71 -9 90 -2 19 -7 67 -10 105 -3 39 -8 88 -10 110 -7
66 -14 146 -21 220 -3 39 -7 80 -9 92 -2 12 -7 61 -10 108 -4 48 -8 94 -10
103 -2 10 -4 30 -4 45 -1 17 -12 40 -30 58 -40 39 -82 39 -123 -1z m1252 -777
c58 -26 128 -82 215 -173 252 -262 342 -324 524 -355 48 -8 169 -9 221 0 169
26 257 87 513 354 161 168 249 210 406 197 86 -7 162 -38 230 -94 25 -20 111
-102 191 -182 155 -155 221 -207 316 -245 70 -29 66 -2 40 -280 -2 -22 -7 -74
-11 -115 -3 -41 -8 -86 -10 -100 -2 -14 -7 -59 -10 -100 -4 -41 -8 -91 -10
-110 -2 -19 -6 -66 -9 -105 -4 -38 -8 -86 -11 -105 -4 -33 -10 -92 -20 -200
-2 -25 -7 -70 -9 -100 -3 -30 -8 -82 -11 -115 -3 -33 -8 -80 -10 -105 -3 -25
-8 -74 -11 -110 -3 -36 -7 -76 -9 -90 -1 -14 -6 -60 -10 -102 l-7 -78 -1659 0
-1659 0 -1 23 c-1 12 -2 33 -4 47 -1 14 -5 59 -9 100 -4 41 -9 89 -11 105 -3
29 -15 150 -20 210 -3 42 -15 162 -20 210 -2 22 -7 72 -10 110 -3 39 -8 84
-10 100 -2 17 -6 62 -10 100 -3 39 -8 86 -10 105 -3 19 -7 67 -10 105 -3 39
-8 88 -10 110 -3 22 -7 67 -10 100 -3 33 -7 76 -10 95 -7 61 -18 204 -19 239
-1 32 2 35 49 50 104 34 178 90 375 285 162 160 212 199 295 228 67 23 192 18
255 -9z"/>
<path d="M1454 2229 c-116 -49 -175 -197 -125 -310 84 -190 345 -197 437 -11
28 55 26 154 -4 211 -59 113 -192 160 -308 110z"/>
<path d="M2414 2230 c-87 -37 -143 -128 -140 -226 6 -212 257 -311 407 -160
88 88 89 240 3 329 -72 74 -177 96 -270 57z"/>
<path d="M3375 2230 c-114 -49 -171 -181 -130 -301 34 -98 118 -154 231 -154
61 0 76 4 114 29 58 38 86 72 105 125 54 158 -59 318 -225 318 -30 0 -73 -7
-95 -17z"/>
</g>
</svg>
