<?xml version="1.0" standalone="no"?>
<!DOCTYPE svg PUBLIC "-//W3C//DTD SVG 20010904//EN"
 "http://www.w3.org/TR/2001/REC-SVG-20010904/DTD/svg10.dtd">
<svg version="1.0" xmlns="http://www.w3.org/2000/svg"
 width="500.000000pt" height="500.000000pt" viewBox="0 0 500.000000 500.000000"
 preserveAspectRatio="xMidYMid meet">
<metadata>
Created by potrace 1.11, written by Peter Selinger 2001-2013
</metadata>
<g transform="translate(0.000000,500.000000) scale(0.100000,-0.100000)"
fill="#000000" stroke="none">
<path d="M408 4470 l-30 -30 7 -88 c4 -48 8 -98 10 -112 2 -14 6 -54 10 -90 3
-36 8 -86 10 -112 3 -27 7 -69 10 -95 2 -27 7 -75 10 -108 3 -33 8 -87 11
-120 2 -33 7 -77 9 -98 3 -20 7 -68 10 -105 3 -37 8 -78 10 -92 2 -14 7 -61
10 -105 3 -44 8 -96 10 -115 2 -19 6 -57 9 -85 3 -27 8 -77 11 -110 3 -33 7
-80 10 -105 2 -25 7 -70 9 -100 9 -93 18 -193 22 -225 1 -16 6 -63 9 -104 4
-41 8 -82 10 -90 1 -9 6 -59 10 -111 4 -52 9 -102 10 -111 2 -9 6 -56 10 -105
4 -49 9 -96 10 -105 2 -9 6 -52 10 -95 3 -43 8 -97 11 -119 10 -87 13 -113 20
-190 4 -44 8 -93 9 -110 14 -140 18 -182 20 -195 2 -8 4 -21 4 -27 1 -10 372
-13 1821 -13 1001 0 1820 3 1821 8 0 4 2 14 3 22 2 8 7 51 10 95 4 44 9 94 10
110 2 17 6 62 10 100 4 39 9 90 11 115 3 25 7 68 9 95 12 129 17 182 21 205 2
14 6 63 10 110 4 47 8 96 10 110 2 14 6 59 10 100 3 41 7 91 10 110 2 19 7 64
10 100 3 36 8 83 10 105 2 22 7 72 10 110 3 39 8 81 10 95 2 14 6 57 10 95 10
114 15 167 20 215 3 25 7 74 10 110 3 36 8 81 10 100 2 19 7 69 11 110 3 41 8
86 9 100 1 14 6 59 9 100 4 41 9 92 12 113 2 21 6 63 9 95 3 31 7 86 11 122 8
81 10 97 18 190 4 41 9 86 11 100 2 14 7 64 10 113 6 87 6 87 -24 117 -39 40
-82 40 -121 2 -23 -24 -29 -39 -35 -103 -4 -40 -9 -92 -11 -114 -2 -22 -6 -67
-9 -100 -3 -33 -7 -76 -10 -95 -4 -36 -10 -92 -20 -220 -4 -41 -8 -86 -10
-100 -2 -14 -7 -61 -11 -105 -3 -44 -8 -91 -9 -105 -14 -134 -18 -165 -20
-168 -4 -4 -58 22 -90 43 -36 24 -25 14 -226 210 -168 164 -241 219 -347 258
-48 18 -78 21 -192 21 -145 0 -203 -15 -294 -72 -60 -37 -57 -35 -245 -223
-97 -96 -196 -187 -221 -201 -95 -55 -231 -74 -345 -48 -101 23 -161 65 -335
240 -190 191 -265 248 -370 284 -66 22 -89 24 -185 22 -194 -6 -280 -54 -511
-284 -82 -81 -167 -162 -189 -179 -44 -34 -132 -80 -139 -72 -4 4 -10 51 -22
179 -2 30 -7 71 -9 90 -2 19 -7 67 -10 105 -3 39 -8 88 -10 110 -5 40 -24 250
-30 315 -2 19 -6 64 -9 100 -19 186 -22 199 -58 224 -35 25 -76 20 -110 -14z
m1252 -778 c75 -34 112 -66 304 -261 110 -112 175 -165 256 -209 47 -25 70
-33 130 -47 119 -28 261 -22 372 16 116 39 199 106 422 338 149 157 237 198
393 187 137 -11 195 -47 403 -257 180 -181 264 -243 383 -283 15 -5 18 -13 13
-49 -3 -23 -10 -98 -16 -167 -6 -69 -12 -141 -15 -160 -2 -19 -7 -64 -10 -100
-4 -36 -8 -81 -10 -100 -2 -19 -7 -71 -10 -115 -3 -44 -8 -91 -10 -105 -2 -14
-7 -56 -10 -95 -4 -38 -8 -86 -10 -105 -2 -19 -7 -66 -10 -105 -3 -38 -8 -81
-10 -95 -3 -14 -7 -61 -10 -105 -4 -44 -8 -96 -10 -115 -8 -72 -15 -146 -19
-190 -3 -25 -8 -78 -12 -117 l-7 -73 -1658 0 -1659 0 -1 33 c0 17 -2 39 -4 47
-1 8 -6 47 -9 85 -4 39 -9 90 -12 115 -6 64 -13 145 -19 215 -2 33 -7 76 -10
95 -2 19 -7 67 -10 105 -3 39 -7 88 -10 110 -2 22 -7 67 -10 100 -3 33 -8 78
-10 100 -2 22 -7 69 -10 105 -7 85 -15 165 -20 215 -3 22 -7 67 -10 100 -3 33
-7 78 -10 100 -8 77 -18 190 -19 228 -1 39 0 39 60 62 117 44 177 91 384 297
146 146 187 178 271 207 71 26 194 23 259 -7z"/>
<path d="M829 991 c-20 -20 -29 -39 -29 -61 0 -22 9 -41 29 -61 l29 -29 1652
0 1652 0 29 29 c39 40 39 82 0 122 l-29 29 -1652 0 -1652 0 -29 -29z"/>
<path d="M829 631 c-20 -20 -29 -39 -29 -61 0 -22 9 -41 29 -61 l29 -29 1652
0 1652 0 29 29 c39 40 39 82 0 122 l-29 29 -1652 0 -1652 0 -29 -29z"/>
</g>
</svg>
