<?xml version="1.0" standalone="no"?>
<!DOCTYPE svg PUBLIC "-//W3C//DTD SVG 20010904//EN"
 "http://www.w3.org/TR/2001/REC-SVG-20010904/DTD/svg10.dtd">
<svg version="1.0" xmlns="http://www.w3.org/2000/svg"
 width="500.000000pt" height="500.000000pt" viewBox="0 0 500.000000 500.000000"
 preserveAspectRatio="xMidYMid meet">
<metadata>
Created by potrace 1.11, written by Peter Selinger 2001-2013
</metadata>
<g transform="translate(0.000000,500.000000) scale(0.100000,-0.100000)"
fill="#000000" stroke="none">
<path d="M2260 4254 c-332 -50 -639 -184 -878 -383 l-64 -53 -40 38 c-22 22
-92 92 -156 156 -64 65 -128 122 -142 127 -66 23 -139 -44 -119 -111 5 -20 58
-81 146 -168 76 -76 146 -147 156 -158 18 -20 18 -22 -45 -99 -78 -95 -124
-165 -187 -286 -68 -127 -144 -340 -165 -457 -2 -14 -7 -41 -10 -60 -3 -19 -9
-48 -12 -65 -10 -50 -13 -366 -4 -425 4 -30 11 -75 15 -100 41 -280 187 -603
375 -828 l50 -61 -160 -160 c-157 -158 -166 -171 -160 -226 5 -45 63 -78 115
-64 20 6 84 62 184 163 l154 154 71 -60 c172 -145 401 -264 636 -331 289 -83
639 -86 935 -7 235 62 482 188 665 341 l62 51 30 -28 c17 -16 85 -83 152 -150
66 -67 130 -126 141 -131 44 -23 113 11 127 62 12 46 -12 81 -151 218 -71 71
-137 137 -146 147 -16 18 -15 21 26 72 24 29 47 55 50 58 19 16 115 169 156
250 74 142 146 342 167 460 2 14 7 41 10 60 3 19 9 49 12 65 3 17 7 109 9 205
4 239 -25 417 -101 632 -62 174 -177 377 -292 515 -29 34 -52 66 -52 70 0 5
66 73 146 153 164 163 182 191 160 245 -17 40 -62 65 -103 57 -16 -3 -86 -65
-185 -163 l-159 -159 -60 50 c-120 100 -269 191 -419 255 -81 35 -244 90 -299
100 -168 33 -214 38 -371 40 -113 2 -208 -2 -270 -11z m450 -178 c14 -2 45 -7
70 -11 24 -4 47 -8 51 -10 3 -2 21 -7 40 -10 69 -12 247 -77 344 -127 91 -45
235 -140 308 -201 l29 -24 -527 -527 -527 -527 -30 28 c-28 27 -1009 1009
-1017 1018 -4 5 11 20 69 66 194 154 466 275 705 313 55 8 111 17 125 20 30 4
325 -1 360 -8z m1028 -580 c180 -225 300 -505 339 -791 9 -72 11 -319 1 -395
-23 -194 -94 -412 -193 -589 -62 -112 -188 -281 -200 -270 -2 2 -241 240 -530
529 l-525 525 527 527 c290 291 528 528 529 528 0 0 24 -29 52 -64z m-1937
-430 c266 -266 501 -502 522 -524 l39 -40 -527 -527 -527 -526 -29 33 c-42 48
-151 212 -192 291 -61 113 -140 347 -152 447 -2 14 -7 52 -12 85 -10 73 -11
295 -1 385 19 184 109 456 201 605 67 109 174 255 188 255 3 0 223 -218 490
-484z m1232 -1232 c285 -285 516 -521 515 -525 -5 -13 -113 -96 -183 -141
-204 -131 -411 -208 -655 -243 -90 -13 -363 -14 -420 -2 -14 3 -43 8 -64 12
-65 9 -197 44 -271 72 -154 57 -374 184 -477 275 l-38 33 527 527 c353 353
531 524 538 518 6 -5 244 -242 528 -526z"/>
</g>
</svg>
