<?xml version="1.0" standalone="no"?>
<!DOCTYPE svg PUBLIC "-//W3C//DTD SVG 20010904//EN"
 "http://www.w3.org/TR/2001/REC-SVG-20010904/DTD/svg10.dtd">
<svg version="1.0" xmlns="http://www.w3.org/2000/svg"
 width="500.000000pt" height="500.000000pt" viewBox="0 0 500.000000 500.000000"
 preserveAspectRatio="xMidYMid meet">
<metadata>
Created by potrace 1.11, written by Peter Selinger 2001-2013
</metadata>
<g transform="translate(0.000000,500.000000) scale(0.100000,-0.100000)"
fill="#000000" stroke="none">
<path d="M408 4110 c-33 -33 -33 -31 -13 -230 2 -19 6 -66 10 -105 3 -38 8
-81 10 -95 2 -14 6 -59 10 -100 3 -41 10 -115 15 -165 5 -49 11 -115 14 -145
14 -152 25 -256 31 -310 2 -19 7 -71 10 -115 3 -44 8 -91 10 -105 2 -14 7 -54
10 -90 2 -36 9 -112 15 -170 6 -58 13 -132 16 -165 3 -33 7 -76 9 -95 4 -30
10 -90 20 -205 1 -16 6 -66 10 -110 3 -44 8 -91 10 -105 2 -14 7 -61 10 -105
4 -44 8 -91 10 -105 2 -14 7 -56 10 -95 7 -84 15 -161 20 -195 2 -14 6 -65 10
-114 4 -50 8 -97 10 -105 2 -9 6 -52 9 -96 4 -44 8 -89 11 -100 2 -11 4 -26 4
-32 1 -10 372 -13 1821 -13 1611 0 1820 2 1821 15 1 8 2 18 3 23 1 4 6 48 11
97 4 50 9 99 10 110 2 11 6 54 9 95 4 41 9 86 11 100 2 14 7 61 10 105 3 44 8
96 10 115 2 19 7 62 10 95 3 33 7 80 10 105 3 25 7 72 10 105 3 33 7 83 10
110 3 28 7 77 11 110 3 33 7 76 9 95 2 19 7 67 11 105 7 82 11 121 18 190 3
28 8 79 11 115 3 36 8 83 10 105 2 22 7 72 10 110 3 39 8 86 10 105 2 19 7 69
11 110 3 41 8 89 10 105 2 17 6 64 9 105 3 41 8 86 10 100 2 14 7 59 10 100 3
41 8 86 10 100 2 14 7 61 10 105 4 44 8 91 10 105 1 14 6 59 10 100 4 41 8 89
10 105 2 17 6 67 10 112 7 82 7 83 -23 113 -41 40 -83 40 -123 1 -16 -16 -29
-38 -30 -48 -2 -39 -11 -135 -24 -263 -1 -14 -6 -61 -9 -105 -14 -163 -12
-160 -71 -169 -112 -17 -216 -89 -412 -285 -151 -150 -222 -210 -276 -230
l-25 -10 2 90 c2 50 -1 114 -5 142 -5 29 -11 67 -14 86 -8 49 -51 174 -81 234
-147 293 -429 497 -747 540 -119 17 -262 13 -337 -8 -8 -2 -26 -6 -40 -9 -43
-7 -171 -57 -229 -88 -137 -74 -277 -198 -354 -314 -25 -38 -58 -87 -74 -109
-260 -371 -264 -379 -256 -474 2 -30 11 -67 19 -84 l16 -30 -64 6 c-115 10
-159 39 -358 233 -151 148 -183 176 -245 220 -69 48 -174 91 -233 96 -27 2
-32 6 -33 30 -1 15 -2 31 -3 36 -2 6 -9 77 -21 197 -2 22 -7 76 -11 120 -3 44
-8 87 -9 95 -2 8 -4 28 -4 43 -1 17 -12 40 -30 58 -40 40 -82 39 -123 -1z
m2362 -193 c251 -32 495 -209 609 -441 124 -251 111 -552 -33 -783 -94 -150
-574 -823 -594 -832 -37 -17 -69 -13 -97 13 -29 27 -38 70 -22 101 6 11 113
167 239 347 162 231 230 335 230 356 2 76 -77 119 -142 77 -12 -8 -288 -395
-460 -645 -156 -226 -277 -399 -293 -416 -54 -62 -161 -15 -152 67 2 14 155
242 342 510 187 266 356 508 376 538 22 32 37 65 37 83 0 38 -48 88 -85 88
-28 0 -85 -26 -85 -38 0 -4 -7 -17 -15 -27 -9 -11 -109 -153 -222 -315 -114
-162 -230 -329 -259 -370 -29 -41 -110 -157 -180 -258 -80 -116 -136 -187
-151 -193 -41 -15 -63 -10 -94 20 -39 39 -38 76 4 137 18 27 203 291 411 588
319 455 378 544 378 573 0 61 -58 102 -117 83 -28 -9 -77 -74 -331 -437 -165
-234 -310 -442 -324 -462 -14 -20 -49 -71 -78 -113 -63 -90 -91 -106 -144 -80
-42 22 -63 63 -50 101 5 15 100 155 209 312 110 156 293 416 407 578 155 221
206 301 206 323 0 61 -83 108 -139 79 -9 -5 -84 -106 -167 -225 -156 -226
-175 -244 -234 -231 -48 11 -80 76 -57 120 11 23 239 351 306 440 186 250 466
370 771 332z m-2091 -582 c73 -26 143 -80 308 -243 209 -206 300 -267 434
-287 62 -10 168 -8 208 4 19 6 37 9 39 6 3 -3 -13 -31 -35 -62 -22 -32 -64
-92 -92 -133 -29 -41 -75 -106 -102 -145 -83 -117 -136 -199 -144 -225 -44
-141 49 -312 188 -344 23 -6 27 -11 27 -44 0 -178 177 -310 345 -258 l49 15
29 -35 c78 -94 206 -124 318 -76 60 26 90 56 173 175 l68 99 37 -36 c43 -42
124 -76 179 -76 60 0 135 27 175 62 21 18 158 206 306 418 148 212 274 390
279 396 27 30 64 98 93 169 35 84 43 95 72 95 52 0 207 81 268 139 9 9 88 86
175 172 148 144 225 204 292 224 26 8 26 11 7 -170 -13 -132 -17 -175 -20
-215 -2 -25 -6 -67 -9 -95 -9 -82 -24 -239 -41 -430 -4 -44 -8 -87 -10 -95 -2
-8 -6 -51 -10 -95 -3 -44 -8 -93 -10 -110 -1 -16 -6 -66 -10 -110 -4 -44 -8
-91 -10 -105 -2 -14 -7 -59 -11 -100 -3 -41 -8 -86 -9 -100 -1 -14 -6 -61 -9
-105 -4 -44 -9 -96 -11 -115 -3 -19 -7 -66 -11 -105 -4 -38 -8 -81 -9 -95 -2
-14 -6 -59 -10 -100 -4 -41 -8 -84 -10 -95 -1 -11 -3 -35 -4 -52 l-1 -33
-1660 0 -1660 0 -1 33 c0 17 -2 40 -4 50 -2 9 -6 50 -10 90 -4 39 -8 88 -10
107 -6 51 -15 148 -19 200 -2 25 -7 68 -10 95 -3 28 -8 82 -11 120 -3 39 -8
88 -10 110 -2 22 -7 67 -10 100 -3 33 -8 78 -10 100 -6 61 -14 144 -20 205 -2
30 -7 80 -10 110 -3 30 -7 78 -10 105 -3 28 -7 73 -10 100 -13 136 -19 192
-31 325 -3 41 -8 82 -9 91 -2 8 -6 55 -10 105 -4 49 -8 99 -10 111 -8 51 -17
173 -12 173 2 0 23 -7 46 -15z"/>
</g>
</svg>
