<?xml version="1.0" standalone="no"?>
<!DOCTYPE svg PUBLIC "-//W3C//DTD SVG 20010904//EN"
 "http://www.w3.org/TR/2001/REC-SVG-20010904/DTD/svg10.dtd">
<svg version="1.0" xmlns="http://www.w3.org/2000/svg"
 width="500.000000pt" height="500.000000pt" viewBox="0 0 500.000000 500.000000"
 preserveAspectRatio="xMidYMid meet">
<metadata>
Created by potrace 1.11, written by Peter Selinger 2001-2013
</metadata>
<g transform="translate(0.000000,500.000000) scale(0.100000,-0.100000)"
fill="#000000" stroke="none">
<path d="M519 4481 l-29 -29 0 -1952 0 -1952 29 -29 29 -29 1952 0 1952 0 29
29 29 29 0 1952 0 1952 -29 29 -29 29 -1952 0 -1952 0 -29 -29z m3811 -1981
l0 -1830 -1830 0 -1830 0 0 1830 0 1830 1830 0 1830 0 0 -1830z"/>
<path d="M2260 4253 c-382 -55 -702 -211 -993 -483 -63 -58 -195 -218 -246
-298 -117 -181 -225 -439 -255 -612 -2 -14 -7 -41 -10 -60 -3 -19 -9 -48 -12
-65 -13 -66 -12 -381 2 -470 54 -349 183 -644 391 -894 79 -93 116 -131 213
-214 47 -39 87 -75 88 -79 2 -5 8 -8 14 -8 6 0 27 -13 48 -30 21 -16 41 -30
46 -30 4 0 15 -6 23 -14 24 -22 217 -119 296 -149 202 -76 373 -108 600 -113
250 -4 436 27 665 113 304 114 589 329 781 588 33 44 63 85 67 90 38 48 136
242 180 355 22 56 68 215 76 260 2 14 7 41 10 60 3 19 9 49 12 65 3 17 7 109
9 205 5 301 -46 534 -175 805 -225 472 -678 832 -1195 950 -191 44 -450 55
-635 28z m450 -176 c14 -2 45 -8 70 -12 24 -3 47 -8 51 -10 3 -2 21 -7 40 -10
69 -12 247 -77 344 -127 158 -79 321 -201 436 -323 80 -86 102 -113 164 -205
125 -188 214 -407 251 -620 19 -108 25 -351 12 -460 -22 -192 -102 -433 -196
-595 -24 -42 -65 -108 -74 -120 -196 -257 -357 -395 -605 -519 -148 -74 -265
-110 -510 -156 -46 -8 -363 -6 -403 3 -14 3 -42 8 -63 11 -206 31 -469 142
-660 279 -230 166 -424 411 -534 677 -32 77 -67 182 -77 235 -2 11 -9 43 -16
70 -19 82 -25 162 -25 315 1 162 6 209 34 337 113 504 469 926 951 1126 36 15
72 27 80 27 9 0 20 4 25 8 19 16 190 55 300 68 28 4 52 8 54 10 5 4 320 -3
351 -9z"/>
<path d="M1468 2731 c-32 -11 -85 -47 -111 -76 -37 -42 -56 -102 -53 -170 2
-54 8 -72 35 -113 67 -97 174 -134 282 -97 94 32 153 119 154 225 0 98 -47
175 -133 216 -42 20 -133 28 -174 15z"/>
<path d="M2428 2731 c-32 -11 -85 -47 -111 -76 -37 -42 -56 -102 -53 -170 2
-54 8 -72 35 -113 92 -133 264 -149 376 -33 109 111 70 308 -73 377 -42 20
-133 28 -174 15z"/>
<path d="M3388 2731 c-61 -20 -119 -73 -147 -136 -51 -116 0 -254 116 -311 51
-26 155 -26 205 0 180 89 180 346 0 432 -42 20 -133 28 -174 15z"/>
</g>
</svg>
