<?xml version="1.0" standalone="no"?>
<!DOCTYPE svg PUBLIC "-//W3C//DTD SVG 20010904//EN"
 "http://www.w3.org/TR/2001/REC-SVG-20010904/DTD/svg10.dtd">
<svg version="1.0" xmlns="http://www.w3.org/2000/svg"
 width="500.000000pt" height="500.000000pt" viewBox="0 0 500.000000 500.000000"
 preserveAspectRatio="xMidYMid meet">
<metadata>
Created by potrace 1.11, written by Peter Selinger 2001-2013
</metadata>
<g transform="translate(0.000000,500.000000) scale(0.100000,-0.100000)"
fill="#000000" stroke="none">
<path d="M1333 4356 c-22 -19 -28 -32 -28 -66 0 -34 6 -47 28 -66 l28 -24
1088 0 1088 0 102 -265 c57 -146 105 -273 108 -284 3 -14 -60 -83 -262 -285
l-267 -266 -712 0 -712 0 -395 395 c-391 390 -396 395 -436 395 -24 0 -50 -7
-62 -17 -27 -22 -42 -83 -28 -109 6 -11 160 -169 342 -352 183 -183 330 -334
326 -336 -3 -2 -24 -6 -46 -10 -68 -12 -216 -64 -297 -105 -340 -172 -606
-500 -798 -984 -56 -144 -140 -411 -140 -450 0 -14 11 -39 24 -54 l24 -28 623
-5 622 -5 -340 -341 c-187 -187 -342 -349 -345 -360 -10 -39 15 -88 54 -107
33 -16 40 -16 70 -3 19 8 199 181 433 415 l400 401 681 0 681 0 410 -410 c229
-229 419 -411 429 -411 57 -4 99 17 114 56 21 55 2 78 -345 425 l-336 335 625
5 c594 5 625 6 645 24 11 10 23 33 26 50 6 30 -9 73 -210 586 -18 47 -52 135
-75 195 -23 61 -45 119 -50 130 -28 68 -56 139 -113 290 -36 94 -85 222 -110
285 -25 63 -62 158 -82 210 -20 52 -61 158 -91 234 l-55 140 80 80 c44 45 85
94 91 110 15 42 -14 97 -59 112 -48 16 -64 9 -128 -52 -31 -30 -57 -53 -59
-52 -1 2 -50 127 -109 278 -74 193 -113 282 -131 298 l-25 22 -1134 0 -1134 0
-28 -24z m2566 -1090 c34 -87 61 -160 61 -162 0 -2 -107 -4 -237 -4 l-238 0
170 170 c93 93 172 166 176 162 4 -4 35 -78 68 -166z m-1890 -648 c163 -163
311 -312 329 -331 l33 -34 -316 -317 -316 -316 -635 0 c-349 0 -634 1 -634 3
0 9 71 220 95 282 42 111 137 303 195 395 180 288 396 469 669 560 81 27 237
59 270 55 7 -1 147 -135 310 -297z m764 36 c-146 -146 -267 -264 -269 -262
-15 13 -493 491 -508 507 l-19 21 531 0 530 0 -265 -266z m1267 255 c0 -6 6
-25 14 -42 8 -18 35 -88 61 -157 26 -69 53 -138 60 -155 7 -16 64 -160 125
-320 170 -440 232 -599 237 -607 2 -5 -281 -8 -629 -8 l-634 0 -317 317 -317
318 332 332 333 333 367 0 c261 0 368 -3 368 -11z m-1304 -1018 c126 -126 238
-238 248 -250 l19 -21 -499 0 -499 0 250 250 c137 138 250 250 251 250 0 0
104 -103 230 -229z"/>
</g>
</svg>
