<?xml version="1.0" standalone="no"?>
<!DOCTYPE svg PUBLIC "-//W3C//DTD SVG 20010904//EN"
 "http://www.w3.org/TR/2001/REC-SVG-20010904/DTD/svg10.dtd">
<svg version="1.0" xmlns="http://www.w3.org/2000/svg"
 width="500.000000pt" height="500.000000pt" viewBox="0 0 500.000000 500.000000"
 preserveAspectRatio="xMidYMid meet">
<metadata>
Created by potrace 1.11, written by Peter Selinger 2001-2013
</metadata>
<g transform="translate(0.000000,500.000000) scale(0.100000,-0.100000)"
fill="#000000" stroke="none">
<path d="M408 4290 l-30 -31 7 -92 c4 -50 9 -99 10 -108 2 -9 6 -52 10 -95 4
-43 8 -90 10 -104 2 -14 7 -61 11 -105 4 -44 8 -93 10 -110 2 -16 6 -64 9
-105 3 -41 8 -86 10 -100 2 -14 7 -59 10 -100 4 -41 8 -88 10 -105 2 -16 6
-61 10 -100 3 -38 8 -88 10 -110 2 -22 7 -67 10 -100 3 -33 8 -78 10 -100 2
-22 7 -71 10 -110 3 -38 8 -90 10 -115 3 -25 7 -69 10 -98 11 -114 16 -158 20
-192 2 -19 7 -66 10 -105 8 -101 19 -213 40 -420 2 -22 7 -71 10 -110 7 -84
15 -161 20 -195 2 -14 6 -63 10 -110 4 -47 8 -98 10 -115 2 -16 7 -65 10 -107
4 -42 8 -85 10 -95 2 -10 4 -21 4 -25 1 -5 820 -8 1820 -8 l1819 0 6 38 c3 20
9 69 12 107 4 39 8 81 9 95 2 14 6 61 10 105 10 121 14 155 20 215 6 56 8 78
20 205 4 39 8 81 10 95 2 14 7 66 11 115 3 50 8 97 9 106 2 9 6 52 10 95 3 43
8 90 10 104 2 14 7 59 10 100 6 83 14 161 20 200 2 14 6 64 10 111 3 47 7 95
9 106 3 11 7 60 11 109 3 49 8 100 10 114 3 23 10 87 20 200 2 25 7 74 11 110
10 100 11 110 18 190 4 41 9 95 11 120 5 44 7 64 20 205 4 39 9 84 11 100 11
92 19 197 19 248 0 52 -3 61 -28 83 -16 14 -41 24 -58 24 -39 0 -89 -48 -90
-87 -1 -15 -2 -39 -4 -53 -1 -14 -5 -54 -9 -90 -3 -36 -13 -132 -21 -215 -8
-82 -17 -175 -19 -205 -6 -58 -14 -145 -21 -207 -2 -21 -6 -73 -10 -115 -4
-43 -8 -86 -10 -95 -2 -10 -4 -31 -4 -46 -1 -25 -4 -27 -23 -21 -48 14 -137
88 -292 242 -249 247 -327 287 -551 286 -111 0 -139 -4 -190 -24 -104 -40
-166 -88 -335 -260 -203 -207 -250 -240 -375 -266 -74 -16 -198 -1 -272 31
-77 34 -123 73 -293 245 -218 221 -304 270 -485 276 -114 4 -184 -9 -265 -50
-82 -41 -141 -90 -312 -259 -101 -100 -176 -165 -218 -189 -75 -44 -90 -46
-91 -15 0 12 -2 29 -3 37 -2 8 -6 53 -10 100 -3 47 -8 96 -10 110 -3 14 -7 59
-11 100 -6 81 -13 151 -20 215 -3 22 -7 67 -10 100 -3 33 -8 80 -10 105 -2 25
-7 81 -11 125 -4 44 -8 87 -10 95 -1 8 -3 28 -3 43 -1 17 -12 40 -30 58 -40
39 -82 39 -123 -1z m1252 -778 c74 -33 121 -73 281 -238 156 -161 229 -216
344 -259 126 -48 318 -49 442 -4 114 42 189 103 418 339 50 51 115 110 147
130 140 91 337 76 477 -37 25 -21 102 -94 171 -164 176 -179 264 -243 383
-283 19 -6 19 -17 2 -156 -3 -19 -7 -71 -11 -115 -3 -44 -7 -93 -10 -110 -2
-16 -6 -59 -9 -95 -3 -36 -8 -81 -10 -100 -3 -19 -7 -64 -10 -100 -3 -36 -7
-85 -10 -110 -3 -25 -8 -76 -11 -115 -4 -38 -8 -81 -9 -95 -2 -14 -6 -59 -9
-100 -4 -41 -9 -86 -11 -100 -2 -14 -7 -63 -11 -110 -7 -92 -8 -97 -19 -210
-10 -95 -11 -108 -20 -203 l-7 -77 -1659 0 -1659 0 -1 35 c-1 19 -2 38 -3 43
-1 4 -6 43 -10 87 -4 44 -9 96 -11 115 -2 19 -7 64 -10 100 -3 36 -8 81 -10
100 -2 19 -7 73 -11 120 -3 47 -8 92 -9 101 -2 9 -6 56 -10 105 -3 49 -8 96
-10 104 -2 8 -7 49 -10 90 -3 41 -7 91 -10 110 -2 19 -7 69 -11 110 -4 41 -8
86 -9 100 -1 14 -6 61 -9 105 -4 44 -9 91 -11 105 -5 31 -18 184 -19 228 -1
33 1 35 60 56 53 20 165 87 200 120 6 6 85 83 175 171 213 208 267 237 419
231 47 -3 92 -11 120 -24z"/>
<path d="M829 811 c-20 -20 -29 -39 -29 -61 0 -22 9 -41 29 -61 l29 -29 1652
0 1652 0 29 29 c39 40 39 82 0 122 l-29 29 -1652 0 -1652 0 -29 -29z"/>
</g>
</svg>
